<svg width="100" height="100" viewBox="0 0 100 100" fill="none" xmlns="http://www.w3.org/2000/svg">
<path d="M64.5833 58.3333H61.2917L60.125 57.2083C64.3495 52.3084 66.6713 46.0529 66.6667 39.5833C66.6667 34.2268 65.0783 28.9905 62.1023 24.5367C59.1264 20.0828 54.8965 16.6115 49.9477 14.5616C44.9989 12.5117 39.5533 11.9754 34.2996 13.0204C29.046 14.0654 24.2202 16.6449 20.4325 20.4325C16.6449 24.2202 14.0654 29.046 13.0204 34.2996C11.9754 39.5533 12.5117 44.9989 14.5616 49.9477C16.6115 54.8965 20.0828 59.1264 24.5367 62.1023C28.9905 65.0783 34.2268 66.6667 39.5833 66.6667C46.2917 66.6667 52.4583 64.2083 57.2083 60.125L58.3333 61.2917V64.5833L79.1667 85.375L85.375 79.1667L64.5833 58.3333V58.3333ZM39.5833 58.3333C29.2083 58.3333 20.8333 49.9583 20.8333 39.5833C20.8333 29.2083 29.2083 20.8333 39.5833 20.8333C49.9583 20.8333 58.3333 29.2083 58.3333 39.5833C58.3333 49.9583 49.9583 58.3333 39.5833 58.3333Z" fill="white"/>
</svg>
