<svg width="100" height="100" viewBox="0 0 100 100" fill="none" xmlns="http://www.w3.org/2000/svg">
<path d="M25 25H31.25V37.5H25V25ZM25 43.75H31.25V56.25H25V43.75ZM43.75 25H50V37.5H43.75V25ZM43.75 43.75H50V56.25H43.75V43.75ZM25 62.5H31.25V75H25V62.5ZM43.75 62.5H50V75H43.75V62.5Z" fill="#989EA0"/>
<path d="M93.75 43.75C93.75 42.0924 93.0915 40.5027 91.9194 39.3306C90.7473 38.1585 89.1576 37.5 87.5 37.5H68.75V12.5C68.75 10.8424 68.0915 9.25268 66.9194 8.08058C65.7473 6.90848 64.1576 6.25 62.5 6.25H12.5C10.8424 6.25 9.25268 6.90848 8.08058 8.08058C6.90848 9.25268 6.25 10.8424 6.25 12.5V93.75H93.75V43.75ZM12.5 12.5H62.5V87.5H12.5V12.5ZM68.75 87.5V43.75H87.5V87.5H68.75Z" fill="#989EA0"/>
</svg>
