<svg width="100" height="100" viewBox="0 0 100 100" fill="none" xmlns="http://www.w3.org/2000/svg">
<path d="M50 91.6666C26.9875 91.6666 8.33334 73.0124 8.33334 49.9999C8.33334 26.9874 26.9875 8.33325 50 8.33325C73.0125 8.33325 91.6667 26.9874 91.6667 49.9999C91.6667 73.0124 73.0125 91.6666 50 91.6666ZM50 83.3332C58.8406 83.3332 67.319 79.8214 73.5702 73.5701C79.8214 67.3189 83.3333 58.8405 83.3333 49.9999C83.3333 41.1594 79.8214 32.6809 73.5702 26.4297C67.319 20.1785 58.8406 16.6666 50 16.6666C41.1595 16.6666 32.681 20.1785 26.4298 26.4297C20.1786 32.6809 16.6667 41.1594 16.6667 49.9999C16.6667 58.8405 20.1786 67.3189 26.4298 73.5701C32.681 79.8214 41.1595 83.3332 50 83.3332V83.3332ZM35.4167 58.3333H58.3333C58.8859 58.3333 59.4158 58.1138 59.8065 57.7231C60.1972 57.3324 60.4167 56.8025 60.4167 56.2499C60.4167 55.6974 60.1972 55.1675 59.8065 54.7768C59.4158 54.3861 58.8859 54.1666 58.3333 54.1666H41.6667C38.904 54.1666 36.2545 53.0691 34.301 51.1156C32.3475 49.1621 31.25 46.5126 31.25 43.7499C31.25 40.9872 32.3475 38.3377 34.301 36.3842C36.2545 34.4307 38.904 33.3333 41.6667 33.3333H45.8333V24.9999H54.1667V33.3333H64.5833V41.6666H41.6667C41.1141 41.6666 40.5842 41.8861 40.1935 42.2768C39.8028 42.6675 39.5833 43.1974 39.5833 43.7499C39.5833 44.3025 39.8028 44.8324 40.1935 45.2231C40.5842 45.6138 41.1141 45.8333 41.6667 45.8333H58.3333C61.096 45.8333 63.7455 46.9307 65.699 48.8842C67.6525 50.8377 68.75 53.4872 68.75 56.2499C68.75 59.0126 67.6525 61.6621 65.699 63.6156C63.7455 65.5691 61.096 66.6666 58.3333 66.6666H54.1667V74.9999H45.8333V66.6666H35.4167V58.3333Z" fill="#989EA0"/>
</svg>
