<svg width="340" height="304" viewBox="0 0 340 304" fill="none" xmlns="http://www.w3.org/2000/svg">
  <rect width="340" height="304" fill="white"/>
  <path d="M246.993 102H277.79V68.6668H246.993V102ZM246.993 168.667H277.79V135.333H246.993V168.667ZM246.993 235.333H277.79V202H246.993V235.333ZM246.993 302V268.667H308.587V35.3333H170V58.6668L139.203 34.5C139.203 25.6111 142.221 17.9722 148.257 11.5833C154.283 5.19444 161.531 2 170 2H308.587C317.056 2 324.309 5.26112 330.345 11.7833C336.371 18.3167 339.384 26.1667 339.384 35.3333V268.667C339.384 277.833 336.371 285.683 330.345 292.217C324.309 298.739 317.056 302 308.587 302H246.993ZM0.615906 285.333V152.417C0.615906 146.861 1.7708 141.722 4.08059 137C6.39038 132.278 9.59839 128.389 13.7047 125.333L90.6976 65.75C96.087 61.5832 101.99 59.5 108.406 59.5C114.822 59.5 120.725 61.5832 126.114 65.75L203.107 125.333C207.213 128.389 210.421 132.278 212.731 137C215.041 141.722 216.196 146.861 216.196 152.417V285.333C216.196 290.056 214.723 294.011 211.776 297.2C208.82 300.4 205.16 302 200.797 302H123.804V218.667H93.0074V302H16.0144C11.6515 302 7.99695 300.4 5.0507 297.2C2.09417 294.011 0.615906 290.056 0.615906 285.333ZM31.413 268.667H62.21V185.333H154.601V268.667H185.399V152L108.406 92.8332L31.413 152V268.667Z" fill="#0000FF"/>
</svg>
