<svg width="92" height="76" viewBox="0 0 92 76" fill="none" xmlns="http://www.w3.org/2000/svg">
<path d="M66.8333 25.5H75.1667V17.1667H66.8333V25.5ZM66.8333 42.1667H75.1667V33.8333H66.8333V42.1667ZM66.8333 58.8333H75.1667V50.5H66.8333V58.8333ZM66.8333 75.5V67.1667H83.5V8.83333H46V14.6667L37.6667 8.625C37.6667 6.40278 38.4833 4.49306 40.1167 2.89583C41.7472 1.29861 43.7083 0.5 46 0.5H83.5C85.7917 0.5 87.7542 1.31528 89.3875 2.94583C91.018 4.57917 91.8333 6.54167 91.8333 8.83333V67.1667C91.8333 69.4583 91.018 71.4208 89.3875 73.0542C87.7542 74.6847 85.7917 75.5 83.5 75.5H66.8333ZM0.166656 71.3333V38.1042C0.166656 36.7153 0.479157 35.4306 1.10416 34.25C1.72916 33.0694 2.59721 32.0972 3.70832 31.3333L24.5417 16.4375C26 15.3958 27.5972 14.875 29.3333 14.875C31.0694 14.875 32.6667 15.3958 34.125 16.4375L54.9583 31.3333C56.0694 32.0972 56.9375 33.0694 57.5625 34.25C58.1875 35.4306 58.5 36.7153 58.5 38.1042V71.3333C58.5 72.5139 58.1014 73.5028 57.3042 74.3C56.5042 75.1 55.5139 75.5 54.3333 75.5H33.5V54.6667H25.1667V75.5H4.33332C3.15277 75.5 2.16388 75.1 1.36666 74.3C0.566656 73.5028 0.166656 72.5139 0.166656 71.3333ZM8.49999 67.1667H16.8333V46.3333H41.8333V67.1667H50.1667V38L29.3333 23.2083L8.49999 38V67.1667ZM41.8333 67.1667V46.3333H16.8333V67.1667V46.3333H41.8333V67.1667Z" fill="#9333EA"/>
</svg>
