<svg width="375" height="386" viewBox="0 0 375 386" fill="none" xmlns="http://www.w3.org/2000/svg">
  <rect width="375" height="386" fill="white"/>
  <path d="M187.5 195.325C200.138 195.325 210.961 191.527 219.968 183.931C228.96 176.348 233.456 167.228 233.456 156.57C233.456 145.912 228.96 136.785 219.968 129.19C210.961 121.606 200.138 117.815 187.5 117.815C174.862 117.815 164.047 121.606 155.055 129.19C146.048 136.785 141.544 145.912 141.544 156.57C141.544 167.228 146.048 176.348 155.055 183.931C164.047 191.527 174.862 195.325 187.5 195.325ZM187.5 337.75C234.222 301.578 268.88 268.714 291.475 239.157C314.07 209.612 325.368 183.376 325.368 160.445C325.368 125.243 312.056 96.4158 285.432 73.9636C258.823 51.5245 226.18 40.3048 187.5 40.3048C148.82 40.3048 116.169 51.5245 89.545 73.9636C62.9366 96.4158 49.6323 125.243 49.6323 160.445C49.6323 183.376 60.9298 209.612 83.5246 239.157C106.119 268.714 140.778 301.578 187.5 337.75ZM187.5 381.834C184.436 381.834 181.373 381.349 178.309 380.38C175.245 379.411 172.564 378.12 170.267 376.505C114.353 334.843 72.6105 296.172 45.0367 260.491C17.4632 224.798 3.67639 191.449 3.67639 160.445C3.67639 112.002 22.1583 73.4079 59.122 44.6648C96.0706 15.9215 138.863 1.54982 187.5 1.54982C236.136 1.54982 278.929 15.9215 315.878 44.6648C352.841 73.4079 371.323 112.002 371.323 160.445C371.323 191.449 357.537 224.798 329.963 260.491C302.389 296.172 260.646 334.843 204.733 376.505C202.435 378.12 199.755 379.411 196.691 380.38C193.627 381.349 190.563 381.834 187.5 381.834Z" fill="#0000FF"/>
</svg>
