<svg width="68" height="83" viewBox="0 0 68 83" fill="none" xmlns="http://www.w3.org/2000/svg">
<path d="M34 41.9999C36.2917 41.9999 38.2542 41.1832 39.8875 39.5499C41.518 37.9194 42.3333 35.9583 42.3333 33.6666C42.3333 31.3749 41.518 29.4124 39.8875 27.7791C38.2542 26.1485 36.2917 25.3333 34 25.3333C31.7083 25.3333 29.7472 26.1485 28.1167 27.7791C26.4833 29.4124 25.6667 31.3749 25.6667 33.6666C25.6667 35.9583 26.4833 37.9194 28.1167 39.5499C29.7472 41.1832 31.7083 41.9999 34 41.9999ZM34 72.6249C42.4722 64.8471 48.7569 57.7805 52.8542 51.4249C56.9514 45.0721 59 39.4305 59 34.4999C59 26.9305 56.5861 20.7319 51.7583 15.9041C46.9333 11.0791 41.0139 8.66658 34 8.66658C26.9861 8.66658 21.0653 11.0791 16.2375 15.9041C11.4125 20.7319 8.99999 26.9305 8.99999 34.4999C8.99999 39.4305 11.0486 45.0721 15.1458 51.4249C19.243 57.7805 25.5278 64.8471 34 72.6249ZM34 82.1041C33.4444 82.1041 32.8889 81.9999 32.3333 81.7916C31.7778 81.5832 31.2917 81.3055 30.875 80.9583C20.7361 71.9999 13.1667 63.6846 8.16666 56.0124C3.16666 48.3374 0.666656 41.1666 0.666656 34.4999C0.666656 24.0833 4.01805 15.7846 10.7208 9.60408C17.4208 3.42353 25.1805 0.333252 34 0.333252C42.8194 0.333252 50.5792 3.42353 57.2792 9.60408C63.9819 15.7846 67.3333 24.0833 67.3333 34.4999C67.3333 41.1666 64.8333 48.3374 59.8333 56.0124C54.8333 63.6846 47.2639 71.9999 37.125 80.9583C36.7083 81.3055 36.2222 81.5832 35.6667 81.7916C35.1111 81.9999 34.5555 82.1041 34 82.1041Z" fill="#9333EA"/>
</svg>
