<svg width="3527" height="1876" viewBox="0 0 3527 1876" fill="none" xmlns="http://www.w3.org/2000/svg">
<path d="M407.678 1870.72C407.678 1870.72 -74.3256 1358.48 263.658 880.653C389.776 702.346 711.749 602.226 1007.72 683.453C1182.55 731.426 1447.68 724.346 1706.75 301.44C2060.03 -275.281 3526.61 -13.0404 3240.35 997.413C3119.76 1423.04 3569.2 1442.41 3346.57 1871.64L407.678 1870.72Z" fill="#DABCF5"/>
<path d="M3017.15 844.56L1967.25 1722.89L1414.87 1252.32C1311.47 1343.36 1151.8 1483.89 991.162 1624.91C881.386 1721.28 792.511 1799.15 720.472 1862.17L218.747 1861.59C357.88 1743.13 918.085 1250.85 1295.49 918.16L1410.89 816.44L1969.29 1292.15L2788.91 606.453L3017.15 844.56" fill="#8312EA"/>
<path d="M2656 498.427L3156.03 999.987L3297.28 427.027L2656 498.427Z" fill="#8312EA"/>
<path d="M1016.81 1555.24C1014.95 1509.32 1010.92 1469.36 1006.1 1441.51C998.423 1397.09 991.509 1371.55 991.429 1371.28C990.417 1367.37 975.803 1351.56 943.307 1352.05C910.812 1352.53 913.893 1373.27 913.893 1373.27C913.891 1373.96 913.983 1374.61 914.127 1375.11C914.44 1376.17 944.268 1484.33 942.976 1623.97C942.959 1625.93 942.739 1629.32 942.877 1631.57C942.879 1631.59 1018.18 1633.52 1018.2 1631.57C1020.83 1619.37 1019.54 1585.56 1016.81 1555.24" fill="#B7D3F3"/>
<path d="M1026.28 1623.28C1026.26 1625.23 1025.23 1626.79 1023.98 1626.79H1023.95C1022.7 1626.76 1021.7 1625.2 1021.69 1623.28H957.152C957.129 1625.23 956.101 1626.79 954.849 1626.79H954.819C953.544 1626.76 952.532 1625.15 952.547 1623.19C952.921 1583.21 950.643 1545.88 947.193 1512.93C938.613 1430.77 922.755 1375.87 922.529 1375.11C922.387 1374.61 922.297 1373.96 922.297 1373.27C922.297 1373.27 919.215 1352.55 951.707 1352.05C984.207 1351.56 998.823 1367.37 999.835 1371.28C999.895 1371.48 1003.81 1385.95 1009.01 1411.96C1010.74 1420.57 1012.6 1430.45 1014.51 1441.51C1019.32 1469.36 1023.35 1509.32 1025.22 1555.24C1027.95 1585.56 1028.91 1611.08 1026.28 1623.28" fill="#D2E3FC"/>
<path d="M947.777 1626.79H1200.79C1200.79 1626.79 1194.89 1602.95 1048.37 1606.49C944.675 1609.01 947.777 1626.79 947.777 1626.79Z" fill="#C5DCF8"/>
<path d="M927.184 1875.84C956.52 1727.33 948.976 1636.2 948.94 1635.05C948.865 1632.76 953.08 1630.69 955.347 1630.61C957.641 1630.57 967.767 1629.93 968.939 1631.89C970.473 1634.45 976.381 1746.73 932.66 1875.84H927.184" fill="#B7D3F3"/>
<path d="M1163.41 1875.84C1134.08 1727.33 1141.63 1636.2 1141.67 1635.05C1141.73 1632.76 1137.52 1630.69 1135.25 1630.61C1132.96 1630.57 1122.84 1629.93 1121.67 1631.89C1120.13 1634.45 1114.21 1746.73 1157.95 1875.84H1163.41" fill="#B7D3F3"/>
<path d="M1210.23 1875.84C1180.89 1727.33 1188.44 1636.2 1188.48 1635.05C1188.55 1632.76 1184.33 1630.69 1182.07 1630.61C1179.77 1630.57 1169.65 1629.93 1168.48 1631.89C1166.95 1634.45 1161.04 1746.73 1204.76 1875.84H1210.23" fill="#B7D3F3"/>
<path d="M974.315 1875.84C1003.65 1727.33 996.108 1636.2 996.071 1635.05C995.997 1632.76 1000.21 1630.69 1002.48 1630.61C1004.77 1630.57 1014.9 1629.93 1016.07 1631.89C1017.61 1634.45 1023.51 1746.73 979.791 1875.84H974.315" fill="#B7D3F3"/>
<path d="M1200.93 1634.4H947.928C945.077 1634.4 942.745 1632.07 942.745 1629.21V1625.81C942.745 1622.96 945.077 1620.63 947.928 1620.63H1200.93C1203.79 1620.63 1206.12 1622.96 1206.12 1625.81V1629.21C1206.12 1632.07 1203.79 1634.4 1200.93 1634.4Z" fill="#B7D3F3"/>
<path d="M1192.05 1405.91L1276.15 1387.69L1281.11 1399.76C1281.11 1399.76 1188.31 1454.99 1179.61 1452.28C1170.92 1449.57 1192.05 1405.91 1192.05 1405.91" fill="#FFB27D"/>
<path d="M1115.59 1786.28C1113.48 1788.69 1113.21 1791.39 1114.25 1794.27C1114.25 1794.28 1114.27 1794.29 1114.28 1794.31C1116.2 1799.63 1122.57 1805.59 1129.97 1811.52C1130.92 1812.28 1131.76 1812.99 1132.49 1813.63C1132.68 1813.79 1132.88 1813.96 1133.05 1814.13C1133.2 1814.27 1133.35 1814.4 1133.49 1814.52C1140.39 1820.88 1137.8 1822.33 1150.19 1835.24C1164.32 1849.95 1174.05 1850.21 1176.81 1848.88C1179.16 1847.73 1174.4 1839.93 1169.13 1831.17C1168.88 1830.75 1168.63 1830.32 1168.36 1829.89C1167.67 1828.72 1166.96 1827.55 1166.27 1826.37C1160.09 1815.83 1161.68 1810.87 1163.13 1795.17C1164.33 1782.41 1182.99 1723.89 1182.99 1723.89L1155.91 1719.23C1155.91 1719.23 1147.75 1765.83 1138.76 1773C1133.96 1776.83 1128.57 1776.88 1123.96 1779.71C1123.63 1779.91 1123.31 1780.11 1123 1780.32C1120.37 1782.05 1117.71 1783.85 1115.59 1786.28" fill="#FFB27D"/>
<path d="M1115.59 1786.28C1113.48 1788.69 1113.21 1791.39 1114.25 1794.27C1114.25 1794.28 1114.27 1794.29 1114.28 1794.31C1116.64 1799.63 1122.84 1805.55 1130 1811.47C1130.93 1812.24 1131.76 1812.96 1132.49 1813.63C1132.68 1813.79 1132.88 1813.96 1133.05 1814.13C1133.2 1814.27 1133.35 1814.4 1133.49 1814.52C1140.39 1820.88 1137.8 1822.33 1150.19 1835.24C1164.32 1849.95 1174.05 1850.21 1176.81 1848.88C1179.16 1847.73 1174.4 1839.93 1169.13 1831.17C1166.39 1830.16 1153.6 1824.97 1143.93 1812.6C1135.43 1801.75 1129.76 1787.79 1123.96 1779.71C1123.63 1779.91 1123.31 1780.11 1123 1780.32C1120.37 1782.05 1117.71 1783.85 1115.59 1786.28" fill="#1C468A"/>
<path d="M1333.97 1769.36C1335.64 1777.72 1347.56 1776.32 1360.88 1773.07C1374.19 1769.81 1371.03 1773.68 1389.97 1771.59C1408.92 1769.49 1414.67 1762.43 1415.24 1759.61C1415.76 1757.11 1406.4 1756.23 1396.35 1755.07C1395.09 1754.93 1393.81 1754.77 1392.55 1754.61C1381.21 1753.19 1372.91 1745.88 1362.61 1739.87C1352.85 1734.17 1338.29 1710.99 1338.29 1710.99L1312.31 1713.04C1312.31 1713.04 1325.95 1733.76 1331.23 1742.76C1334.32 1748.05 1334.16 1755.07 1333.77 1760.47C1333.57 1763.41 1333.39 1766.41 1333.97 1769.36" fill="#FFB27D"/>
<path d="M1360.88 1773.07C1374.19 1769.81 1371.03 1773.68 1389.97 1771.59C1408.92 1769.49 1414.67 1762.43 1415.24 1759.61C1415.76 1757.11 1406.4 1756.23 1396.35 1755.07L1396.25 1755.27C1396.25 1755.27 1384.89 1763.32 1369.12 1763.69C1356.27 1764.01 1342.65 1760.32 1333.77 1760.47C1333.57 1763.41 1333.39 1766.41 1333.97 1769.36C1335.64 1777.72 1347.56 1776.32 1360.88 1773.07" fill="#1C468A"/>
<path d="M1276.15 1387.69C1276.15 1387.69 1282.35 1372.52 1289.16 1371.91C1295.96 1371.28 1317.64 1367.88 1319.19 1370.97C1320.73 1374.07 1319.19 1385.21 1314.53 1389.24C1309.89 1393.27 1281.11 1399.76 1281.11 1399.76L1276.15 1387.69Z" fill="#FFB27D"/>
<path d="M1234.39 1603.2L1178.39 1753.92C1178.39 1753.92 1169.79 1754.75 1161.53 1752.37C1153.95 1750.19 1145.24 1744.44 1145.24 1744.44C1145.24 1744.44 1159.13 1599.72 1184.61 1569.63C1210.08 1539.52 1234.39 1603.2 1234.39 1603.2" fill="#163560"/>
<path d="M1012.88 1542.23C1012.88 1542.23 1173.8 1487.81 1209.69 1499.39C1245.59 1510.97 1353.33 1725.36 1353.33 1725.36C1353.33 1725.36 1350.91 1728.59 1344.27 1731.08C1338.09 1733.4 1323.15 1733.25 1323.15 1733.25C1323.15 1733.25 1225.89 1649.89 1214.32 1625.59C1202.75 1601.27 1198.12 1578.12 1186.53 1580.43C1174.96 1582.75 1037.19 1637.16 1005.93 1604.75C974.673 1572.33 982.848 1530.21 982.848 1530.21L1012.88 1542.23Z" fill="#1C468A"/>
<path d="M1104.62 1158.53C1097.67 1154.59 1089.33 1154.15 1083.5 1154.49C1085 1152.95 1087.95 1152.37 1087.95 1152.37C1084.34 1151.84 1076.27 1155.43 1076.27 1155.43C1025.98 1136.05 1018.07 1210.11 1019.13 1227.31C1020.18 1244.51 1020.3 1264.31 995.197 1279.75C945.799 1310.11 987.479 1363.11 987.479 1363.11C987.868 1363.33 1010.46 1401.65 1010.46 1401.65C1009.19 1387.75 1073.34 1314.39 1106.81 1292.41C1114.96 1280.41 1117.85 1259.23 1118.07 1257.56C1116.67 1274.36 1113.79 1283.79 1111.22 1289.09C1139.56 1263.01 1123.05 1169.01 1104.62 1158.53" fill="#B5453C"/>
<path d="M1104.83 1293.51C1104.99 1293.57 1088.67 1302.05 1076.39 1298.69C1064.84 1295.55 1057.29 1280.57 1057.45 1280.53C1062.34 1279.56 1063.75 1272.84 1063.65 1243.96L1065.86 1244.39L1103.04 1251.75C1103.04 1251.75 1102.2 1263.45 1102.17 1274.48C1102.15 1283.73 1102.71 1292.52 1104.83 1293.51" fill="#FFB27D"/>
<path d="M1103.04 1251.75C1103.04 1251.75 1102.2 1263.45 1102.17 1274.48C1081.36 1273.89 1070.37 1254.91 1065.86 1244.39L1103.04 1251.75" fill="#ED975D"/>
<path d="M1062.02 1240.35C1062.02 1240.35 1051.11 1223.11 1048.5 1208.37C1046.63 1197.87 1051.98 1158.87 1091.16 1164.49C1091.16 1164.49 1102.54 1165.61 1113.24 1172.84C1121.75 1178.57 1134.03 1190.99 1120.29 1225L1116.73 1236.49L1062.02 1240.35" fill="#B5453C"/>
<path d="M1109.99 1262.19C1109.99 1262.19 1060.76 1263 1060.73 1232.33C1060.69 1201.67 1054.31 1181.12 1085.75 1179.31C1117.17 1177.49 1123.29 1189.19 1125.8 1199.41C1128.31 1209.65 1122.8 1261.19 1109.99 1262.19" fill="#FFB27D"/>
<path d="M1108.17 1178.56C1108.17 1178.56 1094.69 1214.53 1074 1219.85C1053.32 1225.17 1044.34 1219.63 1044.34 1219.63C1044.34 1219.63 1060.21 1207.03 1063.5 1185.03C1063.5 1185.03 1098 1161.43 1108.17 1178.56" fill="#B5453C"/>
<path d="M1104.83 1181.48C1104.83 1181.48 1114.89 1189.51 1117.35 1197.32C1119.8 1205.13 1120.91 1221.2 1125.6 1220.65C1125.6 1220.65 1135.75 1196.2 1124.33 1182.37C1112.23 1167.69 1104.83 1181.48 1104.83 1181.48" fill="#B5453C"/>
<path d="M995.197 1425.95C990.343 1405.59 1006.86 1366.08 1024.1 1333.37C1039.75 1303.72 1055.99 1279.67 1057.45 1280.53C1098.71 1305.03 1102.44 1284.67 1102.44 1284.67H1102.44C1102.46 1284.67 1139.92 1289.64 1150.53 1307.91C1163.69 1330.57 1177.92 1393.92 1192.05 1405.91C1189.88 1412.55 1190.81 1416.08 1193.11 1424.31C1193.6 1426.07 1194.15 1427.75 1194.75 1429.33C1196.88 1435.12 1199.53 1439.83 1201.84 1443.89C1194.65 1448.27 1180.79 1456.56 1170.57 1450.6C1155 1441.48 1142.84 1413.73 1136 1402.68C1135.97 1402.64 1135.96 1402.6 1135.93 1402.56C1121.07 1486.71 1141.28 1505.87 1131.04 1514.73C1120.24 1524.11 1104.8 1510.28 1070.84 1525C1048.56 1534.67 1017.65 1548.63 996.841 1551.07C985.928 1552.35 977.784 1550.44 975.129 1543.08C967.411 1521.65 1004.46 1464.77 995.197 1425.95" fill="#1C468A"/>
<path d="M1099.05 1243.6C1099.05 1243.6 1099.97 1247.49 1109.66 1246.89C1109.66 1246.89 1117.8 1246.4 1117.55 1242.11C1117.55 1242.11 1109.65 1239.07 1099.05 1243.6Z" fill="white"/>
<path d="M975.129 1543.08C977.784 1550.44 985.928 1552.35 996.841 1551.07C1011.25 1544.79 1073.46 1520.68 1072.77 1504.35C1071.73 1480.17 1060.81 1479.4 1068.52 1449.55C1074.72 1425.59 1017.23 1381.03 1008.06 1371.33C990.819 1404.04 990.343 1405.59 995.197 1425.95C1004.46 1464.77 967.411 1521.65 975.129 1543.08" fill="#163560"/>
<path d="M968.096 1455.85C979.131 1440.36 990.625 1432.17 998.187 1428.05C996.447 1423.56 1044.6 1364.53 1044.6 1355.39C1044.6 1346.12 1057.45 1280.53 1057.45 1280.53C1057.45 1280.53 1017.33 1283.01 1003.43 1302.39C986.06 1326.61 949.979 1419.85 968.096 1455.85Z" fill="#1C468A"/>
<path d="M998.187 1428.05L1078.37 1448.97L1070.84 1462.48C1070.84 1462.48 973.267 1461.8 968.096 1455.85C962.925 1449.92 998.187 1428.05 998.187 1428.05Z" fill="#FFB27D"/>
<path d="M1136 1402.68C1142.84 1413.73 1155 1441.48 1170.57 1450.6C1180.79 1456.56 1194.65 1448.27 1201.84 1443.89C1199.53 1439.83 1196.88 1435.12 1194.75 1429.33C1189.01 1430.65 1182.03 1432.32 1177.51 1433.68C1168.73 1436.33 1136 1402.68 1136 1402.68Z" fill="#163560"/>
<path d="M1078.37 1448.97C1078.37 1448.97 1103.54 1441.84 1109.54 1443.51C1115.53 1445.17 1136.08 1458.79 1133.2 1462.48C1130.31 1466.17 1112.21 1460.27 1103.88 1461.39C1095.55 1462.51 1089.11 1466.61 1083.11 1465.72C1077.11 1464.84 1070.84 1462.48 1070.84 1462.48L1078.37 1448.97Z" fill="#FFB27D"/>
<path d="M1078.37 1448.97C1078.37 1448.97 1090.68 1442.64 1094.19 1439.04C1094.63 1438.59 1095.38 1438.68 1095.72 1439.21C1096.66 1440.69 1097.53 1443.56 1093.21 1446.4C1086.99 1450.49 1078.37 1448.97 1078.37 1448.97" fill="#FFB27D"/>
<path d="M1194.72 1484.4H1077.25C1077.25 1479.23 1081.45 1475.03 1086.62 1475.03H1194.72V1484.4Z" fill="#ED7D2B"/>
<path d="M1194.39 1356.45H1376L1332.44 1484.4H1149.64L1194.39 1356.45Z" fill="#ED7D2B"/>
<path d="M1378.68 1356.47L1335.11 1484.39H1152.32L1197.05 1356.47H1378.68" fill="#F99746"/>
<path d="M1280.76 1419.24C1279.63 1424.13 1274.75 1428.09 1269.87 1428.09C1264.97 1428.09 1261.93 1424.13 1263.05 1419.24C1264.19 1414.36 1269.07 1410.39 1273.95 1410.39C1278.84 1410.39 1281.89 1414.36 1280.76 1419.24Z" fill="#F9DDBF"/>
<path d="M1378.68 1356.47L1335.11 1484.39H1214.05C1294.24 1457.03 1315.59 1373.57 1319.17 1356.47H1378.68Z" fill="#ED893E"/>
<path d="M851.424 1875.84C853.721 1875.84 855.685 1874.23 856.077 1872.01L878.888 1742.73L911.697 1556.77L920.872 1504.79L897.502 1504.12L893.448 1534.31L864.98 1746.43L848.101 1872.16C847.841 1874.11 849.4 1875.84 851.424 1875.84" fill="#95C0F4"/>
<path d="M893.448 1534.31C908.589 1540.99 911.697 1556.77 911.697 1556.77L920.872 1504.79L897.503 1504.12L893.448 1534.31Z" fill="#78ACEA"/>
<path d="M1432.68 1875.84C1430.39 1875.84 1428.43 1874.23 1428.03 1872.01L1405.23 1742.73L1372.41 1556.77L1363.24 1504.79L1386.6 1504.12L1390.65 1534.31L1419.13 1746.43L1436 1872.16C1436.27 1874.11 1434.71 1875.84 1432.68 1875.84" fill="#95C0F4"/>
<path d="M1390.65 1534.31C1375.52 1540.99 1372.41 1556.77 1372.41 1556.77L1363.24 1504.79L1386.6 1504.12L1390.65 1534.31" fill="#78ACEA"/>
<path d="M835.832 1525.2H1434.28C1442.12 1525.2 1448.53 1518.79 1448.53 1510.95V1498.63C1448.53 1490.79 1442.12 1484.37 1434.28 1484.37H835.832C827.992 1484.37 821.579 1490.79 821.579 1498.63V1510.95C821.579 1518.79 827.992 1525.2 835.832 1525.2Z" fill="#78ACEA"/>
<path d="M3522.61 1874.6H4.14408C1.94674 1874.6 0.149414 1872.81 0.149414 1870.61V1869.24C0.149414 1867.05 1.94674 1865.25 4.14408 1865.25H3522.61C3524.81 1865.25 3526.61 1867.05 3526.61 1869.24V1870.61C3526.61 1872.81 3524.81 1874.6 3522.61 1874.6Z" fill="#2E3552"/>
<path d="M2322.29 1462.61C2322.29 1462.61 2306.76 1481.87 2311.63 1484.49C2316.47 1487.12 2329.29 1492.03 2332.32 1488.93C2335.35 1485.84 2336.29 1463.15 2336.29 1463.15L2322.29 1462.61" fill="#FFB27D"/>
<path d="M2322.92 1462.93C2322.92 1462.93 2316.57 1465.13 2314.08 1468.44C2311.59 1471.73 2306.07 1476.77 2307.41 1478.16C2308.77 1479.56 2316.69 1473.4 2316.69 1473.4L2322.92 1462.93Z" fill="#FFB27D"/>
<path d="M2380.97 1205.51C2380.97 1205.51 2363.48 1368.4 2361.92 1373.04C2361.59 1374.04 2360.21 1379.2 2358.28 1386.61C2355.52 1397.21 2351.63 1412.44 2347.93 1426.92C2342.37 1448.79 2337.27 1468.97 2337.27 1468.97L2322.07 1463.96C2322.07 1463.96 2321.28 1384.8 2325.19 1366.57C2329.11 1348.35 2341.6 1236.35 2347.92 1221.28C2354.21 1206.21 2380.97 1205.51 2380.97 1205.51" fill="#AEC3FF"/>
<path d="M2344.59 1596.12L2249.16 1571.09C2236.75 1567.83 2229.24 1555 2232.49 1542.59L2243.35 1501.23C2246.6 1488.81 2259.43 1481.31 2271.85 1484.57L2367.28 1509.6C2379.71 1512.85 2387.2 1525.68 2383.95 1538.11L2373.09 1579.45C2369.84 1591.88 2357.01 1599.37 2344.59 1596.12" fill="#A02E2E"/>
<path d="M2342.32 1502.93L2308.23 1493.99L2310.57 1485.07C2310.97 1483.53 2312.56 1482.61 2314.09 1483.01L2322.65 1485.25L2338.36 1489.37L2342.6 1490.48C2342.89 1490.56 2343.15 1490.68 2343.4 1490.83C2344.44 1491.48 2344.99 1492.76 2344.67 1494.01L2342.32 1502.93ZM2255.93 1504.51L2244.96 1546.33C2242.84 1554.44 2245.27 1562.71 2250.65 1568.4C2252.43 1570.29 2254.53 1571.91 2256.92 1573.12C2256.92 1573.12 2256.92 1573.12 2256.93 1573.12V1573.13C2258.41 1573.89 2260 1574.51 2261.69 1574.95L2356.95 1599.93C2369.41 1603.2 2382.29 1595.68 2385.56 1583.21L2396.53 1541.37C2399.8 1528.91 2392.28 1516.03 2379.81 1512.76L2347.01 1504.16L2349.35 1495.24C2350.44 1491.11 2347.95 1486.88 2343.83 1485.8L2340.24 1484.85L2320.28 1479.63L2315.32 1478.32C2313.33 1477.8 2311.25 1478.09 2309.47 1479.13C2307.68 1480.17 2306.4 1481.85 2305.88 1483.84L2303.55 1492.76L2284.55 1487.77C2283.79 1487.57 2283.04 1487.43 2282.29 1487.31H2282.28H2282.27C2274.64 1486.08 2267.07 1488.79 2261.88 1494.05V1494.07C2259.09 1496.88 2257 1500.43 2255.93 1504.51" fill="#BC3F3F"/>
<path d="M2331.36 1489.36C2331.36 1489.36 2335.6 1482.23 2334.01 1479.73C2332.43 1477.24 2326.71 1487.13 2326.71 1487.13C2326.71 1487.13 2330.61 1478.64 2329.16 1477.24C2327.69 1475.84 2321.71 1485.6 2321.71 1485.6C2321.71 1485.6 2325.44 1477.35 2324.13 1477.07C2322.83 1476.79 2318.39 1484.01 2318.39 1484.01C2318.39 1484.01 2320.69 1477.83 2318.59 1478.13C2316.48 1478.43 2311.92 1484.05 2311.92 1484.05L2331.36 1489.36" fill="#FFB27D"/>
<path d="M2358.28 1386.61C2355.52 1397.21 2351.63 1412.44 2347.93 1426.92C2345.56 1420.23 2342.53 1409.57 2340.63 1394.96C2337.11 1368.01 2347.92 1310.57 2347.92 1310.57L2358.28 1386.61" fill="#9DB0F4"/>
<path d="M2558.45 1455.91C2558.45 1455.91 2575.37 1469.65 2577.47 1473.95C2579.55 1478.24 2584.81 1494.13 2584.53 1499.25C2584.25 1504.39 2571.57 1487.53 2567.84 1486.17C2564.12 1484.81 2571.73 1493.09 2570.88 1494.87C2570.03 1496.64 2562.08 1490.84 2559.05 1488.95C2556.03 1487.05 2553.91 1474.2 2549.39 1467.2C2544.88 1460.21 2558.45 1455.91 2558.45 1455.91" fill="#FFB27D"/>
<path d="M2336.45 1867.43H2420.8C2426.84 1863.33 2419.17 1823.27 2419.17 1823.27C2419.17 1823.27 2396.15 1814.52 2392.17 1832.29C2388.19 1850.04 2362.85 1855.68 2349.44 1857.85C2340.27 1859.35 2337.36 1864.39 2336.45 1867.43" fill="#9333EA"/>
<path d="M2461.55 1867.43H2545.91C2551.95 1863.33 2544.27 1823.27 2544.27 1823.27C2544.27 1823.27 2521.25 1814.52 2517.27 1832.29C2513.28 1850.04 2487.95 1855.68 2474.55 1857.85C2465.36 1859.35 2462.47 1864.39 2461.55 1867.43Z" fill="#9333EA"/>
<path d="M2359.15 1458.64C2359.15 1458.64 2362.93 1505.95 2367.39 1562.81C2373.44 1640.05 2389.79 1831.56 2389.79 1831.56C2389.79 1831.56 2400.49 1840.69 2424.21 1835.69C2424.21 1835.69 2444.4 1769.63 2450.44 1694.23C2450.53 1692.99 2450.63 1691.75 2450.72 1690.49C2456.35 1613.73 2465.08 1452.09 2465.08 1452.09L2359.15 1458.64" fill="#2B478B"/>
<path d="M2357.85 1442.29C2357.85 1442.29 2362.93 1505.95 2367.39 1562.81L2450.44 1694.23C2450.53 1692.99 2450.63 1691.75 2450.72 1690.49C2456.35 1613.73 2465.08 1452.09 2465.08 1452.09L2357.85 1442.29Z" fill="#9333EA"/>
<path d="M2382.05 1442.29C2382.05 1442.29 2442.29 1592.24 2461.55 1649.08C2475.27 1689.56 2513.95 1831.59 2513.95 1831.59C2513.95 1831.59 2530.77 1836.71 2544.91 1826.81C2544.91 1826.81 2559.31 1681.71 2530.23 1640.79C2514.8 1619.08 2526.4 1415.15 2463.87 1413.4C2401.32 1411.65 2382.05 1442.29 2382.05 1442.29" fill="#2B478B"/>
<path d="M2496.84 1455.91C2471.73 1470.08 2364.12 1469.76 2359.15 1458.64C2348.01 1433.8 2345.21 1307.6 2350.47 1268.89C2350.47 1268.89 2353.19 1209.4 2359.15 1212.03C2398.88 1193.76 2463.21 1210.35 2463.21 1210.35C2480.56 1215.45 2479.08 1255.09 2483.92 1310.76C2484.53 1317.93 2485.23 1325.4 2486 1333.13C2489.43 1367.51 2494.41 1406.99 2501.97 1448.64C2502.48 1451.39 2500.57 1453.81 2496.84 1455.91" fill="#AEC3FF"/>
<path d="M2433.49 1203.65C2432.83 1214.29 2418.95 1213.09 2402.27 1209.28C2385.59 1205.48 2391.63 1195.64 2391.63 1195.64C2391.63 1195.64 2391.87 1188.08 2392.92 1179.01C2393.31 1175.72 2393.79 1172.21 2394.43 1168.81C2394.72 1167.16 2395.04 1165.51 2395.41 1163.93C2397.6 1154.56 2428.75 1163.6 2428.53 1166.12C2427.92 1172.92 2432.84 1195.29 2433.49 1203.65" fill="#FFB27D"/>
<path d="M2397.73 1222.23L2396.41 1207.52L2414.88 1211.01L2407.77 1224.13L2397.73 1222.23" fill="#9333EA"/>
<path d="M2392.01 1188.72L2380.97 1205.51C2380.97 1205.51 2380.97 1215.83 2390.56 1223.32L2405.65 1209.27C2405.65 1209.27 2395.89 1205.55 2392.01 1188.72" fill="#9DB0F4"/>
<path d="M2405.65 1209.27C2405.65 1209.27 2408.77 1220.49 2414.81 1225.64C2414.81 1225.64 2438.39 1219.31 2444 1207.23L2431.73 1191.39C2431.73 1191.39 2431.13 1203.37 2405.65 1209.27" fill="#9DB0F4"/>
<path d="M2428.71 1171.41C2428.71 1171.41 2413.71 1181.39 2392.92 1179.01C2393.31 1175.72 2393.79 1172.21 2394.43 1168.81C2398.52 1167.83 2401.96 1167.2 2401.96 1167.2L2428.71 1171.41" fill="#E2915A"/>
<path d="M2438.23 1160.08C2430.89 1180.25 2404.13 1175.11 2392.75 1171.87C2389.53 1170.96 2387.55 1170.2 2387.55 1170.2C2384.03 1168.6 2382.93 1162.45 2383.25 1154.69C2383.85 1139.33 2389.92 1117.65 2393.4 1112.43C2398.64 1104.56 2407.37 1096.57 2433.33 1107.71C2459.29 1118.84 2447.63 1134.23 2438.23 1160.08" fill="#FFB27D"/>
<path d="M2458.27 1149.72C2450.08 1156.4 2432.48 1168.76 2432.48 1168.76C2432.48 1168.76 2434.44 1166.44 2436.83 1159.77C2437.11 1159.01 2437.19 1157.91 2437.15 1156.73C2437.05 1153.47 2437.84 1150.2 2439.56 1147.41C2440.63 1145.67 2441.01 1143.87 2439.67 1142.59C2437.44 1140.48 2433.64 1142.41 2431.15 1144.12C2429.51 1145.24 2427.36 1145.31 2425.67 1144.27C2425.65 1144.25 2425.64 1144.25 2425.63 1144.24C2418.64 1139.85 2426.36 1132.13 2420.68 1125.72C2414.97 1119.31 2390.36 1118.43 2391.35 1114.41C2382.95 1109.67 2388.24 1092.15 2388.4 1091.21C2388.4 1091.21 2400.45 1092.28 2415.52 1088.52C2427.75 1085.45 2441.23 1093.31 2445.48 1096.53C2445.48 1095.76 2445.36 1094.69 2444.8 1093.55C2444.8 1093.55 2446.65 1095.37 2446.63 1097.51C2446.81 1097.69 2446.89 1097.83 2446.84 1097.87C2446.84 1097.87 2449.27 1097.81 2450.69 1098.76C2450.69 1098.76 2449.65 1098.43 2449.16 1099.05C2449.09 1099.12 2449.03 1099.16 2448.95 1099.21C2465.31 1110.77 2465.07 1144.16 2458.27 1149.72" fill="#9333EA"/>
<path d="M2399.53 1157.16C2399.53 1157.16 2398.21 1159.71 2391.6 1157.6C2391.6 1157.6 2386.04 1155.83 2386.96 1152.89C2386.96 1152.89 2392.96 1152.16 2399.53 1157.16" fill="white"/>
<path d="M2397.73 1222.23C2397.73 1222.23 2382.99 1408.47 2383.2 1423.99C2383.4 1439.51 2399.53 1455.91 2399.53 1455.91C2399.53 1455.91 2412.37 1441.84 2414.88 1427C2417.39 1412.16 2407.77 1224.13 2407.77 1224.13L2397.73 1222.23" fill="#663295"/>
<path d="M2463.23 1210.35C2463.23 1210.35 2487.01 1216.04 2505.83 1252.17C2524.64 1288.31 2539.49 1361.19 2548.47 1380.41C2557.45 1399.65 2563.61 1460.23 2563.61 1460.23L2549.39 1467.2C2549.39 1467.2 2515.07 1405.12 2509.99 1384.76C2507.24 1373.75 2465.27 1285.57 2465.27 1285.57L2463.23 1210.35" fill="#AEC3FF"/>
<path d="M2496.84 1455.91C2496.84 1455.91 2496.84 1455.91 2496.83 1455.91C2452.03 1449.47 2464.87 1301.2 2468.37 1300.61C2471.89 1300.03 2484.77 1327.12 2484.77 1327.12L2486 1333.13C2489.43 1367.51 2494.41 1406.99 2501.97 1448.64C2502.48 1451.39 2500.57 1453.81 2496.84 1455.91" fill="#9DB0F4"/>
<path d="M3055.77 1779.79C3055.77 1779.79 3074.43 1796.81 3070.79 1808.91C3067.15 1821 3050.31 1829.07 3048.04 1843.85C3045.76 1858.63 3036.67 1866.69 3028.48 1866.69C3020.29 1866.69 2989.44 1866.69 2989.44 1866.69C2989.44 1866.69 2983.41 1856.29 2997.96 1853.16C3012.52 1850.03 3018.01 1832.65 3017.11 1816.52C3016.2 1800.4 3018.47 1778.89 3018.47 1778.89L3049.4 1771.73L3055.77 1779.79" fill="#9333EA"/>
<path d="M2826.95 1823.81C2826.95 1823.81 2830.29 1862.56 2822.09 1866.59L2717.31 1866.37C2717.31 1866.37 2717.31 1854.28 2734.13 1851.59C2750.97 1848.91 2780.53 1839.05 2785.55 1817.09C2790.55 1795.15 2826.95 1823.81 2826.95 1823.81" fill="#9333EA"/>
<path d="M2738.47 1276.6C2738.47 1276.6 2743.99 1344.51 2750.49 1426.13C2759.32 1537.01 2769.93 1673.21 2770.99 1699.01C2772.8 1743.81 2780.09 1815.48 2780.09 1815.48C2780.09 1815.48 2797.37 1832.51 2831.95 1825.33C2831.95 1825.33 2862.77 1723.03 2871.57 1614.77C2871.71 1613 2871.84 1611.21 2871.99 1609.43C2880.17 1499.23 2892.91 1267.19 2892.91 1267.19L2738.47 1276.6Z" fill="#663295"/>
<path d="M2738.47 1276.6C2738.47 1276.6 2743.99 1344.51 2750.49 1426.13L2871.57 1614.77C2871.71 1613 2871.84 1611.21 2871.99 1609.43C2880.17 1499.23 2892.91 1267.19 2892.91 1267.19L2738.47 1276.6Z" fill="#9333EA"/>
<path d="M2763.71 1284.67C2763.71 1284.67 2863.33 1530.59 2928.84 1646.16C2994.36 1761.73 3014.83 1793.99 3014.83 1793.99C3014.83 1793.99 3052.36 1779.2 3055.77 1769.12C3055.77 1769.12 3030.72 1546 2986.85 1491.61C2962.07 1460.88 2940.68 1392.69 2941.75 1360.43C2943.6 1304.79 2922.71 1240.31 2922.71 1240.31L2763.71 1284.67Z" fill="#663295"/>
<path d="M2684.15 1288.28C2684.15 1288.28 2665.55 1313.47 2664.17 1320.19C2662.8 1326.91 2661.2 1350.91 2663.43 1357.93C2665.65 1364.96 2677.25 1336.97 2681.95 1333.75C2686.64 1330.52 2679.01 1344.76 2680.84 1346.92C2682.67 1349.09 2691.63 1338.17 2695.16 1334.45C2698.69 1330.72 2697.03 1312.08 2700.8 1300.73C2704.56 1289.39 2684.15 1288.28 2684.15 1288.28" fill="#FFB27D"/>
<path d="M2766.19 922.226C2766.19 922.226 2741.05 1156.24 2738.81 1162.91C2738.32 1164.36 2736.35 1171.77 2733.57 1182.43C2729.61 1197.64 2724.03 1219.52 2718.72 1240.31C2710.72 1271.73 2702.08 1298.91 2702.08 1298.91C2702.08 1298.91 2698.28 1301.36 2689.13 1300.57C2682.88 1300.04 2679.51 1294.71 2679.51 1294.71C2679.51 1294.71 2680.43 1179.81 2686.04 1153.63C2691.67 1127.43 2709.61 966.546 2718.69 944.893C2727.75 923.24 2766.19 922.226 2766.19 922.226" fill="white"/>
<path d="M2733.57 1182.43C2729.61 1197.64 2724.03 1219.52 2718.72 1240.31C2715.31 1230.69 2710.96 1215.39 2708.21 1194.41C2703.16 1155.68 2718.69 1073.19 2718.69 1073.19L2733.57 1182.43" fill="#DCEAFF"/>
<path d="M2932.64 1281.97C2896.56 1302.32 2741.97 1301.87 2734.81 1285.89C2718.83 1250.21 2714.81 1068.91 2722.36 1013.29C2722.36 1013.29 2726.27 927.827 2734.81 931.587C2791.92 905.36 2884.33 929.187 2884.33 929.187C2909.25 936.52 2907.12 993.467 2914.07 1073.44C2914.96 1083.73 2915.96 1094.48 2917.07 1105.57C2921.99 1154.96 2929.15 1211.69 2940.01 1271.53C2940.75 1275.47 2938 1278.96 2932.64 1281.97" fill="white"/>
<path d="M2841.64 919.573C2840.68 934.853 2820.75 933.12 2796.76 927.653C2772.8 922.2 2781.48 908.053 2781.48 908.053C2781.48 908.053 2781.83 897.186 2783.35 884.173C2783.89 879.453 2784.59 874.413 2785.49 869.533C2785.92 867.133 2786.39 864.786 2786.93 862.506C2790.07 849.053 2834.81 862.04 2834.49 865.653C2833.63 875.426 2840.69 907.56 2841.64 919.573Z" fill="#FFB27D"/>
<path d="M2790.25 946.253L2788.36 925.133L2814.89 930.133L2804.68 949L2790.25 946.253Z" fill="#9333EA"/>
<path d="M2782.04 898.107L2766.19 922.227C2766.19 922.227 2766.19 937.067 2779.95 947.827L2801.63 927.64C2801.63 927.64 2787.61 922.293 2782.04 898.107" fill="#DCEAFF"/>
<path d="M2801.63 927.64C2801.63 927.64 2806.12 943.76 2814.8 951.16C2814.8 951.16 2848.65 942.053 2856.73 924.72L2839.09 901.946C2839.09 901.946 2838.24 919.173 2801.63 927.64" fill="#DCEAFF"/>
<path d="M2834.75 873.253C2834.75 873.253 2813.2 887.573 2783.35 884.173C2783.89 879.453 2784.59 874.413 2785.49 869.533C2791.39 868.093 2796.32 867.2 2796.32 867.2L2834.75 873.253Z" fill="#E2915A"/>
<path d="M2848.43 856.973C2837.89 885.96 2799.45 878.56 2783.09 873.907C2778.48 872.6 2775.63 871.507 2775.63 871.507C2770.57 869.213 2769 860.387 2769.45 849.24C2770.32 827.173 2779.04 796.013 2784.03 788.507C2791.56 777.213 2804.11 765.733 2841.39 781.72C2878.68 797.72 2861.93 819.827 2848.43 856.973Z" fill="#FFB27D"/>
<path d="M2877.23 842.08C2865.45 851.68 2840.17 869.44 2840.17 869.44C2840.17 869.44 2842.99 866.12 2846.43 856.533C2846.81 855.453 2846.93 853.853 2846.88 852.173C2846.75 847.467 2847.88 842.787 2850.35 838.773C2851.88 836.28 2852.44 833.68 2850.49 831.84C2847.29 828.813 2841.84 831.6 2838.27 834.053C2835.91 835.667 2832.81 835.76 2830.39 834.253C2830.37 834.24 2830.36 834.227 2830.33 834.213C2820.28 827.92 2831.39 816.827 2823.21 807.613C2815.03 798.413 2779.67 797.147 2781.09 791.373C2769.01 784.547 2776.63 759.373 2776.84 758.04C2776.84 758.04 2794.17 759.573 2815.8 754.173C2833.37 749.76 2852.73 761.04 2858.87 765.693C2858.87 764.573 2858.68 763.027 2857.88 761.4C2857.88 761.4 2860.55 764.027 2860.49 767.093C2860.76 767.36 2860.88 767.547 2860.8 767.587C2860.8 767.587 2864.29 767.52 2866.33 768.88C2866.33 768.88 2864.84 768.4 2864.13 769.293C2864.04 769.4 2863.95 769.467 2863.83 769.533C2887.33 786.133 2886.99 834.107 2877.23 842.08" fill="#BC3F3F"/>
<path d="M2792.84 852.787C2792.84 852.787 2790.95 856.426 2781.44 853.4C2781.44 853.4 2773.47 850.867 2774.79 846.653C2774.79 846.653 2783.4 845.6 2792.84 852.787Z" fill="white"/>
<path d="M2790.25 946.253C2790.25 946.253 2769.08 1213.81 2769.37 1236.11C2769.67 1258.4 2792.84 1281.97 2792.84 1281.97C2792.84 1281.97 2811.29 1261.76 2814.89 1240.44C2818.51 1219.11 2804.68 949 2804.68 949L2790.25 946.253" fill="#663295"/>
<path d="M2932.64 1281.97C2932.63 1281.97 2932.63 1281.97 2932.61 1281.97C2868.25 1272.71 2886.69 1059.71 2891.75 1058.87C2896.8 1058.03 2915.31 1096.95 2915.31 1096.95L2917.07 1105.57C2921.99 1154.96 2929.15 1211.69 2940.01 1271.53C2940.75 1275.47 2938 1278.96 2932.64 1281.97" fill="#DCEAFF"/>
<path d="M3121.83 1440.64L2985.73 1480.24C2968.03 1485.39 2949.32 1475.12 2944.16 1457.4L2927 1398.43C2921.85 1380.72 2932.12 1362.01 2949.84 1356.85L3085.92 1317.25C3103.64 1312.09 3122.35 1322.37 3127.49 1340.08L3144.67 1399.05C3149.81 1416.77 3139.55 1435.48 3121.83 1440.64" fill="#A02E2E"/>
<path d="M3050.24 1327.45L3001.63 1341.61L2997.92 1328.88C2997.29 1326.69 2998.56 1324.39 3000.75 1323.75L3012.96 1320.2L3035.35 1313.67L3041.4 1311.92C3041.81 1311.8 3042.23 1311.75 3042.63 1311.76C3044.4 1311.79 3046.01 1312.96 3046.53 1314.73L3050.24 1327.45ZM2944.93 1393.17L2962.29 1452.83C2965.65 1464.37 2974.76 1472.77 2985.59 1475.83C2989.19 1476.84 2992.96 1477.27 2996.8 1477.01C2996.81 1477.01 2996.81 1477.01 2996.81 1477.01H2996.83C2999.21 1476.85 3001.63 1476.45 3004.03 1475.75L3139.87 1436.21C3157.65 1431.04 3167.96 1412.27 3162.79 1394.48L3145.43 1334.83C3140.25 1317.04 3121.48 1306.73 3103.69 1311.91L3056.92 1325.52L3053.23 1312.79C3051.52 1306.91 3045.33 1303.52 3039.45 1305.23L3034.32 1306.72L3005.87 1315L2998.8 1317.07C2995.97 1317.88 2993.61 1319.79 2992.17 1322.39C2990.75 1324.99 2990.41 1328 2991.24 1330.83L2994.95 1343.56L2967.84 1351.44C2966.77 1351.75 2965.73 1352.11 2964.72 1352.52L2964.71 1352.53H2964.69C2954.39 1356.67 2947.05 1365.59 2944.55 1375.91V1375.92C2943.2 1381.44 2943.24 1387.35 2944.93 1393.17" fill="#BC3F3F"/>
<path d="M3009.47 1289.37C3009.47 1289.37 3005.25 1324.65 3013.16 1324.15C3021.07 1323.64 3040.43 1319.85 3041.75 1313.77C3043.07 1307.69 3026.92 1279.35 3026.92 1279.35L3009.47 1289.37Z" fill="#FFB27D"/>
<path d="M3010.48 1289.28C3010.48 1289.28 3004.43 1296.8 3003.91 1302.72C3003.39 1308.64 3000.49 1318.99 3003.21 1319.65C3005.92 1320.32 3010.88 1306.77 3010.88 1306.77L3010.48 1289.28Z" fill="#FFB27D"/>
<path d="M2884.35 929.187C2884.35 929.187 2918.52 937.373 2945.55 989.28C2972.56 1041.19 2993.91 1145.88 3006.81 1173.52C3019.71 1201.15 3029.53 1284.07 3029.53 1284.07C3029.53 1284.07 3027.52 1288.19 3020.56 1289.69C3015.17 1290.85 3009.63 1290.4 3009.63 1290.4C3009.63 1290.4 2958.81 1209 2951.52 1179.76C2947.57 1163.93 2887.27 1037.27 2887.27 1037.27L2884.35 929.187Z" fill="white"/>
<path d="M633.307 1832.92L628.187 1796.03L649.699 1778.05L656.475 1826.89L633.307 1832.92Z" fill="#FFB27D"/>
<path d="M704.747 1865.87H617.043C617.043 1865.87 614.941 1852.49 619.521 1842.36C623.912 1832.63 630.743 1826.61 631.365 1819.16C636.939 1824.91 643.796 1828.6 656.475 1826.89C658.029 1829.41 666.504 1842.89 671.693 1846.61C677.425 1850.73 702.981 1849.27 704.747 1865.87Z" fill="#9333EA"/>
<path d="M687.125 1334.84C681.389 1380.97 676.699 1424.48 672.879 1465.01C652.468 1681.03 656.473 1813.05 656.473 1813.05C656.473 1813.05 654.999 1816.96 642.344 1817.01C635.192 1817.05 628.187 1815.49 628.187 1815.49C628.187 1815.49 582.487 1674.44 586.015 1594.17C586.435 1584.52 587.568 1575.75 589.581 1568.19C600.544 1527.12 549.012 1370.07 605.029 1311.57C661.036 1253.09 689.763 1313.67 687.125 1334.84" fill="#F99746"/>
<path d="M687.125 1334.84C681.389 1380.97 676.699 1424.48 672.879 1465.01L586.015 1594.17C586.435 1584.52 587.568 1575.75 589.581 1568.19C600.544 1527.12 549.012 1370.07 605.029 1311.57C661.036 1253.09 689.763 1313.67 687.125 1334.84" fill="#ED7D2B"/>
<path d="M756.151 894.746C756.151 894.746 754.037 884.2 751.657 876.16C750.604 872.6 757.945 849.213 763.025 846.346C768.107 843.466 781.339 859.213 777.595 871.293C775.671 877.506 772.511 897.72 772.511 897.72L756.151 894.746" fill="#FFB27D"/>
<path d="M756.151 894.747C756.151 894.747 753.389 888.627 750.895 887.64C748.4 886.653 745.727 876.653 743.896 872.693C743.896 872.693 745.664 870.107 748.759 873.44C750.647 875.467 754.855 881.44 754.855 881.44L756.151 894.747" fill="#FFB27D"/>
<path d="M394.097 930.2C393.56 931.306 392.812 933.293 392.147 935.16C392.136 934.653 392.128 934.146 392.123 933.653C392.088 929.946 378.224 909.733 372.525 908.466C366.824 907.2 358.779 926.133 365.899 936.6C369.556 941.973 378.492 960.373 378.492 960.373L393.265 952.746C393.265 952.746 394.117 946.093 396.212 944.413C398.307 942.733 397.939 932.4 398.529 928.066C398.529 928.066 396.08 926.106 394.097 930.2" fill="#FFB27D"/>
<path d="M486.221 1821.85C484.981 1810.04 484.675 1778.93 484.675 1778.93C484.675 1778.93 516.369 1768.8 515.203 1775.76C509.468 1809.96 511.025 1826.89 511.025 1826.89L498.208 1834.55L486.221 1821.85Z" fill="#FFB27D"/>
<path d="M660.655 1332.64C660.655 1332.64 538.212 1668.28 514.109 1813.87C514.109 1813.87 508.525 1817.71 498.109 1816.43C486.296 1814.99 483.059 1806.77 483.059 1806.77C483.059 1806.77 460.939 1632.28 504.904 1571.71C535.109 1530.08 491.876 1347.29 562.227 1332.64C632.579 1317.99 660.655 1332.64 660.655 1332.64" fill="#F99746"/>
<path d="M638.907 1009.77C638.905 1009.76 638.905 1009.76 638.905 1009.76C638.884 1009.61 638.849 1009.48 638.804 1009.33C638.088 1006.37 637.307 1003.47 636.465 1000.59C636.464 1000.57 636.464 1000.57 636.464 1000.57C633.901 991.746 630.852 983.347 627.563 975.92C625.668 971.667 623.707 967.72 621.699 964.213C621.392 963.666 621.092 963.173 620.804 962.653L620.789 962.64C616.057 954.68 611.193 949.186 606.805 947.493C598.8 944.4 589.895 945.253 583.764 946.533C585.109 944.653 588.161 943.6 588.161 943.6C584.237 943.586 576.247 948.666 576.247 948.666C519.852 936.053 523.148 1015.83 526.988 1033.91C530.815 1051.99 512.657 1060.77 487.051 1079.28C438.183 1114.57 439 1152 439 1152C439.441 1152.19 439.923 1152.4 440.421 1152.65C442.388 1147.81 446.559 1138.64 450.931 1136.71C450.807 1137.13 447.251 1149.01 446.241 1155.65C453.685 1159.76 463.987 1166.11 475.172 1173.28C475.172 1173.28 475.172 1173.28 475.187 1173.29C490.153 1182.87 506.672 1193.89 519.909 1202.84C519.28 1199.2 518.657 1194 519.583 1191.07L523.8 1204.13L524.353 1205.84C532.801 1211.56 539.467 1216.15 542.851 1218.49C543.197 1218.73 543.505 1218.95 543.781 1219.13C544.771 1219.8 545.3 1220.17 545.3 1220.17C544.176 1215.56 549.107 1203.52 557.381 1188.35C557.948 1187.29 558.549 1186.21 559.163 1185.12C561.835 1180.32 564.817 1175.27 568.028 1170.05C569.184 1168.17 570.353 1166.29 571.567 1164.37C571.565 1164.36 571.577 1164.36 571.577 1164.36C572.548 1162.81 573.531 1161.28 574.548 1159.72L574.557 1159.71C576.956 1156 579.436 1152.27 581.967 1148.53C588.521 1138.85 595.461 1129.24 602.32 1120.43C612.279 1107.59 622.051 1096.43 630.233 1089.12C630.501 1088.57 630.755 1088.01 630.983 1087.44C632.264 1084.47 633.247 1081.16 634.008 1077.79C634.245 1076.79 634.456 1075.76 634.641 1074.75C636.681 1064.01 636.721 1053.36 636.695 1050.84C637.349 1061.2 637.089 1069.03 636.395 1074.93C636.237 1076.24 636.067 1077.44 635.869 1078.56H635.872C635.436 1081.09 634.933 1083.17 634.391 1084.91C635.731 1083.24 636.909 1081.43 637.949 1079.43C638.631 1078.13 639.252 1076.76 639.801 1075.33C646.401 1058.48 644.625 1033.35 638.907 1009.77" fill="#163560"/>
<path d="M628.312 1090.6C628.501 1090.65 612.524 1102.21 598.971 1100.59C586.223 1099.07 575.856 1084.37 576.02 1084.32C581.055 1082.52 581.489 1075.16 576.823 1044.55L579.237 1044.65L619.833 1046.6C619.833 1046.6 620.781 1059.15 622.495 1070.84C623.928 1080.65 625.908 1089.88 628.312 1090.6Z" fill="#FFB27D"/>
<path d="M619.833 1046.6C619.833 1046.6 620.781 1059.15 622.495 1070.84C600.335 1073.49 585.676 1055.11 579.237 1044.65L619.833 1046.6Z" fill="#ED975D"/>
<path d="M574.525 1040.97C574.525 1040.97 560.244 1024.41 555.144 1009.2C551.503 998.347 551.033 956.16 593.469 955.933C593.469 955.933 605.715 955.32 618.196 961.293C628.124 966.053 643.1 977.266 633.911 1015.51L631.941 1028.27L574.525 1040.97" fill="#163560"/>
<path d="M692.241 1326.2C692.241 1326.2 639.413 1357.59 573.087 1341.45C572.305 1341.25 518.472 1332.67 518.472 1332.67C519.396 1330.13 526.353 1288.55 527.264 1286.23C539.031 1255.85 560.536 1091.05 578.504 1082.92C583.092 1087.92 596.204 1091.33 607.427 1090.35C620.349 1089.2 624.676 1083.61 623.604 1077.61C637.904 1084.37 648.892 1090.65 648.892 1090.65C661.963 1110.24 692.241 1326.2 692.241 1326.2Z" fill="white"/>
<path d="M628.849 1056.57C628.849 1056.57 576.767 1065.2 571.893 1032.68C567.02 1000.17 557.016 979.387 590.063 972.493C623.111 965.613 631.445 977.053 635.712 987.507C639.979 997.973 642.272 1053.49 628.849 1056.57Z" fill="#FFB27D"/>
<path d="M613.723 968.16C613.723 968.16 605.104 1008.44 584.004 1017.35C562.905 1026.25 552.515 1021.79 552.515 1021.79C552.515 1021.79 567.355 1005.92 567.376 982.066C567.376 982.066 600.239 951.613 613.723 968.16Z" fill="#163560"/>
<path d="M610.641 971.787C610.641 971.787 622.584 978.72 626.419 986.613C630.253 994.506 633.96 1011.39 638.843 1010.07C638.843 1010.07 645.755 982.533 631.469 969.653C616.321 956.013 610.641 971.787 610.641 971.787Z" fill="#163560"/>
<path d="M772.867 895.493C770.749 894.747 767.627 892.987 763.556 892.613C759.929 892.293 755.372 893.48 755.372 893.48C755.372 893.48 740.679 984.813 739.587 989.653C738.496 994.493 676.56 1064.27 659.861 1063.99C644.783 1063.73 626.919 1075.37 623.604 1077.61C623.604 1077.61 658.72 1151.87 660.471 1165.81C662.376 1180.99 680.555 1414.72 680.555 1414.72C680.555 1414.72 679.473 1425.59 699.789 1419.75C720.104 1413.89 725.185 1409.07 725.185 1409.07C725.185 1409.07 706.524 1225.05 702.609 1167.84C702.084 1160.16 700.829 1153.04 699.044 1146.48C697.323 1140.16 698.68 1133.4 702.54 1128.11C728.224 1092.84 768.785 1035.72 771.045 1023.57C774.365 1005.73 772.867 895.493 772.867 895.493Z" fill="#2B478B"/>
<path d="M559.296 1865.87H471.592C471.592 1865.87 469.489 1852.49 474.071 1842.36C478.46 1832.63 485.292 1826.61 485.915 1819.16C491.488 1824.91 498.345 1828.6 511.025 1826.89C512.579 1829.41 521.053 1842.89 526.243 1846.61C531.973 1850.73 557.531 1849.27 559.296 1865.87Z" fill="#9333EA"/>
<path d="M619.543 1173.03C616.588 1154.84 578.849 1081.8 578.849 1081.8C578.849 1081.8 554.992 1074.67 539.289 1080.36C523.588 1086.04 442.347 1040.17 439.743 1035.95C437.139 1031.73 393.625 950.653 393.625 950.653C393.625 950.653 390.017 948.56 384.236 951.573C378.517 954.546 378.492 960.373 378.492 960.373C378.492 960.373 412.075 1062.45 421.009 1078.25C426.397 1087.77 471.693 1120.93 506.812 1145.76C513.517 1150.49 517.039 1158.57 515.937 1166.71C511.216 1201.61 510.013 1221.28 504.583 1281.17C500.077 1330.87 498.353 1427.08 498.353 1427.08C498.353 1427.08 537.652 1440.68 564.775 1442.48C591.897 1444.29 597.808 1415.69 597.808 1415.69C597.808 1415.69 622.581 1191.73 619.543 1173.03Z" fill="#2B478B"/>
<path d="M611.783 1040.49C611.783 1040.49 618.111 1044.21 625.581 1043.09C630.699 1042.32 631.861 1036.25 631.861 1036.25C631.861 1036.25 628.304 1035.13 622.627 1036.28C616.949 1037.41 611.783 1040.49 611.783 1040.49" fill="white"/>
<path d="M2275.32 420.627C2275.32 420.627 2250.96 377.32 2275.32 368.507C2299.69 359.693 2310.72 367.827 2311.88 377.68C2313.04 387.547 2302.6 426.427 2302.6 426.427L2275.32 420.627" fill="#FFB27D"/>
<path d="M2294.85 697.613C2250.43 705.626 2209.57 709.333 2172.69 710.16C2137.69 710.946 2106.29 709.133 2078.8 705.933C2071.41 705.093 2064.32 704.133 2057.51 703.106C1985.57 692.2 1945.84 672.853 1945.84 672.853C1945.84 672.853 2011.57 535.253 2064.68 540.533C2126.97 546.746 2232.53 602.653 2243.03 586.973C2254.84 569.306 2264.73 417.813 2264.73 417.813C2292.35 398.906 2308.84 418.84 2308.84 418.84C2308.84 418.84 2362.8 685.36 2294.85 697.613" fill="#F99746"/>
<path d="M2294.85 697.613C2250.43 705.626 2209.57 709.333 2172.69 710.16C2137.69 710.946 2106.29 709.133 2078.8 705.933C2062.23 653.226 2050.31 599.387 2083.64 631.853C2142.44 689.093 2294.85 697.613 2294.85 697.613" fill="#ED7D2B"/>
<path d="M1940.85 1808.57C1940.85 1808.57 1936.13 1863.28 1947.69 1868.96L2095.67 1868.67C2095.67 1868.67 2095.67 1851.59 2071.89 1847.79C2048.13 1844 2006.37 1830.08 1999.31 1799.09C1992.24 1768.09 1940.85 1808.57 1940.85 1808.57" fill="#9333EA"/>
<path d="M2049.49 1146.55C2048.76 1182.31 2047.04 1219.2 2043.68 1252.36C2027.69 1409.69 2022.08 1599.8 2019.79 1636.45C2015.8 1700.07 2003.24 1801.71 2003.24 1801.71C2003.24 1801.71 1978.31 1825.37 1929.71 1814.08C1929.71 1814.08 1889.45 1667.69 1880.45 1513.55C1880.32 1511.01 1880.19 1508.47 1880.05 1505.93C1879.01 1485.55 1877.92 1462.25 1876.8 1437.12C1869.4 1268.81 1861.36 1018.8 1861.36 1018.8L2047.04 975.2C2047.04 975.2 2051.32 1057.37 2049.49 1146.55" fill="#663295"/>
<path d="M2049.49 1146.55C2002.43 1227.73 1912.73 1377.32 1876.8 1437.12C1869.4 1268.81 1861.36 1018.8 1861.36 1018.8L2047.04 975.2C2047.04 975.2 2051.32 1057.37 2049.49 1146.55Z" fill="#9333EA"/>
<path d="M1579.32 989.267C1579.32 989.267 1549.11 1024.8 1546.39 1034.65C1543.67 1044.51 1538.83 1080 1541.43 1090.67C1544.01 1101.33 1564.11 1060.92 1571.41 1056.61C1578.72 1052.29 1565.93 1072.68 1568.43 1076.08C1570.92 1079.48 1585.35 1064.19 1590.97 1059C1596.6 1053.83 1596.04 1025.96 1602.8 1009.48C1609.56 993 1579.32 989.267 1579.32 989.267Z" fill="#FFB27D"/>
<path d="M1572.24 1746.41C1572.24 1746.41 1545.89 1770.44 1551.04 1787.52C1556.17 1804.6 1579.95 1815.99 1583.16 1836.85C1586.37 1857.73 1599.21 1869.12 1610.77 1869.12C1622.35 1869.12 1665.91 1869.12 1665.91 1869.12C1665.91 1869.12 1674.41 1854.43 1653.85 1850C1633.31 1845.57 1625.55 1821.04 1626.84 1798.28C1628.12 1775.51 1624.91 1745.15 1624.91 1745.15L1581.23 1735.03L1572.24 1746.41Z" fill="#9333EA"/>
<path d="M2017.79 1022.61C2017.79 1022.61 1843.96 1394.53 1751.45 1557.72C1658.96 1720.91 1630.05 1766.44 1630.05 1766.44C1630.05 1766.44 1577.05 1745.57 1572.24 1731.33C1572.24 1731.33 1607.61 1416.29 1669.56 1339.49C1704.56 1296.11 1745.68 1165.88 1747.6 1120.33C1749.53 1074.79 1790.13 966.093 1790.13 966.093L2017.79 1022.61Z" fill="#663295"/>
<path d="M2068.6 1040.15C2068.6 1040.15 1999.48 1086.36 1901.64 1082.07C1858.71 1080.2 1773.55 1068.03 1759.8 1033.88C1756.57 1025.85 1758.93 1015.68 1763.77 1000.07C1776.35 959.48 1805.63 882.186 1796.79 710.813C1795.96 694.88 1796.41 679.88 1797.93 665.853C1807.15 581.44 1855.52 531.453 1902.28 515.12C2016.31 475.253 2054.32 530.48 2054.32 530.48C2054.32 530.48 2104.72 570.413 2112.32 653.746C2127.51 820.44 2068.6 1040.15 2068.6 1040.15Z" fill="#F99746"/>
<path d="M1935.69 505.547C1935.69 505.547 1988.01 537.36 2044.76 528.36C2044.76 528.36 2055.99 525.507 2050.47 512.347C2053.92 501.707 2053.51 502.667 2055.51 494.773C2060.48 476.587 2062 466.093 2062 466.093L2029.8 432.253L1999.29 399.907C1990.87 477.213 1935.69 505.547 1935.69 505.547Z" fill="#FFB27D"/>
<path d="M1994.41 429.226C1994.41 429.226 2011.93 476.066 2055.51 494.773C2060.48 476.586 2063.72 457.573 2063.72 457.573L2029.8 432.253L1994.41 429.226" fill="#ED985F"/>
<path d="M2098.13 464.467C2098.13 464.467 1998.27 476.947 1991.25 415.573C1984.24 354.2 1966.63 314.48 2030.09 303.92C2093.56 293.347 2108.65 315.413 2116.05 335.347C2123.45 355.267 2123.93 459.64 2098.13 464.467Z" fill="#FFB27D"/>
<path d="M1959.72 293.946C1958.85 292.88 1956.81 291.96 1952.2 291.533C1952.2 291.533 1955.99 289.36 1960.93 289.426C1962.13 283.026 1965.99 271.773 1977.16 269.426C1977.16 269.426 1971.09 272.373 1970.07 279.186C1983.37 266.506 2011.21 257.96 2087.05 266.84C2187.01 278.546 2151.55 341.48 2138.27 348.64C2125 355.8 2093.13 333.586 2068.88 334.586C2044.63 335.6 2038.69 370.36 2030.32 374.853C2021.93 379.333 2025.48 370.973 2014.57 365.546C2003.65 360.106 2001.91 378.453 2004.67 390.533C2007.41 402.613 1991.57 417.813 1991.57 417.813C1991.57 417.813 1991.57 417.813 1976.79 400.626C1962 383.453 1950.13 312.6 1957.71 297.88C1958.37 296.586 1959.04 295.266 1959.72 293.946" fill="#2C3A64"/>
<path d="M2264.73 391.893L2095.19 393.413L2094.03 367.906L2263.04 354.8L2264.73 391.893" fill="#663295"/>
<path d="M2392.72 396.16L2208.12 398.827L2206.01 352.453L2390.08 338.187L2392.72 396.16Z" fill="#663295"/>
<path d="M2517.19 399.8L2361.52 399.986L2358.68 337.386L2513.71 323.28L2517.19 399.8Z" fill="#9333EA"/>
<path d="M2519.41 410.36C2524.21 410.146 2527.93 406.08 2527.71 401.28L2524.05 320.853C2523.84 316.053 2519.77 312.333 2514.97 312.546C2510.16 312.773 2506.45 316.84 2506.67 321.64L2510.32 402.066C2510.53 406.866 2514.61 410.586 2519.41 410.36" fill="#9333EA"/>
<path d="M2094.65 398.853C2090.39 399.04 2086.77 395.747 2086.57 391.48L2085.63 370.613C2085.43 366.333 2088.73 362.72 2093 362.52C2097.28 362.333 2100.89 365.64 2101.08 369.907L2102.03 390.773C2102.23 395.04 2098.92 398.653 2094.65 398.853Z" fill="#663295"/>
<path d="M1763.77 1000.07C1776.35 959.48 1805.63 882.186 1796.79 710.813C1795.96 694.88 1796.41 679.88 1797.93 665.853H1797.95C1835.47 662.626 1892.84 703.186 1892.84 703.186C1892.84 703.186 1857.51 918.573 1763.77 1000.07" fill="#ED7D2B"/>
<path d="M1935.69 505.546C1935.69 505.546 1839.47 522.08 1789.28 583.346C1739.09 644.613 1658.36 731 1639.28 761.253C1620.19 791.506 1567.2 997.386 1567.2 997.386C1567.2 997.386 1570.71 1004 1585.32 1007.85C1599.31 1011.55 1609.45 1005.83 1609.45 1005.83C1609.45 1005.83 1679.65 885.68 1706.08 825.653C1717.05 800.72 1906.91 701.96 1978.28 712.2C2006.31 716.213 1935.69 505.546 1935.69 505.546" fill="#F99746"/>
<path d="M2263.72 347.493C2263.72 347.493 2284.41 360.16 2296.8 354.8C2309.17 349.44 2308.08 344.546 2308.08 344.546C2308.08 344.546 2270.68 334.16 2263.72 347.493" fill="#FFB27D"/>
<path d="M2029.07 572.653C2029.07 572.653 1986.84 839.267 1687.23 916.893L1654.59 981.28L1711.92 990.987C1711.92 990.987 2053.03 892.16 2048.43 567.946L2029.07 572.653" fill="#BC3F3F"/>
<path d="M2022.52 530.107L2008.69 531.453V551.48L2029.07 572.653L2048.44 567.947V540.16L2034.51 530.107H2022.52" fill="#A02E2E"/>
<path d="M1968.25 477.093C1968.25 477.093 1954.87 480.107 1924.25 505.547C1924.25 505.547 1954.69 570.147 2018.91 577.88C2018.91 577.88 2017.88 547.907 2022.52 530.107C2022.52 530.107 1971.63 511.88 1968.25 477.093Z" fill="#ED7D2B"/>
<path d="M2022.52 530.107C2022.52 530.107 2053.85 546.747 2056.17 572.653C2056.17 572.653 2068.15 553.68 2064.68 540.547C2061.2 527.4 2050.47 512.347 2050.47 512.347C2050.47 512.347 2051.53 528.173 2022.52 530.107" fill="#ED7D2B"/>
</svg>
