<svg width="580" height="393" viewBox="0 0 580 393" fill="none" xmlns="http://www.w3.org/2000/svg">
  <g clip-path="url(#clip0_2_11)">
    <path d="M67.0409 391.894C67.0409 391.894 -12.2225 284.586 43.3574 184.486C64.097 147.133 117.044 126.159 165.715 143.175C194.465 153.225 238.065 151.742 280.668 63.1481C338.763 -57.6681 579.936 -2.73182 532.862 208.946C513.031 298.11 586.94 302.168 550.329 392.087L67.0409 391.894Z" fill="#010205"/>
    <path d="M496.157 176.925L323.506 360.925L232.669 262.346C215.666 281.418 189.409 310.858 162.992 340.4C144.94 360.588 130.325 376.901 118.479 390.103L35.972 389.981C58.8518 365.165 150.975 262.038 213.038 192.344L232.015 171.035L323.841 270.69L458.624 127.045L496.157 176.925Z" fill="#3E3EF4"/>
    <path d="M436.768 104.415L518.996 209.486L542.224 89.4572L436.768 104.415Z" fill="#3E3EF4"/>
    <path d="M167.21 325.805C166.904 316.185 166.241 307.814 165.449 301.979C164.186 292.674 163.049 287.324 163.036 287.267C162.87 286.448 160.467 283.136 155.123 283.239C149.779 283.339 150.286 287.684 150.286 287.684C150.285 287.829 150.301 287.965 150.324 288.069C150.376 288.291 155.281 310.95 155.068 340.203C155.066 340.613 155.029 341.323 155.052 341.795C155.052 341.799 167.435 342.203 167.439 341.795C167.871 339.239 167.659 332.156 167.21 325.805Z" fill="#B7D3F3"/>
    <path d="M168.767 340.058C168.764 340.467 168.595 340.793 168.389 340.793H168.384C168.179 340.787 168.014 340.46 168.013 340.058H157.4C157.396 340.467 157.227 340.793 157.021 340.793H157.016C156.806 340.787 156.64 340.45 156.642 340.039C156.704 331.664 156.329 323.844 155.762 316.941C154.351 299.73 151.743 288.229 151.706 288.069C151.683 287.965 151.668 287.829 151.668 287.684C151.668 287.684 151.161 283.343 156.504 283.239C161.849 283.136 164.252 286.448 164.419 287.267C164.428 287.309 165.072 290.34 165.927 295.789C166.212 297.593 166.518 299.663 166.832 301.979C167.623 307.814 168.286 316.185 168.593 325.805C169.042 332.156 169.2 337.502 168.767 340.058Z" fill="#D2E3FC"/>
    <path d="M155.858 340.793H197.465C197.465 340.793 196.495 335.799 172.4 336.541C155.348 337.069 155.858 340.793 155.858 340.793Z" fill="#C5DCF8"/>
    <path d="M152.471 392.966C157.296 361.855 156.055 342.765 156.049 342.524C156.037 342.044 156.73 341.61 157.103 341.594C157.48 341.585 159.145 341.451 159.338 341.862C159.59 342.398 160.562 365.919 153.372 392.966H152.471Z" fill="#B7D3F3"/>
    <path d="M191.318 392.966C186.495 361.855 187.736 342.765 187.743 342.524C187.753 342.044 187.06 341.61 186.687 341.594C186.31 341.585 184.646 341.451 184.454 341.862C184.201 342.398 183.227 365.919 190.42 392.966H191.318Z" fill="#B7D3F3"/>
    <path d="M199.017 392.966C194.192 361.855 195.434 342.765 195.44 342.524C195.452 342.044 194.758 341.61 194.386 341.594C194.008 341.585 192.344 341.451 192.151 341.862C191.9 342.398 190.928 365.919 198.118 392.966H199.017Z" fill="#B7D3F3"/>
    <path d="M160.222 392.966C165.046 361.855 163.806 342.765 163.8 342.524C163.787 342.044 164.48 341.61 164.854 341.594C165.23 341.585 166.896 341.451 167.088 341.862C167.342 342.398 168.312 365.919 161.122 392.966H160.222Z" fill="#B7D3F3"/>
    <path d="M197.488 342.388H155.883C155.414 342.388 155.03 341.9 155.03 341.3V340.588C155.03 339.991 155.414 339.503 155.883 339.503H197.488C197.958 339.503 198.341 339.991 198.341 340.588V341.3C198.341 341.9 197.958 342.388 197.488 342.388Z" fill="#B7D3F3"/>
    <path d="M196.027 294.522L209.857 290.705L210.673 293.233C210.673 293.233 195.412 304.803 193.982 304.236C192.553 303.668 196.027 294.522 196.027 294.522Z" fill="#FFB27D"/>
    <path d="M183.454 374.205C183.107 374.71 183.063 375.275 183.234 375.879C183.234 375.881 183.237 375.883 183.239 375.887C183.554 377.001 184.602 378.25 185.819 379.492C185.975 379.651 186.113 379.8 186.233 379.934C186.264 379.968 186.297 380.003 186.325 380.039C186.35 380.068 186.375 380.096 186.398 380.121C187.532 381.453 187.106 381.757 189.144 384.461C191.467 387.543 193.067 387.597 193.521 387.319C193.908 387.078 193.125 385.444 192.258 383.609C192.217 383.521 192.176 383.431 192.132 383.34C192.018 383.095 191.902 382.85 191.788 382.603C190.772 380.395 191.033 379.356 191.272 376.067C191.469 373.394 194.538 361.135 194.538 361.135L190.084 360.159C190.084 360.159 188.743 369.921 187.264 371.423C186.475 372.225 185.588 372.236 184.83 372.828C184.776 372.87 184.723 372.912 184.673 372.956C184.24 373.319 183.803 373.696 183.454 374.205Z" fill="#FFB27D"/>
    <path d="M183.454 374.205C183.107 374.71 183.063 375.275 183.234 375.879C183.234 375.881 183.237 375.883 183.239 375.887C183.627 377.001 184.646 378.242 185.824 379.482C185.977 379.643 186.113 379.794 186.233 379.934C186.264 379.968 186.297 380.003 186.325 380.039C186.35 380.068 186.375 380.096 186.398 380.121C187.532 381.453 187.106 381.757 189.144 384.461C191.467 387.543 193.067 387.597 193.521 387.319C193.908 387.078 193.125 385.444 192.258 383.609C191.808 383.397 189.705 382.31 188.114 379.718C186.717 377.445 185.784 374.521 184.83 372.828C184.776 372.87 184.723 372.912 184.673 372.956C184.24 373.319 183.803 373.696 183.454 374.205Z" fill="#1C468A"/>
    <path d="M219.366 370.66C219.64 372.411 221.6 372.118 223.791 371.437C225.98 370.754 225.46 371.565 228.575 371.127C231.691 370.687 232.636 369.208 232.73 368.618C232.816 368.094 231.276 367.91 229.624 367.667C229.417 367.637 229.206 367.604 228.999 367.57C227.134 367.273 225.769 365.741 224.075 364.482C222.47 363.288 220.076 358.432 220.076 358.432L215.804 358.862C215.804 358.862 218.047 363.202 218.915 365.088C219.423 366.196 219.397 367.667 219.333 368.798C219.3 369.414 219.27 370.042 219.366 370.66Z" fill="#FFB27D"/>
    <path d="M223.791 371.437C225.98 370.754 225.46 371.565 228.575 371.127C231.691 370.687 232.636 369.208 232.73 368.618C232.816 368.094 231.276 367.91 229.624 367.667L229.607 367.708C229.607 367.708 227.739 369.395 225.146 369.472C223.033 369.539 220.793 368.766 219.333 368.798C219.3 369.414 219.27 370.042 219.366 370.66C219.64 372.411 221.6 372.118 223.791 371.437Z" fill="#1C468A"/>
    <path d="M209.857 290.705C209.857 290.705 210.877 287.527 211.997 287.399C213.115 287.267 216.68 286.555 216.935 287.202C217.188 287.852 216.935 290.185 216.169 291.029C215.406 291.874 210.673 293.233 210.673 293.233L209.857 290.705Z" fill="#FFB27D"/>
    <path d="M202.99 335.852L193.781 367.426C193.781 367.426 192.367 367.6 191.009 367.101C189.762 366.644 188.33 365.44 188.33 365.44C188.33 365.44 190.614 335.123 194.804 328.819C198.992 322.511 202.99 335.852 202.99 335.852Z" fill="#163560"/>
    <path d="M166.564 323.079C166.564 323.079 193.026 311.679 198.928 314.105C204.832 316.531 222.549 361.443 222.549 361.443C222.549 361.443 222.151 362.119 221.059 362.641C220.043 363.127 217.586 363.096 217.586 363.096C217.586 363.096 201.592 345.633 199.69 340.542C197.787 335.447 197.026 330.598 195.12 331.082C193.217 331.568 170.561 342.966 165.421 336.176C160.281 329.385 161.625 320.561 161.625 320.561L166.564 323.079Z" fill="#1C468A"/>
    <path d="M181.65 242.698C180.507 241.873 179.136 241.781 178.177 241.852C178.424 241.53 178.909 241.408 178.909 241.408C178.315 241.297 176.988 242.049 176.988 242.049C168.718 237.989 167.417 253.504 167.592 257.107C167.764 260.71 167.784 264.858 163.656 268.093C155.533 274.453 162.387 285.556 162.387 285.556C162.451 285.602 166.166 293.629 166.166 293.629C165.957 290.717 176.506 275.349 182.01 270.745C183.35 268.231 183.826 263.794 183.862 263.444C183.632 266.963 183.158 268.939 182.735 270.049C187.396 264.586 184.681 244.894 181.65 242.698Z" fill="#B5453C"/>
    <path d="M181.685 270.975C181.711 270.988 179.027 272.764 177.008 272.06C175.108 271.403 173.867 268.264 173.893 268.256C174.697 268.053 174.929 266.645 174.913 260.595L175.276 260.685L181.39 262.227C181.39 262.227 181.252 264.678 181.247 266.989C181.244 268.926 181.336 270.768 181.685 270.975Z" fill="#FFB27D"/>
    <path d="M181.39 262.227C181.39 262.227 181.252 264.678 181.247 266.989C177.825 266.865 176.018 262.889 175.276 260.685L181.39 262.227Z" fill="#ED975D"/>
    <path d="M174.645 259.839C174.645 259.839 172.851 256.227 172.421 253.139C172.114 250.94 172.994 242.77 179.437 243.947C179.437 243.947 181.308 244.182 183.068 245.696C184.467 246.897 186.486 249.498 184.227 256.623L183.641 259.03L174.645 259.839Z" fill="#B5453C"/>
    <path d="M182.533 264.414C182.533 264.414 174.437 264.584 174.432 258.159C174.426 251.736 173.377 247.431 178.547 247.052C183.714 246.67 184.72 249.121 185.133 251.262C185.546 253.407 184.64 264.205 182.533 264.414Z" fill="#FFB27D"/>
    <path d="M182.234 246.895C182.234 246.895 180.017 254.43 176.615 255.544C173.214 256.659 171.737 255.498 171.737 255.498C171.737 255.498 174.347 252.859 174.888 248.25C174.888 248.25 180.561 243.306 182.234 246.895Z" fill="#B5453C"/>
    <path d="M181.685 247.506C181.685 247.506 183.339 249.188 183.743 250.824C184.146 252.461 184.329 255.827 185.1 255.712C185.1 255.712 186.769 250.59 184.891 247.693C182.901 244.617 181.685 247.506 181.685 247.506Z" fill="#B5453C"/>
    <path d="M163.656 298.72C162.858 294.455 165.574 286.178 168.409 279.325C170.982 273.114 173.653 268.076 173.893 268.256C180.678 273.388 181.292 269.123 181.292 269.123C181.295 269.123 187.455 270.164 189.2 273.992C191.364 278.739 193.704 292.01 196.028 294.522C195.671 295.913 195.824 296.652 196.202 298.376C196.282 298.745 196.373 299.097 196.472 299.428C196.822 300.641 197.258 301.628 197.637 302.478C196.455 303.396 194.176 305.132 192.495 303.884C189.935 301.973 187.935 296.16 186.81 293.845C186.805 293.837 186.804 293.828 186.799 293.82C184.355 311.448 187.679 315.462 185.995 317.318C184.219 319.283 181.68 316.386 176.095 319.47C172.431 321.495 167.348 324.42 163.926 324.931C162.132 325.199 160.792 324.799 160.356 323.257C159.087 318.768 165.179 306.852 163.656 298.72Z" fill="#1C468A"/>
    <path d="M180.734 260.52C180.734 260.52 180.885 261.335 182.479 261.209C182.479 261.209 183.817 261.106 183.776 260.207C183.776 260.207 182.477 259.571 180.734 260.52Z" fill="white"/>
    <path d="M160.356 323.257C160.792 324.799 162.132 325.199 163.926 324.931C166.296 323.615 176.526 318.565 176.412 315.144C176.241 310.078 174.446 309.917 175.714 303.664C176.733 298.644 167.279 289.31 165.771 287.278C162.936 294.13 162.858 294.455 163.656 298.72C165.179 306.852 159.087 318.768 160.356 323.257Z" fill="#163560"/>
    <path d="M159.199 304.983C161.014 301.739 162.904 300.023 164.148 299.16C163.861 298.219 171.78 285.853 171.78 283.938C171.78 281.996 173.893 268.256 173.893 268.256C173.893 268.256 167.296 268.776 165.01 272.835C162.153 277.909 156.22 297.442 159.199 304.983Z" fill="#1C468A"/>
    <path d="M164.148 299.16L177.333 303.542L176.095 306.372C176.095 306.372 160.05 306.23 159.199 304.983C158.349 303.741 164.148 299.16 164.148 299.16Z" fill="#FFB27D"/>
    <path d="M186.81 293.845C187.935 296.16 189.935 301.973 192.495 303.884C194.176 305.132 196.455 303.396 197.637 302.478C197.258 301.628 196.822 300.641 196.471 299.428C195.528 299.704 194.38 300.054 193.636 300.339C192.193 300.894 186.81 293.845 186.81 293.845Z" fill="#163560"/>
    <path d="M177.333 303.542C177.333 303.542 181.472 302.049 182.459 302.398C183.444 302.746 186.823 305.599 186.35 306.372C185.875 307.145 182.898 305.909 181.528 306.144C180.158 306.379 179.099 307.238 178.113 307.051C177.126 306.867 176.095 306.372 176.095 306.372L177.333 303.542Z" fill="#FFB27D"/>
    <path d="M177.333 303.542C177.333 303.542 179.358 302.216 179.935 301.462C180.007 301.368 180.131 301.387 180.186 301.498C180.341 301.808 180.484 302.409 179.774 303.004C178.751 303.861 177.333 303.542 177.333 303.542Z" fill="#FFB27D"/>
    <path d="M196.467 310.964H177.149C177.149 309.881 177.84 309.001 178.69 309.001H196.467V310.964Z" fill="#ED7D2B"/>
    <path d="M196.412 284.16H226.277L219.114 310.964H189.053L196.412 284.16Z" fill="#ED7D2B"/>
    <path d="M226.718 284.165L219.553 310.962H189.494L196.85 284.165H226.718Z" fill="#F99746"/>
    <path d="M210.615 297.314C210.43 298.339 209.627 299.168 208.825 299.168C208.019 299.168 207.519 298.339 207.703 297.314C207.891 296.292 208.693 295.46 209.496 295.46C210.3 295.46 210.801 296.292 210.615 297.314Z" fill="#F9DDBF"/>
    <path d="M226.718 284.165L219.553 310.962H199.645C212.832 305.231 216.343 287.747 216.932 284.165H226.718Z" fill="#ED893E"/>
    <path d="M140.013 392.966C140.391 392.966 140.714 392.629 140.778 392.164L144.529 365.081L149.925 326.125L151.433 315.236L147.59 315.095L146.924 321.42L142.242 365.857L139.467 392.196C139.424 392.604 139.68 392.966 140.013 392.966Z" fill="#95C0F4"/>
    <path d="M146.924 321.42C149.414 322.819 149.925 326.125 149.925 326.125L151.433 315.236L147.591 315.095L146.924 321.42Z" fill="#78ACEA"/>
    <path d="M235.598 392.966C235.221 392.966 234.899 392.629 234.833 392.164L231.084 365.081L225.687 326.125L224.179 315.236L228.02 315.095L228.686 321.42L233.37 365.857L236.144 392.196C236.188 392.604 235.932 392.966 235.598 392.966Z" fill="#95C0F4"/>
    <path d="M228.686 321.42C226.198 322.819 225.687 326.125 225.687 326.125L224.179 315.236L228.02 315.095L228.686 321.42Z" fill="#78ACEA"/>
    <path d="M137.449 319.511H235.861C237.15 319.511 238.205 318.169 238.205 316.526V313.945C238.205 312.303 237.15 310.958 235.861 310.958H137.449C136.16 310.958 135.105 312.303 135.105 313.945V316.526C135.105 318.169 136.16 319.511 137.449 319.511Z" fill="#78ACEA"/>
    <path d="M579.278 392.707H0.68132C0.319977 392.707 0.0244141 392.332 0.0244141 391.871V391.584C0.0244141 391.125 0.319977 390.748 0.68132 390.748H579.278C579.64 390.748 579.936 391.125 579.936 391.584V391.871C579.936 392.332 579.64 392.707 579.278 392.707Z" fill="#2E3552"/>
    <path d="M381.891 306.4C381.891 306.4 379.337 310.434 380.138 310.983C380.934 311.534 383.042 312.563 383.54 311.913C384.038 311.266 384.193 306.513 384.193 306.513L381.891 306.4Z" fill="#FFB27D"/>
    <path d="M381.994 306.467C381.994 306.467 380.95 306.928 380.541 307.621C380.131 308.31 379.223 309.366 379.444 309.657C379.667 309.95 380.97 308.66 380.97 308.66L381.994 306.467Z" fill="#FFB27D"/>
    <path d="M391.54 252.54C391.54 252.54 388.664 286.664 388.408 287.636C388.353 287.845 388.126 288.926 387.809 290.479C387.355 292.699 386.715 295.89 386.107 298.923C385.193 303.505 384.354 307.732 384.354 307.732L381.854 306.682C381.854 306.682 381.725 290.099 382.368 286.28C383.012 282.463 385.066 259.001 386.105 255.844C387.14 252.687 391.54 252.54 391.54 252.54Z" fill="#AEC3FF"/>
    <path d="M385.558 334.368L369.865 329.125C367.824 328.442 366.589 325.754 367.123 323.155L368.909 314.49C369.444 311.888 371.554 310.317 373.596 311L389.289 316.243C391.333 316.924 392.565 319.612 392.03 322.216L390.244 330.876C389.71 333.48 387.6 335.049 385.558 334.368Z" fill="#A02E2E"/>
    <path d="M385.184 314.846L379.579 312.973L379.963 311.105C380.029 310.782 380.291 310.589 380.542 310.673L381.95 311.142L384.533 312.006L385.231 312.238C385.278 312.255 385.321 312.28 385.362 312.311C385.533 312.448 385.624 312.716 385.571 312.978L385.184 314.846ZM370.978 315.177L369.174 323.938C368.825 325.637 369.225 327.369 370.11 328.561C370.402 328.957 370.748 329.297 371.141 329.55C371.141 329.55 371.141 329.55 371.142 329.55V329.552C371.386 329.712 371.647 329.841 371.925 329.934L387.59 335.167C389.639 335.852 391.757 334.276 392.295 331.664L394.099 322.899C394.637 320.289 393.4 317.591 391.35 316.906L385.956 315.104L386.341 313.235C386.52 312.37 386.11 311.484 385.433 311.258L384.842 311.059L381.56 309.965L380.744 309.691C380.417 309.582 380.075 309.643 379.782 309.86C379.488 310.078 379.278 310.43 379.192 310.847L378.809 312.716L375.684 311.67C375.559 311.628 375.436 311.599 375.313 311.574H375.311H375.31C374.055 311.316 372.81 311.884 371.956 312.986V312.99C371.498 313.579 371.154 314.323 370.978 315.177Z" fill="#BC3F3F"/>
    <path d="M383.382 312.003C383.382 312.003 384.079 310.51 383.818 309.986C383.558 309.464 382.617 311.536 382.617 311.536C382.617 311.536 383.259 309.758 383.02 309.464C382.779 309.171 381.795 311.216 381.795 311.216C381.795 311.216 382.409 309.488 382.193 309.429C381.979 309.37 381.249 310.883 381.249 310.883C381.249 310.883 381.628 309.588 381.282 309.651C380.935 309.714 380.185 310.891 380.185 310.891L383.382 312.003Z" fill="#FFB27D"/>
    <path d="M387.809 290.479C387.355 292.699 386.715 295.89 386.107 298.923C385.717 297.522 385.219 295.288 384.907 292.228C384.328 286.582 386.105 274.549 386.105 274.549L387.809 290.479Z" fill="#9DB0F4"/>
    <path d="M420.726 304.996C420.726 304.996 423.509 307.874 423.854 308.775C424.196 309.674 425.061 313.003 425.015 314.075C424.969 315.152 422.884 311.62 422.27 311.335C421.659 311.05 422.91 312.785 422.77 313.158C422.63 313.529 421.323 312.314 420.825 311.918C420.328 311.52 419.98 308.828 419.236 307.361C418.495 305.897 420.726 304.996 420.726 304.996Z" fill="#FFB27D"/>
    <path d="M384.219 391.205H398.09C399.083 390.346 397.822 381.954 397.822 381.954C397.822 381.954 394.037 380.121 393.382 383.843C392.728 387.562 388.561 388.743 386.355 389.198C384.847 389.512 384.369 390.568 384.219 391.205Z" fill="#3E3EF4"/>
    <path d="M404.791 391.205H418.664C419.657 390.346 418.394 381.954 418.394 381.954C418.394 381.954 414.609 380.121 413.954 383.843C413.298 387.562 409.133 388.743 406.929 389.198C405.418 389.512 404.943 390.568 404.791 391.205Z" fill="#3E3EF4"/>
    <path d="M387.952 305.568C387.952 305.568 388.574 315.479 389.307 327.39C390.302 343.571 392.991 383.69 392.991 383.69C392.991 383.69 394.75 385.603 398.651 384.556C398.651 384.556 401.971 370.717 402.964 354.921C402.979 354.662 402.996 354.402 403.01 354.138C403.936 338.058 405.372 304.196 405.372 304.196L387.952 305.568Z" fill="#2B478B"/>
    <path d="M387.738 302.143C387.738 302.143 388.574 315.479 389.307 327.39L402.964 354.921C402.979 354.662 402.996 354.402 403.01 354.138C403.936 338.058 405.372 304.196 405.372 304.196L387.738 302.143Z" fill="#3E3EF4"/>
    <path d="M391.718 302.143C391.718 302.143 401.624 333.556 404.791 345.463C407.048 353.943 413.408 383.697 413.408 383.697C413.408 383.697 416.174 384.769 418.5 382.695C418.5 382.695 420.868 352.299 416.085 343.726C413.548 339.178 415.456 296.457 405.173 296.091C394.887 295.724 391.718 302.143 391.718 302.143Z" fill="#2B478B"/>
    <path d="M410.595 304.996C406.465 307.965 388.769 307.897 387.952 305.568C386.12 300.364 385.66 273.927 386.525 265.818C386.525 265.818 386.972 253.355 387.952 253.906C394.485 250.079 405.064 253.554 405.064 253.554C407.917 254.623 407.674 262.927 408.47 274.589C408.57 276.091 408.685 277.656 408.812 279.275C409.376 286.477 410.195 294.748 411.438 303.473C411.522 304.049 411.208 304.556 410.595 304.996Z" fill="#AEC3FF"/>
    <path d="M400.177 252.151C400.068 254.38 397.786 254.128 395.043 253.33C392.3 252.534 393.293 250.473 393.293 250.473C393.293 250.473 393.333 248.889 393.505 246.989C393.57 246.3 393.648 245.564 393.754 244.852C393.801 244.506 393.854 244.161 393.915 243.83C394.275 241.867 399.398 243.761 399.361 244.288C399.261 245.713 400.07 250.399 400.177 252.151Z" fill="#FFB27D"/>
    <path d="M394.296 256.043L394.079 252.961L397.117 253.692L395.947 256.441L394.296 256.043Z" fill="#9333EA"/>
    <path d="M393.356 249.023L391.54 252.54C391.54 252.54 391.54 254.702 393.117 256.271L395.599 253.328C395.599 253.328 393.994 252.549 393.356 249.023Z" fill="#9DB0F4"/>
    <path d="M395.599 253.328C395.599 253.328 396.112 255.678 397.105 256.757C397.105 256.757 400.983 255.431 401.905 252.901L399.888 249.582C399.888 249.582 399.789 252.092 395.599 253.328Z" fill="#9DB0F4"/>
    <path d="M399.391 245.397C399.391 245.397 396.924 247.487 393.505 246.989C393.57 246.3 393.648 245.564 393.754 244.852C394.426 244.647 394.992 244.515 394.992 244.515L399.391 245.397Z" fill="#E2915A"/>
    <path d="M400.956 243.023C399.749 247.249 395.349 246.172 393.477 245.493C392.948 245.302 392.622 245.143 392.622 245.143C392.044 244.808 391.863 243.52 391.915 241.894C392.014 238.676 393.012 234.135 393.584 233.041C394.446 231.392 395.882 229.719 400.151 232.052C404.42 234.384 402.502 237.608 400.956 243.023Z" fill="#FFB27D"/>
    <path d="M404.252 240.853C402.905 242.252 400.011 244.842 400.011 244.842C400.011 244.842 400.333 244.356 400.726 242.958C400.772 242.799 400.785 242.569 400.779 242.321C400.762 241.638 400.892 240.953 401.175 240.369C401.351 240.004 401.414 239.627 401.193 239.359C400.827 238.917 400.202 239.322 399.792 239.68C399.522 239.914 399.169 239.929 398.891 239.711C398.888 239.707 398.886 239.707 398.884 239.705C397.735 238.785 399.004 237.168 398.07 235.825C397.131 234.482 393.084 234.298 393.247 233.456C391.866 232.463 392.736 228.793 392.762 228.596C392.762 228.596 394.744 228.82 397.222 228.032C399.233 227.389 401.45 229.036 402.149 229.71C402.149 229.549 402.129 229.325 402.037 229.086C402.037 229.086 402.341 229.467 402.338 229.915C402.367 229.953 402.381 229.983 402.372 229.991C402.372 229.991 402.772 229.978 403.005 230.177C403.005 230.177 402.834 230.108 402.754 230.238C402.742 230.253 402.732 230.261 402.719 230.272C405.41 232.693 405.37 239.688 404.252 240.853Z" fill="#9333EA"/>
    <path d="M394.592 242.411C394.592 242.411 394.375 242.946 393.288 242.504C393.288 242.504 392.374 242.133 392.525 241.517C392.525 241.517 393.512 241.364 394.592 242.411Z" fill="white"/>
    <path d="M394.296 256.043C394.296 256.043 391.872 295.058 391.907 298.309C391.94 301.56 394.592 304.996 394.592 304.996C394.592 304.996 396.704 302.049 397.117 298.94C397.529 295.831 395.947 256.441 395.947 256.441L394.296 256.043Z" fill="#663295"/>
    <path d="M405.068 253.554C405.068 253.554 408.978 254.746 412.073 262.315C415.166 269.886 417.608 285.153 419.085 289.18C420.562 293.21 421.575 305.901 421.575 305.901L419.236 307.361C419.236 307.361 413.592 294.356 412.757 290.091C412.305 287.785 405.403 269.312 405.403 269.312L405.068 253.554Z" fill="#AEC3FF"/>
    <path d="M410.595 304.996C410.595 304.996 410.595 304.996 410.593 304.996C403.226 303.647 405.337 272.586 405.913 272.463C406.492 272.341 408.61 278.016 408.61 278.016L408.812 279.275C409.376 286.477 410.195 294.748 411.438 303.473C411.522 304.049 411.208 304.556 410.595 304.996Z" fill="#9DB0F4"/>
    <path d="M502.508 372.845C502.508 372.845 505.577 376.411 504.978 378.945C504.38 381.478 501.61 383.169 501.237 386.265C500.862 389.361 499.367 391.05 498.021 391.05C496.674 391.05 491.601 391.05 491.601 391.05C491.601 391.05 490.609 388.871 493.002 388.215C495.396 387.56 496.299 383.919 496.151 380.54C496.001 377.163 496.374 372.657 496.374 372.657L501.461 371.157L502.508 372.845Z" fill="#3E3EF4"/>
    <path d="M464.88 382.067C464.88 382.067 465.429 390.184 464.081 391.029L446.85 390.983C446.85 390.983 446.85 388.45 449.616 387.886C452.385 387.325 457.246 385.259 458.072 380.659C458.894 376.063 464.88 382.067 464.88 382.067Z" fill="#3E3EF4"/>
    <path d="M450.33 267.433C450.33 267.433 451.237 281.659 452.306 298.758C453.758 321.986 455.503 350.518 455.677 355.923C455.975 365.308 457.174 380.322 457.174 380.322C457.174 380.322 460.015 383.889 465.702 382.385C465.702 382.385 470.77 360.955 472.217 338.275C472.24 337.905 472.262 337.53 472.286 337.157C473.632 314.071 475.727 265.461 475.727 265.461L450.33 267.433Z" fill="#663295"/>
    <path d="M450.33 267.433C450.33 267.433 451.237 281.659 452.306 298.758L472.217 338.275C472.24 337.905 472.262 337.53 472.286 337.157C473.632 314.071 475.727 265.461 475.727 265.461L450.33 267.433Z" fill="#3E3EF4"/>
    <path d="M454.48 269.123C454.48 269.123 470.862 320.641 481.635 344.851C492.41 369.062 495.776 375.82 495.776 375.82C495.776 375.82 501.947 372.722 502.508 370.61C502.508 370.61 498.389 323.869 491.175 312.475C487.1 306.037 483.582 291.752 483.758 284.994C484.062 273.338 480.627 259.83 480.627 259.83L454.48 269.123Z" fill="#663295"/>
    <path d="M441.397 269.88C441.397 269.88 438.338 275.157 438.111 276.564C437.886 277.972 437.623 283 437.99 284.47C438.355 285.943 440.262 280.08 441.035 279.405C441.806 278.728 440.552 281.711 440.853 282.164C441.154 282.619 442.627 280.331 443.207 279.552C443.788 278.77 443.515 274.865 444.135 272.488C444.753 270.112 441.397 269.88 441.397 269.88Z" fill="#FFB27D"/>
    <path d="M454.888 193.196C454.888 193.196 450.754 242.219 450.386 243.616C450.305 243.92 449.981 245.472 449.524 247.705C448.873 250.892 447.955 255.475 447.082 259.83C445.766 266.413 444.345 272.106 444.345 272.106C444.345 272.106 443.721 272.62 442.216 272.454C441.188 272.343 440.634 271.227 440.634 271.227C440.634 271.227 440.785 247.156 441.708 241.672C442.634 236.183 445.584 202.48 447.077 197.944C448.567 193.408 454.888 193.196 454.888 193.196Z" fill="white"/>
    <path d="M449.524 247.705C448.873 250.892 447.955 255.475 447.082 259.83C446.521 257.815 445.806 254.61 445.353 250.215C444.523 242.101 447.077 224.821 447.077 224.821L449.524 247.705Z" fill="#DCEAFF"/>
    <path d="M482.26 268.558C476.327 272.821 450.905 272.727 449.728 269.379C447.1 261.904 446.439 223.924 447.68 212.272C447.68 212.272 448.323 194.369 449.728 195.157C459.119 189.662 474.316 194.654 474.316 194.654C478.414 196.19 478.063 208.12 479.206 224.873C479.353 227.029 479.517 229.281 479.7 231.604C480.509 241.951 481.686 253.835 483.472 266.371C483.594 267.196 483.141 267.927 482.26 268.558Z" fill="white"/>
    <path d="M467.295 192.64C467.138 195.841 463.86 195.478 459.915 194.332C455.975 193.19 457.402 190.226 457.402 190.226C457.402 190.226 457.46 187.95 457.71 185.224C457.799 184.235 457.914 183.179 458.062 182.157C458.133 181.654 458.21 181.163 458.299 180.685C458.815 177.867 466.172 180.587 466.12 181.344C465.978 183.391 467.139 190.123 467.295 192.64Z" fill="#FFB27D"/>
    <path d="M458.845 198.229L458.534 193.805L462.897 194.852L461.218 198.804L458.845 198.229Z" fill="#9333EA"/>
    <path d="M457.495 188.143L454.888 193.196C454.888 193.196 454.888 196.305 457.151 198.559L460.716 194.33C460.716 194.33 458.411 193.21 457.495 188.143Z" fill="#DCEAFF"/>
    <path d="M460.716 194.33C460.716 194.33 461.454 197.707 462.882 199.257C462.882 199.257 468.448 197.349 469.777 193.718L466.876 188.947C466.876 188.947 466.736 192.556 460.716 194.33Z" fill="#DCEAFF"/>
    <path d="M466.162 182.936C466.162 182.936 462.619 185.936 457.71 185.224C457.799 184.235 457.914 183.179 458.062 182.157C459.032 181.855 459.843 181.668 459.843 181.668L466.162 182.936Z" fill="#E2915A"/>
    <path d="M468.412 179.526C466.679 185.598 460.358 184.048 457.667 183.073C456.909 182.799 456.44 182.57 456.44 182.57C455.608 182.09 455.35 180.241 455.424 177.906C455.567 173.283 457.001 166.755 457.822 165.183C459.06 162.817 461.124 160.412 467.254 163.761C473.387 167.113 470.632 171.744 468.412 179.526Z" fill="#FFB27D"/>
    <path d="M473.148 176.406C471.211 178.417 467.054 182.137 467.054 182.137C467.054 182.137 467.517 181.442 468.083 179.434C468.146 179.207 468.165 178.872 468.157 178.52C468.136 177.534 468.322 176.554 468.728 175.713C468.979 175.191 469.072 174.646 468.751 174.261C468.225 173.627 467.328 174.21 466.741 174.724C466.353 175.062 465.843 175.082 465.445 174.766C465.442 174.763 465.441 174.761 465.436 174.758C463.783 173.44 465.61 171.116 464.265 169.185C462.92 167.258 457.105 166.993 457.338 165.783C455.352 164.353 456.605 159.08 456.639 158.8C456.639 158.8 459.489 159.122 463.046 157.99C465.936 157.066 469.119 159.429 470.129 160.404C470.129 160.169 470.098 159.845 469.966 159.504C469.966 159.504 470.405 160.055 470.395 160.697C470.44 160.753 470.459 160.792 470.446 160.8C470.446 160.8 471.02 160.786 471.356 161.071C471.356 161.071 471.111 160.971 470.994 161.158C470.979 161.18 470.964 161.194 470.945 161.208C474.809 164.686 474.753 174.736 473.148 176.406Z" fill="#BC3F3F"/>
    <path d="M459.271 178.649C459.271 178.649 458.96 179.411 457.396 178.777C457.396 178.777 456.085 178.247 456.302 177.364C456.302 177.364 457.718 177.143 459.271 178.649Z" fill="white"/>
    <path d="M458.845 198.229C458.845 198.229 455.363 254.279 455.411 258.951C455.46 263.62 459.271 268.558 459.271 268.558C459.271 268.558 462.305 264.324 462.897 259.858C463.492 255.389 461.218 198.804 461.218 198.804L458.845 198.229Z" fill="#663295"/>
    <path d="M482.26 268.558C482.258 268.558 482.258 268.558 482.255 268.558C471.671 266.618 474.704 221.997 475.536 221.821C476.366 221.645 479.41 229.798 479.41 229.798L479.7 231.604C480.509 241.951 481.686 253.835 483.472 266.371C483.594 267.196 483.141 267.927 482.26 268.558Z" fill="#DCEAFF"/>
    <path d="M513.372 301.797L490.99 310.093C488.08 311.172 485.003 309.02 484.154 305.308L481.333 292.955C480.486 289.245 482.175 285.325 485.089 284.244L507.466 275.948C510.38 274.867 513.457 277.021 514.302 280.731L517.127 293.085C517.973 296.797 516.286 300.716 513.372 301.797Z" fill="#A02E2E"/>
    <path d="M501.599 278.085L493.605 281.052L492.995 278.385C492.891 277.926 493.1 277.444 493.46 277.31L495.468 276.566L499.15 275.198L500.145 274.832C500.213 274.807 500.282 274.796 500.347 274.798C500.638 274.805 500.903 275.05 500.989 275.421L501.599 278.085ZM484.281 291.853L487.136 304.351C487.688 306.768 489.187 308.528 490.967 309.169C491.559 309.381 492.179 309.471 492.811 309.416C492.813 309.416 492.813 309.416 492.813 309.416H492.816C493.207 309.383 493.605 309.299 494 309.152L516.338 300.869C519.262 299.786 520.957 295.854 520.107 292.127L517.252 279.631C516.401 275.904 513.314 273.745 510.388 274.83L502.697 277.681L502.091 275.014C501.809 273.782 500.791 273.072 499.824 273.43L498.981 273.743L494.302 275.477L493.14 275.911C492.674 276.08 492.286 276.481 492.049 277.025C491.816 277.57 491.76 278.2 491.897 278.793L492.507 281.46L488.049 283.111C487.873 283.176 487.702 283.251 487.535 283.337L487.534 283.339H487.531C485.837 284.206 484.63 286.075 484.219 288.237V288.239C483.997 289.396 484.003 290.634 484.281 291.853Z" fill="#BC3F3F"/>
    <path d="M494.894 270.108C494.894 270.108 494.2 277.499 495.501 277.394C496.802 277.287 499.986 276.493 500.203 275.219C500.42 273.946 497.764 268.009 497.764 268.009L494.894 270.108Z" fill="#FFB27D"/>
    <path d="M495.06 270.089C495.06 270.089 494.066 271.664 493.98 272.905C493.895 274.145 493.418 276.313 493.865 276.451C494.311 276.592 495.126 273.753 495.126 273.753L495.06 270.089Z" fill="#FFB27D"/>
    <path d="M474.319 194.654C474.319 194.654 479.938 196.369 484.383 207.243C488.825 218.117 492.336 240.048 494.457 245.839C496.578 251.627 498.193 268.998 498.193 268.998C498.193 268.998 497.863 269.861 496.718 270.175C495.832 270.418 494.921 270.324 494.921 270.324C494.921 270.324 486.564 253.271 485.365 247.146C484.715 243.83 474.799 217.296 474.799 217.296L474.319 194.654Z" fill="white"/>
    <path d="M104.145 383.975L103.303 376.247L106.84 372.481L107.955 382.712L104.145 383.975Z" fill="#FFB27D"/>
    <path d="M115.893 390.878H101.47C101.47 390.878 101.124 388.075 101.878 385.953C102.6 383.914 103.723 382.653 103.825 381.093C104.742 382.297 105.869 383.07 107.954 382.712C108.21 383.24 109.604 386.064 110.457 386.843C111.4 387.706 115.602 387.4 115.893 390.878Z" fill="#3E3EF4"/>
    <path d="M112.995 279.633C112.051 289.297 111.28 298.412 110.652 306.902C107.296 352.156 107.954 379.813 107.954 379.813C107.954 379.813 107.712 380.632 105.631 380.642C104.455 380.651 103.303 380.324 103.303 380.324C103.303 380.324 95.7875 350.776 96.3676 333.96C96.4367 331.938 96.623 330.101 96.954 328.517C98.7569 319.914 90.2826 287.014 99.4944 274.759C108.705 262.508 113.429 275.198 112.995 279.633Z" fill="#F99746"/>
    <path d="M112.995 279.633C112.051 289.297 111.28 298.412 110.652 306.902L96.3676 333.96C96.4367 331.938 96.623 330.101 96.954 328.517C98.7569 319.914 90.2826 287.014 99.4944 274.759C108.705 262.508 113.429 275.198 112.995 279.633Z" fill="#ED7D2B"/>
    <path d="M124.346 187.439C124.346 187.439 123.998 185.23 123.607 183.545C123.434 182.799 124.641 177.9 125.476 177.3C126.312 176.696 128.488 179.995 127.872 182.526C127.556 183.827 127.036 188.062 127.036 188.062L124.346 187.439Z" fill="#FFB27D"/>
    <path d="M124.346 187.439C124.346 187.439 123.892 186.157 123.481 185.95C123.071 185.743 122.632 183.649 122.331 182.819C122.331 182.819 122.621 182.277 123.13 182.975C123.441 183.4 124.133 184.651 124.133 184.651L124.346 187.439Z" fill="#FFB27D"/>
    <path d="M64.8075 194.866C64.7192 195.098 64.5962 195.514 64.4869 195.905C64.4851 195.799 64.4837 195.693 64.4829 195.589C64.4772 194.813 62.1973 190.578 61.2601 190.313C60.3226 190.048 58.9997 194.014 60.1705 196.207C60.7719 197.332 62.2414 201.187 62.2414 201.187L64.6707 199.589C64.6707 199.589 64.8108 198.195 65.1553 197.843C65.4999 197.492 65.4393 195.327 65.5364 194.419C65.5364 194.419 65.1336 194.008 64.8075 194.866Z" fill="#FFB27D"/>
    <path d="M79.9569 381.656C79.753 379.182 79.7027 372.665 79.7027 372.665C79.7027 372.665 84.9146 370.543 84.7229 372.001C83.7798 379.165 84.0358 382.712 84.0358 382.712L81.9281 384.317L79.9569 381.656Z" fill="#FFB27D"/>
    <path d="M108.642 279.172C108.642 279.172 88.5067 349.485 84.543 379.984C84.543 379.984 83.6248 380.789 81.9119 380.521C79.9693 380.219 79.437 378.497 79.437 378.497C79.437 378.497 75.7994 341.943 83.0293 329.255C87.9964 320.534 80.8869 282.241 92.4558 279.172C104.025 276.103 108.642 279.172 108.642 279.172Z" fill="#F99746"/>
    <path d="M105.066 211.535C105.065 211.533 105.065 211.533 105.065 211.533C105.062 211.501 105.056 211.474 105.049 211.443C104.931 210.823 104.802 210.215 104.664 209.612C104.664 209.608 104.664 209.608 104.664 209.608C104.242 207.759 103.741 206 103.2 204.444C102.888 203.553 102.566 202.726 102.236 201.991C102.185 201.877 102.136 201.773 102.089 201.665L102.086 201.662C101.308 199.994 100.508 198.843 99.7865 198.489C98.4701 197.841 97.0057 198.019 95.9975 198.288C96.2187 197.894 96.7206 197.673 96.7206 197.673C96.0753 197.67 94.7613 198.734 94.7613 198.734C85.4874 196.092 86.0294 212.804 86.6609 216.592C87.2902 220.38 84.3042 222.219 80.0934 226.097C72.0573 233.489 72.1917 241.33 72.1917 241.33C72.2642 241.37 72.3435 241.414 72.4253 241.467C72.7488 240.453 73.4347 238.532 74.1537 238.127C74.1333 238.215 73.5485 240.704 73.3824 242.095C74.6066 242.956 76.3007 244.286 78.14 245.788C78.14 245.788 78.14 245.788 78.1425 245.791C80.6036 247.797 83.32 250.106 85.4968 251.981C85.3934 251.218 85.2909 250.129 85.4432 249.515L86.1367 252.251L86.2276 252.609C87.6168 253.808 88.713 254.769 89.2695 255.259C89.3264 255.31 89.3771 255.356 89.4225 255.393C89.5853 255.534 89.6722 255.611 89.6722 255.611C89.4874 254.646 90.2983 252.123 91.6589 248.945C91.7522 248.723 91.851 248.497 91.952 248.269C92.3914 247.263 92.8817 246.205 93.4098 245.112C93.5999 244.718 93.7921 244.324 93.9917 243.922C93.9914 243.92 93.9934 243.92 93.9934 243.92C94.1531 243.595 94.3147 243.275 94.482 242.948L94.4834 242.946C94.8779 242.168 95.2858 241.387 95.702 240.604C96.7798 238.576 97.921 236.563 99.0489 234.717C100.687 232.027 102.294 229.689 103.639 228.158C103.683 228.043 103.725 227.925 103.762 227.806C103.973 227.184 104.135 226.49 104.26 225.784C104.299 225.575 104.334 225.359 104.364 225.148C104.699 222.898 104.706 220.667 104.702 220.139C104.809 222.309 104.767 223.949 104.652 225.185C104.626 225.46 104.598 225.711 104.566 225.946H104.566C104.495 226.476 104.412 226.911 104.323 227.276C104.543 226.926 104.737 226.547 104.908 226.128C105.02 225.856 105.122 225.569 105.213 225.269C106.298 221.739 106.006 216.475 105.066 211.535Z" fill="#163560"/>
    <path d="M103.323 228.468C103.354 228.478 100.727 230.9 98.4982 230.561C96.4018 230.242 94.697 227.163 94.724 227.152C95.552 226.775 95.6234 225.233 94.8561 218.821L95.253 218.842L101.929 219.25C101.929 219.25 102.085 221.879 102.367 224.328C102.602 226.383 102.928 228.317 103.323 228.468Z" fill="#FFB27D"/>
    <path d="M101.929 219.25C101.929 219.25 102.085 221.88 102.367 224.328C98.7225 224.884 96.3119 221.033 95.2531 218.842L101.929 219.25Z" fill="#ED975D"/>
    <path d="M94.4782 218.071C94.4782 218.071 92.1297 214.602 91.291 211.416C90.6923 209.142 90.615 200.304 97.5934 200.257C97.5934 200.257 99.6072 200.128 101.66 201.38C103.292 202.377 105.755 204.726 104.244 212.737L103.92 215.411L94.4782 218.071Z" fill="#163560"/>
    <path d="M113.836 277.823C113.836 277.823 105.149 284.399 94.2417 281.018C94.1131 280.976 85.2605 279.179 85.2605 279.179C85.4124 278.647 86.5565 269.936 86.7063 269.45C88.6413 263.086 92.1777 228.562 95.1325 226.859C95.887 227.906 98.0432 228.621 99.8888 228.416C102.014 228.175 102.725 227.004 102.549 225.747C104.901 227.163 106.708 228.478 106.708 228.478C108.857 232.582 113.836 277.823 113.836 277.823Z" fill="white"/>
    <path d="M103.412 221.339C103.412 221.339 94.8469 223.147 94.0453 216.334C93.244 209.524 91.5989 205.17 97.0333 203.726C102.468 202.285 103.838 204.681 104.54 206.871C105.242 209.064 105.619 220.694 103.412 221.339Z" fill="#FFB27D"/>
    <path d="M100.924 202.818C100.924 202.818 99.5067 211.256 96.0369 213.123C92.5673 214.987 90.8587 214.053 90.8587 214.053C90.8587 214.053 93.2991 210.728 93.3025 205.731C93.3025 205.731 98.7067 199.352 100.924 202.818Z" fill="#163560"/>
    <path d="M100.417 203.578C100.417 203.578 102.381 205.03 103.012 206.684C103.642 208.337 104.252 211.874 105.055 211.598C105.055 211.598 106.192 205.829 103.842 203.131C101.351 200.274 100.417 203.578 100.417 203.578Z" fill="#163560"/>
    <path d="M127.095 187.595C126.746 187.439 126.233 187.07 125.564 186.992C124.967 186.925 124.218 187.174 124.218 187.174C124.218 187.174 121.801 206.307 121.622 207.321C121.443 208.335 111.257 222.952 108.511 222.893C106.032 222.839 103.094 225.277 102.549 225.747C102.549 225.747 108.324 241.303 108.612 244.224C108.925 247.404 111.914 296.367 111.914 296.367C111.914 296.367 111.736 298.644 115.077 297.421C118.418 296.193 119.254 295.184 119.254 295.184C119.254 295.184 116.185 256.634 115.541 244.649C115.455 243.04 115.248 241.548 114.955 240.174C114.672 238.85 114.895 237.434 115.53 236.326C119.753 228.937 126.423 216.971 126.795 214.426C127.341 210.689 127.095 187.595 127.095 187.595Z" fill="#2B478B"/>
    <path d="M91.9738 390.878H77.5513C77.5513 390.878 77.2054 388.075 77.9589 385.953C78.6807 383.914 79.8042 382.653 79.9066 381.093C80.8231 382.297 81.9507 383.07 84.0358 382.712C84.2914 383.24 85.6849 386.064 86.5384 386.843C87.4807 387.706 91.6836 387.4 91.9738 390.878Z" fill="#3E3EF4"/>
    <path d="M101.881 245.736C101.395 241.925 95.1892 226.624 95.1892 226.624C95.1892 226.624 91.2661 225.131 88.6838 226.323C86.1018 227.513 72.7421 217.903 72.3139 217.019C71.8856 216.135 64.73 199.151 64.73 199.151C64.73 199.151 64.1366 198.712 63.186 199.343C62.2455 199.966 62.2414 201.187 62.2414 201.187C62.2414 201.187 67.764 222.571 69.2331 225.881C70.1192 227.875 77.5679 234.822 83.3431 240.023C84.4457 241.014 85.0249 242.707 84.8436 244.412C84.0673 251.723 83.8695 255.844 82.9765 268.39C82.2355 278.802 81.952 298.957 81.952 298.957C81.952 298.957 88.4146 301.806 92.8748 302.183C97.3349 302.562 98.307 296.57 98.307 296.57C98.307 296.57 102.381 249.653 101.881 245.736Z" fill="#2B478B"/>
    <path d="M100.605 217.97C100.605 217.97 101.646 218.75 102.874 218.515C103.716 218.354 103.907 217.082 103.907 217.082C103.907 217.082 103.322 216.848 102.388 217.089C101.455 217.325 100.605 217.97 100.605 217.97Z" fill="white"/>
    <path d="M374.167 88.1164C374.167 88.1164 370.161 79.0441 374.167 77.1979C378.174 75.3515 379.988 77.0554 380.179 79.1195C380.369 81.1865 378.653 89.3315 378.653 89.3315L374.167 88.1164Z" fill="#FFB27D"/>
    <path d="M377.378 146.142C370.074 147.82 363.354 148.597 357.29 148.77C351.534 148.935 346.37 148.555 341.85 147.885C340.634 147.709 339.469 147.508 338.349 147.292C326.518 145.008 319.985 140.955 319.985 140.955C319.985 140.955 330.794 112.129 339.528 113.235C349.771 114.537 367.13 126.249 368.857 122.964C370.799 119.263 372.425 87.5269 372.425 87.5269C376.967 83.5661 379.679 87.7421 379.679 87.7421C379.679 87.7421 388.552 143.575 377.378 146.142Z" fill="#F99746"/>
    <path d="M377.378 146.142C370.074 147.82 363.354 148.597 357.29 148.77C351.534 148.935 346.37 148.555 341.85 147.885C339.125 136.843 337.165 125.565 342.646 132.366C352.315 144.357 377.378 146.142 377.378 146.142Z" fill="#ED7D2B"/>
    <path d="M319.164 378.874C319.164 378.874 318.388 390.335 320.289 391.525L344.624 391.464C344.624 391.464 344.624 387.886 340.713 387.09C336.806 386.296 329.939 383.38 328.778 376.888C327.615 370.394 319.164 378.874 319.164 378.874Z" fill="#3E3EF4"/>
    <path d="M337.03 240.189C336.91 247.68 336.627 255.408 336.074 262.355C333.445 295.314 332.522 335.139 332.146 342.817C331.49 356.145 329.424 377.437 329.424 377.437C329.424 377.437 325.325 382.394 317.333 380.028C317.333 380.028 310.712 349.361 309.232 317.071C309.211 316.539 309.189 316.007 309.166 315.475C308.995 311.205 308.816 306.324 308.632 301.06C307.415 265.801 306.093 213.427 306.093 213.427L336.627 204.293C336.627 204.293 337.331 221.507 337.03 240.189Z" fill="#6767E4"/>
    <path d="M337.03 240.189C329.291 257.195 314.54 288.532 308.632 301.06C307.415 265.801 306.093 213.427 306.093 213.427L336.627 204.293C336.627 204.293 337.331 221.507 337.03 240.189Z" fill="#3E3EF4"/>
    <path d="M259.712 207.24C259.712 207.24 254.744 214.684 254.297 216.747C253.85 218.813 253.054 226.247 253.482 228.483C253.906 230.716 257.211 222.25 258.412 221.347C259.614 220.442 257.51 224.714 257.922 225.426C258.331 226.138 260.704 222.935 261.628 221.848C262.554 220.765 262.462 214.927 263.574 211.474C264.685 208.022 259.712 207.24 259.712 207.24Z" fill="#FFB27D"/>
    <path d="M258.548 365.852C258.548 365.852 254.215 370.886 255.062 374.464C255.905 378.043 259.816 380.429 260.344 384.799C260.872 389.173 262.983 391.559 264.884 391.559C266.789 391.559 273.952 391.559 273.952 391.559C273.952 391.559 275.35 388.481 271.969 387.553C268.591 386.625 267.315 381.487 267.527 376.719C267.737 371.949 267.209 365.588 267.209 365.588L260.026 363.468L258.548 365.852Z" fill="#3E3EF4"/>
    <path d="M331.817 214.225C331.817 214.225 303.231 292.138 288.018 326.324C272.809 360.51 268.055 370.048 268.055 370.048C268.055 370.048 259.339 365.676 258.548 362.693C258.548 362.693 264.365 296.696 274.552 280.607C280.308 271.52 287.07 244.238 287.385 234.696C287.703 225.156 294.379 202.385 294.379 202.385L331.817 214.225Z" fill="#6767E4"/>
    <path d="M340.172 217.899C340.172 217.899 328.806 227.58 312.717 226.681C305.657 226.289 291.653 223.74 289.392 216.586C288.86 214.904 289.248 212.773 290.044 209.503C292.113 201 296.928 184.808 295.474 148.907C295.338 145.569 295.412 142.427 295.662 139.488C297.178 121.805 305.132 111.333 312.822 107.912C331.574 99.5599 337.824 111.129 337.824 111.129C337.824 111.129 346.112 119.495 347.362 136.952C349.86 171.873 340.172 217.899 340.172 217.899Z" fill="#F99746"/>
    <path d="M318.316 105.906C318.316 105.906 326.92 112.571 336.252 110.685C336.252 110.685 338.099 110.088 337.191 107.331C337.758 105.102 337.691 105.303 338.02 103.649C338.837 99.8394 339.087 97.641 339.087 97.641L333.792 90.5519L328.775 83.7758C327.39 99.9705 318.316 105.906 318.316 105.906Z" fill="#FFB27D"/>
    <path d="M327.972 89.9178C327.972 89.9178 330.853 99.7302 338.02 103.649C338.837 99.8392 339.37 95.8562 339.37 95.8562L333.792 90.5519L327.972 89.9178Z" fill="#ED985F"/>
    <path d="M345.028 97.3004C345.028 97.3004 328.607 99.9148 327.453 87.0577C326.3 74.2007 323.404 65.8799 333.84 63.6677C344.277 61.4527 346.758 66.0753 347.975 70.2513C349.192 74.4243 349.271 96.2892 345.028 97.3004Z" fill="#FFB27D"/>
    <path d="M322.268 61.5782C322.124 61.3549 321.789 61.1622 321.031 61.0727C321.031 61.0727 321.654 60.6175 322.467 60.6313C322.664 59.2906 323.299 56.9332 325.135 56.4416C325.135 56.4416 324.137 57.0589 323.97 58.4862C326.157 55.8299 330.735 54.0396 343.206 55.8998C359.644 58.3521 353.813 71.536 351.629 73.036C349.447 74.5359 344.206 69.8823 340.218 70.0918C336.231 70.3043 335.254 77.5861 333.877 78.5273C332.498 79.4658 333.081 77.7145 331.287 76.5776C329.492 75.438 329.205 79.2815 329.659 81.8121C330.11 84.3427 327.505 87.5269 327.505 87.5269C327.505 87.5269 327.505 87.5269 325.075 83.9264C322.642 80.3289 320.69 65.486 321.937 62.4024C322.046 62.1313 322.156 61.8548 322.268 61.5782Z" fill="#2C3A64"/>
    <path d="M372.425 82.097L344.545 82.4154L344.354 77.072L372.147 74.3264L372.425 82.097Z" fill="#3E3EF4"/>
    <path d="M393.473 82.9909L363.116 83.5496L362.769 73.8348L393.038 70.8462L393.473 82.9909Z" fill="#3E3EF4"/>
    <path d="M413.941 83.7534L388.342 83.7924L387.875 70.6784L413.369 67.7234L413.941 83.7534Z" fill="#3E3EF4"/>
    <path d="M414.306 85.9656C415.095 85.9208 415.707 85.069 415.671 84.0635L415.069 67.2149C415.035 66.2094 414.365 65.4301 413.576 65.4747C412.785 65.5223 412.175 66.3743 412.211 67.3798L412.811 84.2281C412.846 85.2337 413.517 86.013 414.306 85.9656Z" fill="#9333EA"/>
    <path d="M344.456 83.555C343.756 83.5942 343.16 82.9044 343.127 82.0105L342.973 77.6391C342.94 76.7425 343.483 75.9856 344.185 75.9437C344.889 75.9045 345.482 76.5973 345.514 77.4912L345.67 81.8624C345.703 82.7563 345.158 83.5131 344.456 83.555Z" fill="#663295"/>
    <path d="M290.044 209.503C292.113 201 296.928 184.808 295.474 148.907C295.338 145.569 295.412 142.427 295.662 139.488H295.665C301.835 138.812 311.269 147.309 311.269 147.309C311.269 147.309 305.46 192.43 290.044 209.503Z" fill="#ED7D2B"/>
    <path d="M318.316 105.906C318.316 105.906 302.493 109.37 294.239 122.204C285.986 135.039 272.71 153.136 269.573 159.474C266.433 165.811 257.719 208.941 257.719 208.941C257.719 208.941 258.297 210.326 260.699 211.133C263 211.908 264.667 210.71 264.667 210.71C264.667 210.71 276.211 185.54 280.558 172.965C282.361 167.741 313.583 147.052 325.32 149.198C329.929 150.038 318.316 105.906 318.316 105.906Z" fill="#F99746"/>
    <path d="M372.259 72.7957C372.259 72.7957 375.661 75.4493 377.699 74.3264C379.733 73.2036 379.554 72.1783 379.554 72.1783C379.554 72.1783 373.404 70.0026 372.259 72.7957Z" fill="#FFB27D"/>
    <path d="M333.672 119.964C333.672 119.964 326.727 175.817 277.458 192.078L272.09 205.567L281.518 207.6C281.518 207.6 337.612 186.897 336.855 118.978L333.672 119.964Z" fill="#BC3F3F"/>
    <path d="M332.595 111.051L330.32 111.333V115.529L333.672 119.964L336.857 118.978V113.157L334.566 111.051H332.595Z" fill="#A02E2E"/>
    <path d="M323.67 99.9454C323.67 99.9454 321.47 100.577 316.435 105.906C316.435 105.906 321.44 119.439 332.001 121.059C332.001 121.059 331.832 114.78 332.595 111.051C332.595 111.051 324.226 107.233 323.67 99.9454Z" fill="#ED7D2B"/>
    <path d="M332.595 111.051C332.595 111.051 337.747 114.537 338.128 119.964C338.128 119.964 340.098 115.989 339.528 113.238C338.955 110.484 337.191 107.331 337.191 107.331C337.191 107.331 337.365 110.646 332.595 111.051Z" fill="#ED7D2B"/>
  </g>
  <defs>
    <clipPath id="clip0_2_11">
      <rect width="580" height="393" fill="white"/>
    </clipPath>
  </defs>
</svg>
