<svg width="100" height="100" viewBox="0 0 100 100" fill="none" xmlns="http://www.w3.org/2000/svg">
<path fill-rule="evenodd" clip-rule="evenodd" d="M50 21.9814C50.0007 20.8076 50.332 19.6577 50.9558 18.6634C51.5796 17.6691 52.4708 16.8706 53.5274 16.3593C54.584 15.848 55.7632 15.6445 56.93 15.7722C58.0968 15.8999 59.2041 16.3536 60.125 17.0814L76.8375 30.3095L93.55 43.5376C94.289 44.1227 94.8861 44.8675 95.2966 45.716C95.7071 46.5646 95.9203 47.495 95.9203 48.4376C95.9203 49.3802 95.7071 50.3106 95.2966 51.1592C94.8861 52.0077 94.289 52.7525 93.55 53.3376L60.1313 79.7939C59.2104 80.5235 58.1025 80.9787 56.9347 81.1074C55.7669 81.2361 54.5864 81.0331 53.5288 80.5215C52.4711 80.01 51.579 79.2107 50.9549 78.2153C50.3307 77.2199 49.9998 76.0687 50 74.8938V65.2376C45.25 64.9688 40.725 65.2564 35.9125 66.6001C29.7 68.3439 22.675 71.9564 14 79.0376C13.0254 79.8452 11.8271 80.3356 10.5659 80.4428C9.30465 80.5501 8.04078 80.2691 6.94378 79.6376C5.77962 78.9678 4.87323 77.9275 4.36915 76.6826C3.86508 75.4377 3.79233 74.0599 4.16253 72.7688C6.75628 63.3938 13.0688 53.1376 21.7125 45.1939C29.3125 38.2126 39.025 32.7563 50 31.5126V21.9814ZM59.375 28.4439V35.9439C59.375 37.1871 58.8812 38.3793 58.0021 39.2584C57.123 40.1375 55.9307 40.6314 54.6875 40.6314C44.775 40.6314 35.525 45.2439 28.0563 52.1001C24.0598 55.7802 20.6178 60.0201 17.8375 64.6876C23.325 61.2376 28.4313 58.9626 33.3875 57.5751C41.1813 55.3876 48.2438 55.5126 55.2 56.2814C56.347 56.4075 57.4072 56.9523 58.1775 57.8115C58.9479 58.6706 59.3743 59.7837 59.375 60.9376V68.4376L84.6375 48.4376L59.375 28.4376V28.4439Z" fill="#9333EA"/>
</svg>
