<svg width="100" height="100" viewBox="0 0 100 100" fill="none" xmlns="http://www.w3.org/2000/svg">
<path d="M50 87.5C45.4167 87.5 41.4931 85.8681 38.2292 82.6042C34.9653 79.3403 33.3333 75.4167 33.3333 70.8333C33.3333 66.25 34.9653 62.3264 38.2292 59.0625C41.4931 55.7986 45.4167 54.1667 50 54.1667C54.5833 54.1667 58.5069 55.7986 61.7708 59.0625C65.0347 62.3264 66.6667 66.25 66.6667 70.8333C66.6667 75.4167 65.0347 79.3403 61.7708 82.6042C58.5069 85.8681 54.5833 87.5 50 87.5ZM12.7083 35.8333L6.5625 30.1042C12.1875 24.6181 18.7153 20.3125 26.1458 17.1875C33.5764 14.0625 41.5278 12.5 50 12.5C58.4722 12.5 66.4236 14.0625 73.8542 17.1875C81.2847 20.3125 87.8125 24.6181 93.4375 30.1042L87.2917 35.8333C82.3611 31.1806 76.7361 27.5181 70.4167 24.8458C64.0972 22.1708 57.2917 20.8333 50 20.8333C42.7083 20.8333 35.9028 22.1708 29.5833 24.8458C23.2639 27.5181 17.6389 31.1806 12.7083 35.8333ZM72.0833 50.1042C69.1667 47.4653 65.8333 45.3986 62.0833 43.9042C58.3333 42.4125 54.3056 41.6667 50 41.6667C45.6944 41.6667 41.6847 42.4125 37.9708 43.9042C34.2542 45.3986 30.9028 47.4653 27.9167 50.1042L21.7708 44.375C25.5208 40.9028 29.8083 38.1944 34.6333 36.25C39.4611 34.3056 44.5833 33.3333 50 33.3333C55.4167 33.3333 60.5208 34.3056 65.3125 36.25C70.1042 38.1944 74.375 40.9028 78.125 44.375L72.0833 50.1042Z" fill="#1D4ED8"/>
</svg>
