<svg width="435" height="435" viewBox="0 0 435 435" fill="none" xmlns="http://www.w3.org/2000/svg">
<path d="M217.5 0.430054C96.561 0.430054 0.429993 96.5611 0.429993 217.5C0.429993 338.439 96.561 434.57 217.5 434.57C338.439 434.57 434.57 338.439 434.57 217.5C434.57 96.5611 338.439 0.430054 217.5 0.430054ZM217.5 87.2581C251.611 87.2581 279.52 115.167 279.52 149.278C279.52 183.389 251.611 211.298 217.5 211.298C183.389 211.298 155.48 183.389 155.48 149.278C155.48 115.167 183.389 87.2581 217.5 87.2581ZM350.843 338.439C316.732 372.55 270.217 397.358 217.5 397.358C164.783 397.358 118.268 375.651 84.157 338.439C74.854 329.136 74.854 313.631 84.157 304.328C118.268 267.116 164.783 242.308 217.5 242.308C270.217 242.308 316.732 267.116 350.843 304.328C360.146 313.631 360.146 329.136 350.843 338.439Z" fill="#484848"/>
</svg>
