<svg width="667" height="497" viewBox="0 0 667 497" fill="none" xmlns="http://www.w3.org/2000/svg">
<path d="M555.705 458.056H599.868V458.389H555.705V458.056Z" fill="#EEEEEE"/>
<path d="M430.036 461.674H441.627V462.007H430.036V461.674Z" fill="#EEEEEE"/>
<path d="M528.781 445.674H554.371V446.007H528.781V445.674Z" fill="#EEEEEE"/>
<path d="M69.9453 448.248H127.537V447.915H69.9453V448.248Z" fill="#EEEEEE"/>
<path d="M139.408 447.915H147.852V448.248H139.408V447.915Z" fill="#EEEEEE"/>
<path d="M175.295 453.544H300.196V453.877H175.295V453.544Z" fill="#EEEEEE"/>
<path d="M58.5536 0.333421C54.5401 0.333421 51.276 3.5974 51.276 7.61073V369.519C51.276 373.532 54.5401 376.796 58.5536 376.796H316.019C320.029 376.796 323.295 373.532 323.295 369.519V7.61073C323.295 3.5974 320.029 0.333421 316.019 0.333421H58.5536ZM316.019 377.129H58.5536C54.3568 377.129 50.9427 373.716 50.9427 369.519V7.61073C50.9427 3.41473 54.3568 8.75828e-05 58.5536 8.75828e-05H316.019C320.213 8.75828e-05 323.628 3.41473 323.628 7.61073V369.519C323.628 373.716 320.213 377.129 316.019 377.129Z" fill="#EEEEEE"/>
<path d="M346.949 0.677301C342.937 0.677301 339.673 3.94264 339.673 7.95464V369.864C339.673 373.877 342.937 377.141 346.949 377.141H604.415C608.427 377.141 611.692 373.877 611.692 369.864V7.95464C611.692 3.94264 608.427 0.677301 604.415 0.677301H346.949ZM604.415 377.475H346.949C342.753 377.475 339.34 374.06 339.34 369.864V7.95464C339.34 3.75864 342.753 0.343968 346.949 0.343968H604.415C608.611 0.343968 612.025 3.75864 612.025 7.95464V369.864C612.025 374.06 608.611 377.475 604.415 377.475Z" fill="#EEEEEE"/>
<path d="M0 436.928H666.667V436.595H0V436.928Z" fill="#EEEEEE"/>
<path d="M100.873 124.069H221.799C237.289 124.069 241.028 102.379 226.396 97.2894C226.209 97.2254 226.021 97.1627 225.832 97.1C242.015 83.6147 206.504 55.1867 167.936 94.5494C170.943 81.424 136.66 86.1667 126.171 104.075C122.445 92.316 89.75 112.744 100.873 124.069Z" fill="#E9E9E8"/>
<path d="M424.307 70H496.809C496.809 70 513.812 63.596 511.613 46.636C509.415 29.6773 483.745 43.808 483.745 43.808C483.745 43.808 491.527 20.1467 466.668 26.86C441.811 33.5733 439.388 57.032 439.388 57.032C439.388 57.032 406.74 51.3333 424.307 70Z" fill="#EEEEEE"/>
<path d="M490.919 117.705H538.785C538.785 117.705 550.011 113.477 548.559 102.281C547.108 91.084 530.16 100.413 530.16 100.413C530.16 100.413 535.297 84.792 518.887 89.224C502.475 93.656 500.875 109.144 500.875 109.144C500.875 109.144 479.32 105.381 490.919 117.705Z" fill="#EEEEEE"/>
<path d="M468.656 347.257L478.911 358.388H468.495L468.656 347.257ZM468.713 333.313L478.655 333.3L468.575 343.837L468.713 333.313ZM468.82 321.932L478.585 331.968L468.677 331.981L468.82 321.932ZM469.004 308.693L478.459 308.665L468.867 318.233L469.004 308.693ZM469.127 298.204L478.428 307.3L469.008 307.328L469.127 298.204ZM469.316 286.064L478.335 286.021L469.193 294.748L469.316 286.064ZM469.457 276.329L478.345 284.627L469.335 284.656L469.457 276.329ZM479.48 274.433L479.529 282.737L470.64 274.476L479.48 274.433ZM479.635 294.635L470.407 294.677L479.565 285.907L479.635 294.635ZM479.704 305.135L470.404 296.053L479.649 296.025L479.704 305.135ZM479.779 318.371L470.116 318.397L479.725 308.777L479.779 318.371ZM479.896 329.743L470.139 319.743L479.835 319.716L479.896 329.743ZM479.787 345.304L469.636 345.319L479.713 334.736L479.787 345.304ZM479.949 357.7L469.699 346.624H479.88L479.949 357.7ZM481.72 360.348L481.584 346.185L481.579 345.327L481.456 332.709L481.451 331.9L481.336 319.897L481.324 319.116L481.219 307.687L481.209 306.947L481.105 296.041L481.099 295.345L480.993 284.923L480.992 284.26L480.893 274.303L480.888 273.659L480.811 265.42C480.403 265.671 479.941 265.892 479.431 266.056L479.483 273.015L470.659 273.06L477.768 266.544C477.084 266.676 476.333 266.78 475.552 266.809L469.684 272.165L469.784 265.879C469.259 265.657 468.785 265.389 468.411 265.08L468.26 273.717L468.257 274.36L468.088 284.317L468.077 284.995L467.887 295.388L467.883 296.099L467.699 306.989L467.687 307.728L467.483 319.157L467.475 319.94L467.271 331.913L467.252 332.735L467.027 345.34L467.012 346.199L466.771 360.348L465.543 421.423L482.565 421.623L481.72 360.348Z" fill="#EEEEEE"/>
<path d="M468.364 264.064L468.337 265.559C468.713 265.869 469.185 266.135 469.711 266.356L469.74 264.064H468.364ZM480.712 263.991L480.021 264.004L479.54 263.56L475.472 267.285C476.252 267.256 477.003 267.153 477.685 267.02L479.34 265.5L479.347 266.533C479.857 266.371 480.317 266.149 480.725 265.897L480.712 263.991Z" fill="#EEEEEE"/>
<path d="M482.709 262.879C482.824 263.589 482.567 264.285 481.996 264.908L481.52 265.351C481.288 265.544 481.011 265.736 480.725 265.897C480.317 266.149 479.857 266.371 479.347 266.533C478.829 266.74 478.276 266.903 477.685 267.02C477.003 267.153 476.252 267.256 475.472 267.285L475.185 267.3L474.467 267.316C472.623 267.285 470.973 266.932 469.711 266.356C469.185 266.135 468.713 265.869 468.337 265.559L468.22 265.469L467.777 265.041C467.231 264.449 467 263.768 467.129 263.071L468.144 257.397L465.463 257.443L474.789 252.704L484.505 257.128L481.777 257.172L482.709 262.879Z" fill="#EEEEEE"/>
<path d="M525.491 269.999L525.851 421.423H611.697L612.18 269.999H525.491Z" fill="#EEEEEE"/>
<path d="M542.251 250.729L542.292 284.493H595.427L595.496 250.729H542.251Z" fill="#EEEEEE"/>
<path d="M542.191 284.493H530.964L530.943 274.377H542.177L542.191 284.493Z" fill="#FCFDFD"/>
<path d="M563.727 284.493H552.501L552.493 274.377H563.728L563.727 284.493Z" fill="#FCFDFD"/>
<path d="M585.263 284.493H574.036L574.044 274.377H585.279L585.263 284.493Z" fill="#FCFDFD"/>
<path d="M606.799 284.493H595.573L595.595 274.377H606.829L606.799 284.493Z" fill="#F4F4F4"/>
<path d="M542.043 302.925H531.076L531.056 293.057H542.028L542.043 302.925Z" fill="#F4F4F4"/>
<path d="M563.548 302.925H552.581L552.575 293.057H563.548V302.925Z" fill="#F4F4F4"/>
<path d="M585.053 302.925H574.087L574.095 293.057H585.067L585.053 302.925Z" fill="#FCFDFD"/>
<path d="M606.557 302.925H595.592L595.613 293.057H606.587L606.557 302.925Z" fill="#FCFDFD"/>
<path d="M541.952 320.909H531.237L531.219 311.28H541.937L541.952 320.909Z" fill="#F4F4F4"/>
<path d="M563.432 320.909H552.717L552.712 311.28H563.431L563.432 320.909Z" fill="#FCFDFD"/>
<path d="M584.912 320.909H574.197L574.205 311.28H584.925L584.912 320.909Z" fill="#FCFDFD"/>
<path d="M563.665 269.999H552.223L552.215 259.684H563.665V269.999Z" fill="#FCFDFD"/>
<path d="M585.207 269.999H573.765L573.771 259.684H585.223L585.207 269.999Z" fill="#F4F4F4"/>
<path d="M606.392 320.909H595.677L595.7 311.28H606.419L606.392 320.909Z" fill="#F4F4F4"/>
<path d="M541.916 338.459H531.449L531.432 329.061H541.901L541.916 338.459Z" fill="#FCFDFD"/>
<path d="M563.377 338.459H552.911L552.907 329.061H563.376L563.377 338.459Z" fill="#F4F4F4"/>
<path d="M584.837 338.459H574.371L574.38 329.061H584.851L584.837 338.459Z" fill="#F4F4F4"/>
<path d="M606.299 338.459H595.832L595.855 329.061H606.325L606.299 338.459Z" fill="#FCFDFD"/>
<path d="M542.388 358.192H530.723L530.697 347.736H542.375L542.388 358.192Z" fill="#F4F4F4"/>
<path d="M563.805 358.192H552.14L552.129 347.736H563.807L563.805 358.192Z" fill="#FCFDFD"/>
<path d="M585.223 358.192H573.557L573.561 347.736H585.239L585.223 358.192Z" fill="#FCFDFD"/>
<path d="M606.64 358.192H594.973L594.995 347.736H606.671L606.64 358.192Z" fill="#F4F4F4"/>
<path d="M542.451 374.863H531.053L531.031 364.651H542.439L542.451 374.863Z" fill="#F4F4F4"/>
<path d="M563.86 374.863H552.464L552.456 364.651H563.863L563.86 374.863Z" fill="#FCFDFD"/>
<path d="M585.272 374.863H573.873L573.881 364.651H585.288L585.272 374.863Z" fill="#F4F4F4"/>
<path d="M606.681 374.863H595.284L595.305 364.651H606.713L606.681 374.863Z" fill="#FCFDFD"/>
<path d="M542.212 393.617H531.096L531.075 383.677H542.197L542.212 393.617Z" fill="#FCFDFD"/>
<path d="M563.583 393.617H552.467L552.46 383.677H563.583V393.617Z" fill="#FCFDFD"/>
<path d="M584.953 393.617H573.837L573.844 383.677H584.968L584.953 393.617Z" fill="#F4F4F4"/>
<path d="M606.324 393.617H595.209L595.229 383.677H606.352L606.324 393.617Z" fill="#F4F4F4"/>
<path d="M542.213 410.676H531.363L531.344 400.981H542.2L542.213 410.676Z" fill="#F4F4F4"/>
<path d="M606.284 410.676H595.435L595.456 400.981H606.312L606.284 410.676Z" fill="#FCFDFD"/>
<path d="M585.016 400.981H552.613L552.676 403.417H553.572L553.587 421.423H556.825L556.816 403.417H580.861L580.836 421.423H584.075L584.105 403.417H585.081L585.016 400.981Z" fill="#F8F8F9"/>
<path d="M568.979 421.423H556.973L556.967 403.417H568.989L568.979 421.423Z" fill="#E9E9E8"/>
<path d="M580.691 421.423H568.685L568.692 403.417H580.715L580.691 421.423Z" fill="#EEEEEE"/>
<path d="M525.615 318.171L525.86 421.423H418.216L417.228 318.171H525.615Z" fill="#F8F8F9"/>
<path d="M505.013 341.121H518.451L518.415 329.061H504.969L505.013 341.121Z" fill="#E9E9E8"/>
<path d="M478.2 341.121H491.637L491.58 329.061H478.135L478.2 341.121Z" fill="#E9E9E8"/>
<path d="M451.387 341.121H464.825L464.745 329.061H451.3L451.387 341.121Z" fill="#E9E9E8"/>
<path d="M424.573 341.121H438.011L437.911 329.061H424.465L424.573 341.121Z" fill="#E9E9E8"/>
<path d="M504.504 364.651H518.984L518.948 351.675H504.451L504.504 364.651Z" fill="#E9E9E8"/>
<path d="M477.741 364.651H492.221L492.163 351.675H477.665L477.741 364.651Z" fill="#E9E9E8"/>
<path d="M450.979 364.651H465.459L465.377 351.675H450.88L450.979 364.651Z" fill="#E9E9E8"/>
<path d="M424.216 364.651H438.695L438.592 351.675H424.095L424.216 364.651Z" fill="#E9E9E8"/>
<path d="M504.881 386.176H518.937L518.903 373.595H504.833L504.881 386.176Z" fill="#E9E9E8"/>
<path d="M478.144 386.176H492.2L492.143 373.595H478.073L478.144 386.176Z" fill="#E9E9E8"/>
<path d="M451.407 386.176H465.463L465.383 373.595H451.313L451.407 386.176Z" fill="#E9E9E8"/>
<path d="M424.668 386.176H438.724L438.623 373.595H424.553L424.668 386.176Z" fill="#E9E9E8"/>
<path d="M505.184 408.265H518.816L518.781 396.081H505.139L505.184 408.265Z" fill="#E9E9E8"/>
<path d="M425.083 408.265H438.715L438.613 396.081H424.972L425.083 408.265Z" fill="#E9E9E8"/>
<path d="M450.78 396.081H492.941L492.956 399.759H490.261L490.368 421.423H486.471L486.359 399.759H457.427L457.575 421.423H453.677L453.525 399.759H450.809L450.78 396.081Z" fill="#F8F8F9"/>
<path d="M472.116 421.423H486.564L486.455 399.759H471.989L472.116 421.423Z" fill="#E9E9E8"/>
<path d="M457.479 421.423H471.927L471.796 399.759H457.329L457.479 421.423Z" fill="#EEEEEE"/>
<path d="M202.795 229.789C202.795 228.169 202.795 226.549 202.795 224.928C202.795 224.183 201.635 224.181 201.635 224.928C201.635 226.708 201.635 228.487 201.635 230.265C201.635 230.601 201.901 230.813 202.215 230.844C204.045 231.029 205.383 233.305 203.863 234.825C202.405 236.281 200.08 235.135 199.883 233.176C199.808 232.441 198.648 232.433 198.723 233.176C199.013 236.059 202.384 237.968 204.683 235.645C206.816 233.489 205.352 230.435 202.795 229.789Z" fill="#EEEEEE"/>
<path d="M117.336 230.235L107.573 220.473H117.336V230.235ZM117.336 255.041L107.573 245.277H117.336V255.041ZM117.336 279.845L107.573 270.083H117.336V279.845ZM107.573 293.343L117.336 283.579V293.343H107.573ZM116.242 282.487L106.479 292.249V282.487H116.242ZM117.336 258.775V268.537H107.573L117.336 258.775ZM116.242 257.68L106.479 267.444V257.68H116.242ZM117.336 233.968V243.731H107.573L117.336 233.968ZM116.242 232.875L106.479 242.639V232.875H116.242ZM117.336 209.163V218.925H107.573L117.336 209.163ZM116.242 208.069L106.479 217.833V208.069H116.242ZM106.479 196.76L116.242 206.524H106.479V196.76ZM106.479 221.565L116.242 231.329H106.479V221.565ZM106.479 246.371L116.242 256.135H106.479V246.371ZM106.479 271.176L116.242 280.94H106.479V271.176ZM117.336 194.893V205.429L106.253 194.347L105.706 194.893H104.933V207.296V208.069V219.699V220.473V232.101V232.875V244.504V245.277V256.907V257.68V269.311V270.083V281.713V282.487V294.888H118.882V282.487V281.713V270.083V269.311V257.68V256.907V245.277V244.504V232.875V232.101V220.473V219.699V208.069V207.296V194.893H117.336Z" fill="#F4F4F4"/>
<path d="M109.123 171.259L115.785 164.597V171.259H109.123ZM115.785 179.468L109.123 172.807H115.785V179.468ZM114.692 163.504L108.03 170.167V163.504H114.692ZM106.483 161.957V171.259V172.032V181.335H108.03V173.899L116.012 181.881L116.558 181.335H117.332V172.032V171.259V161.957H106.483Z" fill="#F4F4F4"/>
<path d="M81.0208 213.497H62.4167V194.893H81.0208V213.497Z" fill="#E9E9E8"/>
<path d="M202.463 221.728H201.432V185.964L114.805 157.237H109.075L62.6891 186.029L62.1453 185.153L108.78 156.205H114.971L115.051 156.232L202.463 185.22V221.728Z" fill="#E9E9E8"/>
<path d="M185.211 186.364H191.872V193.027L185.211 186.364ZM184.116 194.12V187.459L190.779 194.12H184.116ZM182.571 194.12H175.908L182.571 187.459V194.12ZM174.815 186.364H181.477L174.815 193.027V186.364ZM173.268 194.12H166.607L173.268 187.459V194.12ZM165.512 186.364H172.175L165.512 193.027V186.364ZM163.967 193.027L157.304 186.364H163.967V193.027ZM156.211 194.12V187.459L162.873 194.12H156.211ZM154.664 194.12H148.001L154.664 187.459V194.12ZM146.909 186.364H153.571L146.909 193.027V186.364ZM145.361 193.027L138.7 186.364H145.361V193.027ZM137.607 194.12V187.459L144.269 194.12H137.607ZM136.06 194.12H129.398L136.06 187.459V194.12ZM128.305 186.364H134.967L128.305 193.027V186.364ZM126.758 193.027L120.096 186.364H126.758V193.027ZM119.003 194.12V187.459L125.665 194.12H119.003ZM117.456 194.12H110.794L117.456 187.459V194.12ZM109.7 186.364H116.363L109.7 193.027V186.364ZM108.154 193.027L101.492 186.364H108.154V193.027ZM100.398 194.12V187.459L107.06 194.12H100.398ZM98.8516 194.12H92.1896L98.8516 187.459V194.12ZM91.0959 186.364H97.7584L91.0959 193.027V186.364ZM89.5495 193.027L82.8875 186.364H89.5495V193.027ZM81.7943 194.12V187.459L88.4563 194.12H81.7943ZM80.2479 194.12H73.5855L80.2479 187.459V194.12ZM72.4921 186.364H79.1541L72.4921 193.027V186.364ZM70.9453 193.027L64.2833 186.364H70.9453V193.027ZM63.1901 194.12V187.459L69.8521 194.12H63.1901ZM193.419 186.364H200.081L193.419 193.027V186.364ZM191.872 195.697H192.935L203.813 184.819H61.6437V195.667H70.9453H71.7188H80.2479H81.0208H89.5495H90.3229H98.8516H99.6251H108.154H108.927H117.456H118.229H126.758H127.531H136.06H136.833H145.361H146.136H154.664H155.437H163.967H164.74H173.268H174.041H182.571H183.344H191.872V195.697Z" fill="#F4F4F4"/>
<path d="M125.759 199.117H97.1511L98.1979 187.08C98.4803 183.829 101.202 181.335 104.465 181.335H118.094C121.288 181.335 123.975 183.728 124.343 186.9L125.759 199.117Z" fill="#F4F4F4"/>
<path d="M107.257 191.827H101.764V186.335H107.257V191.827Z" fill="#FCFDFD"/>
<path d="M108.709 191.827H114.202V186.334H108.709V191.827Z" fill="#FCFDFD"/>
<path d="M115.654 191.827H121.146V186.334H115.654V191.827Z" fill="#FCFDFD"/>
<path d="M115.654 158.984C115.654 161.053 113.977 162.731 111.908 162.731C109.839 162.731 108.161 161.053 108.161 158.984C108.161 156.916 109.839 155.239 111.908 155.239C113.977 155.239 115.654 156.916 115.654 158.984Z" fill="#E9E9E8"/>
<path d="M202.213 228.129C200.447 228.129 199.013 226.696 199.013 224.928V221.728H205.415V224.928C205.415 226.696 203.981 228.129 202.213 228.129Z" fill="#E9E9E8"/>
<path d="M50.7203 269.999L53.2047 421.423H139.051L137.409 269.999H50.7203Z" fill="#F8F8F9"/>
<path d="M56.1349 274.377L56.4328 292.804L56.5151 297.867L56.5964 302.925H67.8427L67.7651 297.867L67.6869 292.804L67.4041 274.377H56.1349Z" fill="#E9E9E8"/>
<path d="M77.6833 274.377L77.9558 292.804L78.0307 297.867L78.1058 302.925H89.3511L89.2807 297.867L89.2104 292.804L88.9531 274.377H77.6833Z" fill="#E9E9E8"/>
<path d="M99.2323 274.377L99.4787 292.804L99.5453 297.867L99.6136 302.925H110.859L110.796 297.867L110.732 292.804L110.502 274.377H99.2323Z" fill="#E9E9E8"/>
<path d="M120.781 274.377L121.002 292.804L121.094 300.627L121.122 302.925H132.368L132.343 300.627L132.255 292.804L132.051 274.377H120.781Z" fill="#E9E9E8"/>
<path d="M56.8172 311.28L57.114 329.684L57.1953 334.74L57.2765 339.792H68.5391L68.4625 334.74L68.3849 329.684L68.1036 311.28H56.8172Z" fill="#E9E9E8"/>
<path d="M78.3052 311.28L78.576 329.684L78.6812 336.812L78.7245 339.792H89.9869L89.9459 336.812L89.8469 329.684L89.5927 311.28H78.3052Z" fill="#E9E9E8"/>
<path d="M99.7937 311.28L100.039 329.684L100.106 334.74L100.172 339.792H111.435L111.372 334.74L111.309 329.684L111.08 311.28H99.7937Z" fill="#E9E9E8"/>
<path d="M121.282 311.28L121.501 329.684L121.56 334.74L121.62 339.792H132.883L132.828 334.74L132.771 329.684L132.569 311.28H121.282Z" fill="#E9E9E8"/>
<path d="M57.4573 347.736L57.7521 366.064L57.8333 371.098L57.914 376.128H69.1588L69.0817 371.098L69.0052 366.064L68.7265 347.736H57.4573Z" fill="#E9E9E8"/>
<path d="M78.8901 347.736L79.1588 366.064L79.2328 371.098L79.3068 376.128H90.5511L90.4817 371.098L90.412 366.064L90.1588 347.736H78.8901Z" fill="#E9E9E8"/>
<path d="M100.321 347.736L100.565 366.064L100.632 371.098L100.698 376.128H111.943L111.881 371.098L111.818 366.064L111.591 347.736H100.321Z" fill="#E9E9E8"/>
<path d="M121.754 347.736L121.971 366.064L122.054 373.017L122.091 376.128H133.336L133.302 373.017L133.225 366.064L133.023 347.736H121.754Z" fill="#E9E9E8"/>
<path d="M128.006 383.677H57.8104L57.9729 393.617H133.676L133.568 383.677H128.006Z" fill="#E9E9E8"/>
<path d="M112.018 400.981H79.6151L79.5828 403.417H80.5579L80.8265 421.423H84.0656L83.8016 403.417H107.847L108.075 421.423H111.314L111.091 403.417H111.987L112.018 400.981Z" fill="#FCFDFD"/>
<path d="M96.2156 421.423H84.2109L83.9484 403.417H95.9713L96.2156 421.423Z" fill="#E9E9E8"/>
<path d="M107.927 421.423H95.9224L95.6745 403.417H107.697L107.927 421.423Z" fill="#E9E9E8"/>
<path d="M219.171 278.728L220.147 421.423H139.256L137.48 278.728H219.171Z" fill="#E9E9E8"/>
<path d="M190.316 386.176H214.527L214.56 390.744L214.593 395.31L214.716 411.879H204.469L204.333 394.851H194.328H190.393H184.627L184.548 386.176H190.316Z" fill="#F4F4F4"/>
<path d="M151.26 386.176H174.001L174.091 394.851H154.643L154.835 411.879H144.591L144.393 395.31L144.315 388.704L144.284 386.176H151.26Z" fill="#F4F4F4"/>
<path d="M165.571 402.2H193.451L193.475 404.632H193.781L193.924 421.423H190.903L190.756 404.632H168.333L168.511 421.423H165.491L165.309 404.632H165.595L165.571 402.2Z" fill="#F8F8F9"/>
<path d="M179.588 421.423H190.784L190.637 404.632H179.425L179.588 421.423Z" fill="#EEEEEE"/>
<path d="M168.627 421.423H179.823L179.663 404.632H168.451L168.627 421.423Z" fill="#E3E3E2"/>
<path d="M183.077 284.493H214.161L214.352 311.281H183.329L183.077 284.493Z" fill="#F4F4F4"/>
<path d="M142.781 284.493H173.867L174.127 311.281H143.105L142.781 284.493Z" fill="#F4F4F4"/>
<path d="M183.943 318.171H213.693L213.888 343.776H184.175L183.943 318.171Z" fill="#F4F4F4"/>
<path d="M143.716 318.171H173.467L173.728 343.776H144.016L143.716 318.171Z" fill="#F4F4F4"/>
<path d="M184.249 352.984H214.168L214.359 378.655H184.481L184.249 352.984Z" fill="#F4F4F4"/>
<path d="M144.141 352.984H174.061L174.32 378.655H144.443L144.141 352.984Z" fill="#F4F4F4"/>
<path d="M178.692 129.145C151.411 143.332 130.203 167.125 113.514 192.952C89.7948 229.657 73.7797 273.655 80.5552 316.828C87.3303 360 121.734 400.496 165.3 403.948C221.109 408.368 266.536 355.571 322.217 349.753C343.427 347.537 364.669 352.349 385.952 353.708C448.9 357.725 513.057 329.337 552.419 280.049C578.197 247.769 593.589 205.181 585.524 164.667C577.141 122.557 543.865 87.7947 504.047 71.7374C464.227 55.6814 418.904 56.812 377.632 68.644C339.405 79.6 308.909 100.599 274.652 119.459C260.828 127.071 245.147 116.848 229.703 116.652C212.035 116.429 194.335 121.011 178.692 129.145Z" fill="#9333EA"/>
<path d="M162.553 403.68C159.908 403.374 157.297 402.931 154.727 402.359C151.221 401.58 147.787 400.56 144.441 399.322C142.527 398.613 140.643 397.835 138.785 396.987C136.54 395.961 134.339 394.836 132.185 393.617C131.352 393.147 130.524 392.66 129.704 392.161C133.339 382.513 136.46 373.477 138.376 366.431C142.537 351.113 150.299 317.613 156.144 291.908C158.855 318.419 161.793 350.273 162.193 367.247C162.417 376.8 162.519 390.06 162.553 403.68ZM186.14 403.07C187.316 391.212 188.363 379.71 188.968 370.893C190.863 343.331 184.959 255.149 184.959 255.149L184.037 254.953C189.62 234.303 192.411 219.037 193.689 207.668C195.752 210.469 198.019 213.116 200.471 215.584C203.256 218.523 206.515 220.975 210.109 222.837L210.905 223.203C211.184 223.335 211.595 223.545 211.96 223.623C212.693 223.887 213.449 224.087 214.217 224.223C215.103 224.385 215.999 224.467 216.896 224.467C217.481 224.467 218.067 224.432 218.651 224.363C218.749 224.349 218.847 224.336 218.945 224.32V392.924C217.496 393.555 216.044 394.17 214.589 394.763C211.2 396.147 207.793 397.422 204.364 398.556C198.372 400.537 192.305 402.098 186.14 403.07ZM107.827 373.861C93.6364 358.099 83.8432 337.779 80.5552 316.828C80.3864 315.752 80.2323 314.68 80.0917 313.604L116.975 325.964C114.187 340.352 111.635 353.845 109.995 363.217C109.435 366.416 108.697 370.005 107.827 373.861ZM447.284 347.631V306.273H447.327L447.328 303.419H447.284V252.765C451.148 253.024 455.239 253.191 458.891 253.191C464.532 253.191 469.124 252.795 470.196 251.736C472.892 249.075 475.575 244.825 482.279 235.753L482.469 235.877C483.241 237.743 484.409 239.677 486.236 241.431C486.236 241.431 488.807 250.724 490.748 258.647C490.572 258.969 490.421 259.311 490.297 259.671L478.505 294.1L484.119 296.117C484.152 296.129 484.185 296.143 484.22 296.155L491.149 298.644C490.231 308.761 489.156 320.548 488.093 332.084C484.833 333.745 481.523 335.321 478.176 336.804C468.185 341.235 457.849 344.861 447.284 347.631ZM541.292 292.753C540.669 290.755 539.9 288.807 539.043 286.941L541.395 279.832C541.689 278.943 541.829 278.037 541.828 277.145C541.827 273.649 539.675 270.371 536.264 269.159L531.591 267.497L535.643 255.356C536.357 253.213 536.863 251.145 536.861 249.203C536.861 248.201 536.725 247.235 536.415 246.308C536.887 244.185 537.208 241.457 537.307 237.981C537.307 237.981 537.283 233.737 537.117 228.352C538.473 227.86 539.843 227.507 541.2 227.373C540.413 218.285 539.363 212.239 537.599 209.231C536.585 207.503 535.539 205.737 533.988 204.485C533.297 203.929 532.08 203.529 530.943 203.257C530.661 203.189 530.377 203.141 530.093 203.111C529.875 203.025 529.649 202.956 529.415 202.903C529.091 202.831 528.761 202.793 528.431 202.793C528.425 202.793 528.419 202.793 528.413 202.793C526.817 202.805 524.992 202.849 523.057 202.96L523.445 202.257C521.235 202.275 518.779 202.432 516.304 202.765C515.099 202.873 513.896 203 512.696 203.143C508.528 201.036 505.504 192.491 504.171 187.427L499.345 201.291C499.832 201.869 500.297 202.471 500.707 203.096C500.829 203.289 500.949 203.484 501.064 203.681C501.065 203.681 501.065 203.68 501.067 203.68C501.311 204.1 501.525 204.531 501.703 204.972C500.965 205.129 500.229 205.293 499.495 205.465C497.488 205.961 495.387 206.568 493.417 207.165C493.307 207.611 493.205 208.113 493.121 208.664C492.999 208.708 492.875 208.752 492.747 208.799C489.139 209.256 477.204 217.411 471.143 228.519L472.885 229.651C470.663 232.333 463.712 240.669 462.879 241.035C459.977 242.301 453.549 243.797 447.284 244.861V164.013H447.335V161.147H447.284V59.8894C466.741 60.6987 485.964 64.4467 504.047 71.7374C543.865 87.7947 577.141 122.557 585.524 164.667C586.981 171.985 587.673 179.373 587.676 186.755C587.687 213.867 578.411 240.903 563.665 264.253C562.44 266.193 561.175 268.112 559.876 269.999C558.86 271.475 557.823 272.935 556.763 274.377C555.376 276.267 553.953 278.125 552.497 279.951C552.471 279.984 552.447 280.016 552.419 280.049C551.22 281.551 550 283.031 548.756 284.493C546.349 287.32 543.859 290.076 541.292 292.753ZM126.612 277.095L122.193 275.615C122.721 273.477 123.791 270.256 123.791 267.405C123.792 265.847 123.472 264.399 122.57 263.301C120.988 261.376 118.549 261.763 116.355 261.333C112.448 260.568 108.446 257.157 104.348 257.157C104.106 257.157 103.863 257.169 103.62 257.195C102.141 257.348 101.287 258 100.677 259.34C99.9844 260.861 100.393 262.553 99.4855 264.152C99.0188 264.975 98.4167 265.771 97.7453 266.439C97.4912 266.692 97.3307 266.971 97.2473 267.256L82.988 262.477C88.6265 237.907 99.7781 214.208 113.514 192.952C126.885 172.26 143.157 152.872 163.129 138.685C164.056 140.352 164.984 141.711 165.44 142.355C164.648 146.533 164.491 149.916 165.836 153.439C165.319 159.423 163.921 165.92 160.643 168.94L160.005 168.853C156.036 168.213 151.909 167.844 148.604 167.636L148.496 167.612L148.301 167.603C148.228 167.6 148.155 167.599 148.081 167.599C144.609 167.599 141.739 170.355 141.621 173.851C141.315 183.331 140.575 200.033 137.996 215.125C133.112 250.188 128.268 257.159 128.268 257.159L130.528 257.585C129.606 262.157 128.233 268.985 126.612 277.095ZM118.686 274.44L108.34 270.973L100.864 268.468C102.517 266.433 102.91 264.237 104.148 261.928C104.337 261.575 104.402 261.319 104.401 261.137C104.401 261.063 104.389 261 104.37 260.948C104.527 260.995 104.76 261.041 105.096 261.077C105.88 261.161 106.711 261.617 107.436 261.895C109.334 262.621 111.164 263.528 113.079 264.209C114.723 264.795 117.673 264.524 119.065 265.337C119.815 265.777 120.08 266.711 120.081 267.833C120.083 270.113 119.001 273.169 118.686 274.44ZM528.957 266.561L528.212 266.297L528.183 266.029C528.139 265.973 528.089 265.927 528.035 265.889C527.783 260.992 527.645 256.297 527.769 251.176C527.808 251.223 527.847 251.268 527.885 251.315C528.643 252.2 529.943 253.071 531.339 253.071C532.096 253.071 532.881 252.815 533.625 252.167C533.475 252.911 533.268 253.665 533.015 254.425L528.957 266.561ZM217.301 210.296C217.101 210.253 216.971 210.225 216.971 210.225L216.913 210.213L216.853 210.201L216.583 210.033C214.609 208.749 212.845 207.169 211.353 205.348C209.503 203.184 207.775 200.917 206.176 198.56C204.515 196.132 202.956 193.564 201.428 190.967C200.671 189.663 199.896 188.331 199.2 187.028C198.505 185.725 197.748 184.311 197.149 183.127L197.131 182.927C195.936 180.571 193.741 179.056 191.324 178.639C190.573 177.957 189.705 177.392 188.745 176.976C186.539 175.935 184.269 175.033 181.949 174.279C181.616 174.188 181.283 174.099 180.949 174.009C180.945 173.989 180.944 173.977 180.944 173.977C176.211 171.745 175.089 168.676 175.508 165.421C175.508 165.421 175.509 165.423 175.511 165.423L176.412 162.003L176.4 161.988C176.403 161.983 176.404 161.977 176.407 161.972C176.851 162.02 177.299 162.045 177.748 162.045C179.615 162.045 181.512 161.623 183.296 160.732C185.556 159.604 187.417 157.815 188.636 155.604C190.696 152.025 192.391 147.015 192.789 142.029C193.628 140.428 194.053 138.663 194.053 136.892C194.055 135.139 193.64 133.38 192.8 131.768L190.695 130.707C189.987 129.493 189.088 128.393 187.973 127.448C187.253 126.805 186.48 126.26 185.669 125.813C196.212 121.212 207.495 118.193 218.945 117.1V210C218.417 210.185 217.863 210.287 217.301 210.296Z" fill="#EFF5FC"/>
<path d="M591.852 480.987C591.852 489.325 476.111 496.084 333.333 496.084C190.557 496.084 74.8151 489.325 74.8151 480.987C74.8151 472.649 190.557 465.889 333.333 465.889C476.111 465.889 591.852 472.649 591.852 480.987Z" fill="#F8F8F9"/>
<path d="M214.443 39.556L219.409 45.98H447.224L452.233 39.556H214.443Z" fill="#9333EA"/>
<path d="M447.284 45.9041V39.5561H452.233L447.284 45.9041Z" fill="#26489D"/>
<path d="M218.945 45.3813L214.443 39.556H218.945V45.3813Z" fill="#26489D"/>
<path d="M218.945 436.047H447.284V31.272H218.945V436.047Z" fill="#9333EA"/>
<path d="M447.284 436.047H218.945V224.32C221.28 223.969 223.532 223.2 225.595 222.047C228.953 220.125 232.001 217.708 234.637 214.876C239.309 209.824 243.341 204.216 246.641 198.177C248.227 195.803 247.592 192.592 245.223 191C244.335 190.403 243.329 190.116 242.335 190.116C240.667 190.116 239.028 190.92 238.028 192.408L237.86 192.619C236.995 193.689 235.997 194.916 235.027 196.075C234.056 197.235 233.033 198.345 232.024 199.46C230.069 201.639 227.969 203.684 225.737 205.579C223.859 207.284 221.74 208.703 219.448 209.792C219.284 209.869 219.116 209.939 218.945 210V39.5561H219.141C219.009 40.0788 218.967 40.6455 219.031 41.2375C219.317 43.8681 221.592 45.9908 224.113 45.9908C225.983 45.9908 227.473 44.8241 228.012 43.1481C228.887 44.8241 230.611 45.9908 232.48 45.9908C234.349 45.9908 235.849 44.8241 236.401 43.1494C237.263 44.8241 238.979 45.9908 240.848 45.9908C242.717 45.9908 244.225 44.8241 244.791 43.1481C245.639 44.8241 247.345 45.9908 249.215 45.9908C251.084 45.9908 252.603 44.8241 253.181 43.1494C254.016 44.8241 255.712 45.9908 257.583 45.9908C259.451 45.9908 260.979 44.8241 261.571 43.1494C262.392 44.8241 264.079 45.9908 265.948 45.9908C267.819 45.9908 269.355 44.8241 269.96 43.1481C270.768 44.8241 272.447 45.9908 274.316 45.9908C276.185 45.9908 277.731 44.8241 278.349 43.1481C279.145 44.8241 280.813 45.9908 282.683 45.9908C284.552 45.9908 286.108 44.8241 286.74 43.1494C287.521 44.8241 289.18 45.9908 291.049 45.9908C292.919 45.9908 294.484 44.8241 295.129 43.1494C295.897 44.8241 297.548 45.9908 299.416 45.9908C301.287 45.9908 302.86 44.8241 303.519 43.1481C304.273 44.8241 305.915 45.9908 307.784 45.9908C309.653 45.9908 311.236 44.8241 311.909 43.1481C312.651 44.8241 314.281 45.9908 316.151 45.9908C318.02 45.9908 319.613 44.8241 320.299 43.1494C321.027 44.8241 322.649 45.9908 324.519 45.9908C326.388 45.9908 327.989 44.8241 328.688 43.1481C329.403 44.8241 331.016 45.9908 332.885 45.9908C334.755 45.9908 336.365 44.8241 337.077 43.1494C337.78 44.8241 339.383 45.9908 341.252 45.9908C343.121 45.9908 344.741 44.8241 345.468 43.1481C346.156 44.8241 347.749 45.9908 349.619 45.9908C351.488 45.9908 353.119 44.8241 353.857 43.1481C354.532 44.8241 356.117 45.9908 357.987 45.9908C359.856 45.9908 361.495 44.8241 362.247 43.1481C362.908 44.8241 364.484 45.9908 366.353 45.9908C368.223 45.9908 369.871 44.8241 370.637 43.1481C371.284 44.8241 372.851 45.9908 374.72 45.9908C376.589 45.9908 378.247 44.8241 379.027 43.1494C379.661 44.8241 381.219 45.9908 383.087 45.9908C384.956 45.9908 386.623 44.8241 387.416 43.1494C388.037 44.8241 389.585 45.9908 391.455 45.9908C393.324 45.9908 395 44.8241 395.805 43.1494C396.413 44.8241 397.952 45.9908 399.821 45.9908C401.691 45.9908 403.376 44.8241 404.196 43.1494C404.791 44.8241 406.32 45.9908 408.189 45.9908C410.057 45.9908 411.752 44.8241 412.585 43.1481C413.167 44.8241 414.687 45.9908 416.555 45.9908C418.425 45.9908 420.129 44.8241 420.975 43.1494C421.543 44.8241 423.053 45.9908 424.923 45.9908C426.792 45.9908 428.505 44.8241 429.364 43.1494C429.919 44.8241 431.42 45.9908 433.289 45.9908C435.159 45.9908 436.881 44.8241 437.755 43.1494C438.296 44.8241 439.787 45.9908 441.657 45.9908C444.179 45.9908 446.449 43.8681 446.732 41.2375C446.796 40.6455 446.753 40.0788 446.62 39.5561H447.284V161.147H219.004L219.013 164.013H447.284V244.861C442.436 245.684 437.683 246.249 434.737 246.249C434.053 246.249 433.468 246.219 433 246.155C432.967 246.149 432.933 246.148 432.9 246.148C431.556 246.148 429.744 249.705 432.539 250.877C434.088 251.527 440.313 252.299 447.284 252.765V303.419H219.479L219.489 306.273H447.284V347.631V421.423V436.047ZM292.993 423.487L293.307 429.6H370.391L370.676 423.487H292.993ZM335.315 393.156L334.999 423.487H364.296L365.739 393.156H335.315ZM300.463 393.156L300.263 423.487H329.561L329.675 393.156H300.463ZM287.241 375.539L287.62 382.412H376.239L376.589 375.539H287.241ZM447.284 33.0508H218.945V32.4868L219.376 33.0508H447.251L447.284 33.0068V33.0508Z" fill="#C892FF"/>
<path d="M224.113 45.9907C221.592 45.9907 219.317 43.868 219.031 41.2374C218.967 40.6454 219.009 40.0787 219.141 39.5561H227.559C227.423 40.0787 227.376 40.6454 227.436 41.2374C227.505 41.9174 227.707 42.564 228.012 43.148C227.473 44.824 225.983 45.9907 224.113 45.9907Z" fill="#DEE7F6"/>
<path d="M232.48 45.9907C230.611 45.9907 228.887 44.824 228.012 43.148C227.707 42.564 227.505 41.9174 227.436 41.2374C227.376 40.6454 227.423 40.0787 227.559 39.5561H235.977C235.837 40.0787 235.787 40.6454 235.841 41.2374C235.904 41.9187 236.101 42.5654 236.401 43.1494C235.849 44.824 234.349 45.9907 232.48 45.9907Z" fill="#DEE7F6"/>
<path d="M240.848 45.9907C238.979 45.9907 237.263 44.824 236.401 43.1494C236.101 42.5654 235.904 41.9187 235.841 41.2374C235.787 40.6454 235.837 40.0787 235.977 39.5561H244.396C244.251 40.0787 244.196 40.6454 244.247 41.2374C244.304 41.9174 244.495 42.564 244.791 43.148C244.225 44.824 242.717 45.9907 240.848 45.9907Z" fill="#DEE7F6"/>
<path d="M249.215 45.9907C247.345 45.9907 245.639 44.824 244.791 43.148C244.495 42.564 244.304 41.9174 244.247 41.2374C244.196 40.6454 244.251 40.0787 244.396 39.5561H252.815C252.665 40.0787 252.605 40.6454 252.651 41.2374C252.703 41.9187 252.889 42.5654 253.181 43.1494C252.603 44.824 251.084 45.9907 249.215 45.9907Z" fill="#DEE7F6"/>
<path d="M257.583 45.9907C255.712 45.9907 254.016 44.824 253.181 43.1494C252.889 42.5654 252.703 41.9187 252.651 41.2374C252.605 40.6454 252.665 40.0787 252.815 39.5561H261.232C261.08 40.0787 261.015 40.6454 261.056 41.2374C261.103 41.9174 261.284 42.5654 261.571 43.1494C260.979 44.824 259.451 45.9907 257.583 45.9907Z" fill="#DEE7F6"/>
<path d="M265.948 45.9907C264.079 45.9907 262.392 44.824 261.571 43.1494C261.284 42.5654 261.103 41.9174 261.056 41.2374C261.015 40.6454 261.08 40.0787 261.232 39.5561H269.651C269.493 40.0787 269.425 40.6454 269.461 41.2374C269.503 41.9174 269.679 42.564 269.96 43.148C269.355 44.824 267.819 45.9907 265.948 45.9907Z" fill="#DEE7F6"/>
<path d="M274.316 45.9907C272.447 45.9907 270.768 44.824 269.96 43.148C269.679 42.564 269.503 41.9174 269.461 41.2374C269.425 40.6454 269.493 40.0787 269.651 39.5561H278.069C277.908 40.0787 277.835 40.6454 277.865 41.2374C277.901 41.9174 278.072 42.564 278.349 43.148C277.731 44.824 276.185 45.9907 274.316 45.9907Z" fill="#DEE7F6"/>
<path d="M282.683 45.9907C280.813 45.9907 279.145 44.824 278.349 43.148C278.072 42.564 277.901 41.9174 277.865 41.2374C277.835 40.6454 277.908 40.0787 278.069 39.5561H286.487C286.321 40.0787 286.244 40.6454 286.271 41.2374C286.301 41.9187 286.467 42.5654 286.74 43.1494C286.108 44.824 284.552 45.9907 282.683 45.9907Z" fill="#DEE7F6"/>
<path d="M291.049 45.9907C289.18 45.9907 287.521 44.824 286.74 43.1494C286.467 42.5654 286.301 41.9187 286.271 41.2374C286.244 40.6454 286.321 40.0787 286.487 39.5561H294.905C294.736 40.0787 294.653 40.6454 294.676 41.2374C294.701 41.9174 294.861 42.564 295.129 43.1494C294.484 44.824 292.919 45.9907 291.049 45.9907Z" fill="#DEE7F6"/>
<path d="M299.416 45.9907C297.548 45.9907 295.897 44.824 295.129 43.1494C294.861 42.564 294.701 41.9174 294.676 41.2374C294.653 40.6454 294.736 40.0787 294.905 39.5561H303.324C303.151 40.0787 303.064 40.6454 303.081 41.2374C303.1 41.9174 303.256 42.564 303.519 43.148C302.86 44.824 301.287 45.9907 299.416 45.9907Z" fill="#DEE7F6"/>
<path d="M307.784 45.9907C305.915 45.9907 304.273 44.824 303.519 43.148C303.256 42.564 303.1 41.9174 303.081 41.2374C303.064 40.6454 303.151 40.0787 303.324 39.5561H311.743C311.564 40.0787 311.473 40.6454 311.485 41.2374C311.5 41.9174 311.651 42.564 311.909 43.148C311.236 44.824 309.653 45.9907 307.784 45.9907Z" fill="#DEE7F6"/>
<path d="M316.151 45.9907C314.281 45.9907 312.651 44.824 311.909 43.148C311.651 42.564 311.5 41.9174 311.485 41.2374C311.473 40.6454 311.564 40.0787 311.743 39.5561H320.161C319.979 40.0787 319.883 40.6454 319.891 41.2374C319.899 41.9174 320.044 42.5654 320.299 43.1494C319.613 44.824 318.02 45.9907 316.151 45.9907Z" fill="#DEE7F6"/>
<path d="M324.519 45.9907C322.649 45.9907 321.027 44.824 320.299 43.1494C320.044 42.5654 319.899 41.9174 319.891 41.2374C319.883 40.6454 319.979 40.0787 320.161 39.5561H328.579C328.393 40.0787 328.292 40.6454 328.296 41.2374C328.299 41.9174 328.439 42.564 328.688 43.148C327.989 44.824 326.388 45.9907 324.519 45.9907Z" fill="#DEE7F6"/>
<path d="M332.885 45.9907C331.016 45.9907 329.403 44.824 328.688 43.148C328.439 42.564 328.299 41.9174 328.296 41.2374C328.292 40.6454 328.393 40.0787 328.579 39.5561H336.997C336.807 40.0787 336.701 40.6454 336.7 41.2374C336.697 41.9187 336.833 42.5654 337.077 43.1494C336.365 44.824 334.755 45.9907 332.885 45.9907Z" fill="#DEE7F6"/>
<path d="M341.252 45.9907C339.383 45.9907 337.78 44.824 337.077 43.1494C336.833 42.5654 336.697 41.9187 336.7 41.2374C336.701 40.6454 336.807 40.0787 336.997 39.5561H345.416C345.221 40.0787 345.112 40.6454 345.105 41.2374C345.099 41.9174 345.228 42.564 345.468 43.148C344.741 44.824 343.121 45.9907 341.252 45.9907Z" fill="#DEE7F6"/>
<path d="M349.619 45.9907C347.749 45.9907 346.156 44.824 345.468 43.148C345.228 42.564 345.099 41.9174 345.105 41.2374C345.112 40.6454 345.221 40.0787 345.416 39.5561H353.835C353.636 40.0787 353.521 40.6454 353.511 41.2374C353.497 41.9174 353.621 42.564 353.857 43.148C353.119 44.824 351.488 45.9907 349.619 45.9907Z" fill="#DEE7F6"/>
<path d="M357.987 45.9907C356.117 45.9907 354.532 44.824 353.857 43.148C353.621 42.564 353.497 41.9174 353.511 41.2374C353.521 40.6454 353.636 40.0787 353.835 39.5561H362.252C362.049 40.0787 361.931 40.6454 361.916 41.2374C361.897 41.9174 362.016 42.564 362.247 43.148C361.495 44.824 359.856 45.9907 357.987 45.9907Z" fill="#DEE7F6"/>
<path d="M366.353 45.9907C364.484 45.9907 362.908 44.824 362.247 43.148C362.016 42.564 361.897 41.9174 361.916 41.2374C361.931 40.6454 362.049 40.0787 362.252 39.5561H370.671C370.464 40.0787 370.341 40.6454 370.32 41.2374C370.296 41.9174 370.411 42.564 370.637 43.148C369.871 44.824 368.223 45.9907 366.353 45.9907Z" fill="#DEE7F6"/>
<path d="M374.72 45.9907C372.851 45.9907 371.284 44.824 370.637 43.148C370.411 42.564 370.296 41.9174 370.32 41.2374C370.341 40.6454 370.464 40.0787 370.671 39.5561H379.089C378.877 40.0787 378.749 40.6454 378.724 41.2374C378.696 41.9187 378.805 42.5654 379.027 43.1494C378.247 44.824 376.589 45.9907 374.72 45.9907Z" fill="#DEE7F6"/>
<path d="M383.087 45.9907C381.219 45.9907 379.661 44.824 379.027 43.1494C378.805 42.5654 378.696 41.9187 378.724 41.2374C378.749 40.6454 378.877 40.0787 379.089 39.5561H387.508C387.292 40.0787 387.16 40.6454 387.129 41.2374C387.095 41.9187 387.199 42.5654 387.416 43.1494C386.623 44.824 384.956 45.9907 383.087 45.9907Z" fill="#DEE7F6"/>
<path d="M391.455 45.9907C389.585 45.9907 388.037 44.824 387.416 43.1494C387.199 42.5654 387.095 41.9187 387.129 41.2374C387.16 40.6454 387.292 40.0787 387.508 39.5561H395.925C395.705 40.0787 395.569 40.6454 395.535 41.2374C395.495 41.9187 395.593 42.5654 395.805 43.1494C395 44.824 393.324 45.9907 391.455 45.9907Z" fill="#DEE7F6"/>
<path d="M399.821 45.9907C397.952 45.9907 396.413 44.824 395.805 43.1494C395.593 42.5654 395.495 41.9187 395.535 41.2374C395.569 40.6454 395.705 40.0787 395.925 39.5561H404.344C404.12 40.0787 403.979 40.6454 403.94 41.2374C403.895 41.9174 403.988 42.564 404.196 43.1494C403.376 44.824 401.691 45.9907 399.821 45.9907Z" fill="#DEE7F6"/>
<path d="M408.189 45.9907C406.32 45.9907 404.791 44.824 404.196 43.1494C403.988 42.564 403.895 41.9174 403.94 41.2374C403.979 40.6454 404.12 40.0787 404.344 39.5561H412.763C412.535 40.0787 412.388 40.6454 412.344 41.2374C412.293 41.9174 412.383 42.564 412.585 43.148C411.752 44.824 410.057 45.9907 408.189 45.9907Z" fill="#DEE7F6"/>
<path d="M416.555 45.9907C414.687 45.9907 413.167 44.824 412.585 43.148C412.383 42.564 412.293 41.9174 412.344 41.2374C412.388 40.6454 412.535 40.0787 412.763 39.5561H421.181C420.948 40.0787 420.799 40.6454 420.749 41.2374C420.693 41.9187 420.776 42.5654 420.975 43.1494C420.129 44.824 418.425 45.9907 416.555 45.9907Z" fill="#DEE7F6"/>
<path d="M424.923 45.9907C423.053 45.9907 421.543 44.824 420.975 43.1494C420.776 42.5654 420.693 41.9187 420.749 41.2374C420.799 40.6454 420.948 40.0787 421.181 39.5561H429.599C429.363 40.0787 429.208 40.6454 429.155 41.2374C429.092 41.9187 429.171 42.5654 429.364 43.1494C428.505 44.824 426.792 45.9907 424.923 45.9907Z" fill="#DEE7F6"/>
<path d="M433.289 45.9907C431.42 45.9907 429.919 44.824 429.364 43.1494C429.171 42.5654 429.092 41.9187 429.155 41.2374C429.208 40.6454 429.363 40.0787 429.599 39.5561H438.017C437.777 40.0787 437.617 40.6454 437.559 41.2374C437.492 41.9187 437.565 42.5654 437.755 43.1494C436.881 44.824 435.159 45.9907 433.289 45.9907Z" fill="#DEE7F6"/>
<path d="M441.657 45.9907C439.787 45.9907 438.296 44.824 437.755 43.1494C437.565 42.5654 437.492 41.9187 437.559 41.2374C437.617 40.6454 437.777 40.0787 438.017 39.5561H446.62C446.753 40.0787 446.796 40.6454 446.732 41.2374C446.449 43.868 444.179 45.9907 441.657 45.9907Z" fill="#DEE7F6"/>
<path d="M214.425 33.0507H452.248L452.233 39.556H214.443L214.425 33.0507Z" fill="#9333EA"/>
<path d="M214.408 26.544L219.376 33.0507H447.251L452.263 26.544H214.408Z" fill="#9333EA"/>
<path d="M447.251 33.0507L447.265 26.544H219.359L219.376 33.0507L214.408 26.544H452.263L447.251 33.0507Z" fill="#26489D"/>
<path d="M214.389 20.0146H452.277L452.263 26.5439H214.408L214.389 20.0146Z" fill="#9333EA"/>
<path d="M219.359 26.544H447.265L447.251 33.0507H219.376L219.359 26.544Z" fill="#9333EA"/>
<path d="M447.251 33.0507H219.376L219.359 26.544H447.265L447.251 33.0507Z" fill="#DBE8F7"/>
<path d="M447.284 164.013H447.335V161.147H447.284V164.013Z" fill="#FBFDFE"/>
<path d="M447.284 164.013H219.013L219.004 161.147H447.284V164.013Z" fill="#DEEAF8"/>
<path d="M447.327 306.273H447.284V303.419H447.328L447.327 306.273Z" fill="#FCFEFF"/>
<path d="M447.284 306.273H219.489L219.479 303.419H447.284V306.273Z" fill="#EBF3FB"/>
<path d="M294.563 88.9333H266.339V58.444H294.563V88.9333Z" fill="#9333EA"/>
<path d="M348.772 88.9333H320.548V58.444H348.772V88.9333Z" fill="#9333EA"/>
<path d="M402.983 88.9333H374.759V58.444H402.983V88.9333Z" fill="#9333EA"/>
<path d="M294.563 134.591H266.339V104.1H294.563V134.591Z" fill="#9333EA"/>
<path d="M348.772 134.591H320.548V104.1H348.772V134.591Z" fill="#9333EA"/>
<path d="M402.983 134.591H374.759V104.1H402.983V134.591Z" fill="#9333EA"/>
<path d="M294.563 355.868H266.339V325.379H294.563V355.868Z" fill="#9333EA"/>
<path d="M348.772 355.868H320.548V325.379H348.772V355.868Z" fill="#9333EA"/>
<path d="M402.983 355.868H374.759V325.379H402.983V355.868Z" fill="#9333EA"/>
<path d="M264.323 420.065H236.099V389.577H264.323V420.065Z" fill="#9333EA"/>
<path d="M430.161 420.065H401.937V389.577H430.161V420.065Z" fill="#9333EA"/>
<path d="M294.563 218.524H266.339V188.035H294.563V218.524Z" fill="#9333EA"/>
<path d="M348.772 218.524H320.548V188.035H348.772V218.524Z" fill="#9333EA"/>
<path d="M402.983 218.524H374.759V188.035H402.983V218.524Z" fill="#9333EA"/>
<path d="M294.563 264.18H266.339V233.692H294.563V264.18Z" fill="#9333EA"/>
<path d="M348.772 264.18H320.548V233.692H348.772V264.18Z" fill="#9333EA"/>
<path d="M402.983 264.18H374.759V233.692H402.983V264.18Z" fill="#9333EA"/>
<path d="M329.561 423.487H300.263L300.463 393.156H329.675L329.561 423.487Z" fill="#EBF3FB"/>
<path d="M364.296 423.487H334.999L335.315 393.156H365.739L364.296 423.487Z" fill="#EBF3FB"/>
<path d="M370.391 429.6H293.307L292.993 423.487H370.676L370.391 429.6Z" fill="#9333EA"/>
<path d="M370.391 429.6H293.307L292.993 423.487H370.676L370.391 429.6Z" fill="#537BC6"/>
<path d="M373.495 436.047H290.58L290.249 430.034H373.803L373.495 436.047Z" fill="#9333EA"/>
<path d="M376.239 382.412H287.62L287.241 375.539H376.589L376.239 382.412Z" fill="#BBD2EF"/>
<path d="M287.62 382.412L300.463 393.156H365.739L376.239 382.412H287.62Z" fill="#1D2A30"/>
<path d="M293.631 387.44L298.16 423.487H301.761L300.312 387.44C298.236 386.351 295.609 386.351 293.631 387.44Z" fill="#9333EA"/>
<path d="M371.488 387.44L367.051 423.487H363.449L364.807 387.44C366.788 386.101 369.619 386.101 371.488 387.44Z" fill="#9333EA"/>
<path d="M257.927 10.1214C257.927 4.22669 262.436 0.0493502 268.58 0.0493502C272.148 0.0493502 275.027 1.34934 276.908 3.70134L273.421 6.85602C272.204 5.39069 270.709 4.58669 268.856 4.58669C265.673 4.58669 263.46 6.80002 263.46 10.1214C263.46 13.4414 265.673 15.6547 268.856 15.6547C270.709 15.6547 272.204 14.852 273.421 13.3867L276.908 16.54C275.027 18.8933 272.148 20.1934 268.58 20.1934C262.436 20.1934 257.927 16.0147 257.927 10.1214Z" fill="#1D2A30"/>
<path d="M293.919 10.1214C293.919 6.77335 291.623 4.58669 288.691 4.58669C285.756 4.58669 283.46 6.77335 283.46 10.1214C283.46 13.4694 285.756 15.6547 288.691 15.6547C291.623 15.6547 293.919 13.4694 293.919 10.1214ZM277.927 10.1214C277.927 4.31069 282.492 0.0493502 288.691 0.0493502C294.888 0.0493502 299.453 4.31069 299.453 10.1214C299.453 15.932 294.888 20.1934 288.691 20.1934C282.492 20.1934 277.927 15.932 277.927 10.1214Z" fill="#1D2A30"/>
<path d="M319.811 19.8053L319.756 9.53997L314.776 17.896H312.34L307.388 9.81731V19.8053H302.324V0.437298H306.835L313.64 11.6146L320.281 0.437298H324.792L324.847 19.8053H319.811Z" fill="#1D2A30"/>
<path d="M340.639 7.60396C340.639 5.8053 339.505 4.75331 337.236 4.75331H334.193V10.4253H337.236C339.505 10.4253 340.639 9.37463 340.639 7.60396ZM346.173 7.60396C346.173 12.0026 342.853 14.7413 337.568 14.7413H334.193V19.8053H328.715V0.437298H337.568C342.853 0.437298 346.173 3.1773 346.173 7.60396Z" fill="#1D2A30"/>
<path d="M359.229 12.0026L356.739 5.8053L354.249 12.0026H359.229ZM360.833 16.0426H352.643L351.121 19.8053H345.532L354.083 0.437298H359.477L368.056 19.8053H362.356L360.833 16.0426Z" fill="#1D2A30"/>
<path d="M388.027 0.437298V19.8053H383.517L374.967 9.48531V19.8053H369.599V0.437298H374.109L382.659 10.7573V0.437298H388.027Z" fill="#1D2A30"/>
<path d="M402.271 12.86V19.8053H396.793V12.7773L389.405 0.437298H395.188L399.781 8.12932L404.373 0.437298H409.687L402.271 12.86Z" fill="#1D2A30"/>
<path d="M482.912 234.897C475.741 244.56 472.975 248.993 470.196 251.736C467.179 254.716 436.272 252.444 432.539 250.877C429.673 249.675 431.649 245.967 433 246.155C438.087 246.857 457.209 243.509 462.879 241.035C463.873 240.599 473.565 228.828 473.565 228.828L482.912 234.897Z" fill="#F8A461"/>
<path d="M471.143 228.519C477.204 217.411 489.139 209.256 492.747 208.799C497.947 208.123 499.693 209.151 498.169 213.335C495.584 220.429 490.823 227.905 484.117 236.948L471.143 228.519Z" fill="#9333EA"/>
<path d="M482.469 235.877L482.279 235.753L472.885 229.651L471.143 228.519C477.204 217.411 489.139 209.256 492.747 208.799C491.008 209.435 488.049 217.743 488.049 217.743C484.207 226.148 480.659 227.861 480.889 229.449C481.128 231.099 481.457 233.429 482.469 235.877Z" fill="#4168BB"/>
<path d="M492.747 208.799C495.727 207.728 496.971 207.333 501.683 206.113C507.216 204.784 512.832 203.859 518.489 203.341C522.071 202.937 525.6 202.815 528.413 202.793C528.749 202.792 529.085 202.829 529.415 202.903C531.955 203.473 533.6 206.088 533.085 208.748C527.523 238.143 527.256 251.183 528.057 266.324L494.219 267.531C493.353 267.561 492.597 266.916 492.42 266.013C490.924 258.383 486.236 241.431 486.236 241.431C482.011 237.376 481.311 232.355 480.889 229.449C480.659 227.861 484.207 226.148 488.049 217.743C488.049 217.743 491.008 209.435 492.747 208.799Z" fill="#9333EA"/>
<path d="M514.136 266.815L501.797 267.264C499.956 252.619 500.309 239.645 500.945 225.064C504.913 239.707 508.675 252.493 514.136 266.815Z" fill="#1D2A30"/>
<path d="M517.709 379.604C517.401 378.928 517.092 378.223 516.795 377.505C503.488 345.707 493.311 281.441 493.311 281.441L517.047 269.335C517.047 269.335 523.804 325.832 533.048 362.592C534.468 368.196 535.92 373.32 537.425 377.699L521.228 385.143L517.709 379.604Z" fill="#F8A461"/>
<path d="M516.795 377.505C515.92 375.416 515.057 373.184 514.212 370.84C520.345 370.081 524.287 368.762 527.347 367.576C523.828 370.729 520.292 374.046 516.795 377.505Z" fill="#4B433B"/>
<path d="M495.075 273.099C495.075 273.099 484.221 349.095 486.792 380.187C489.504 412.943 499.188 469.039 499.188 469.039L507.195 468.493C507.195 468.493 511.977 426.272 505.213 380.651C523.545 333.467 525.599 274.303 525.599 274.303L495.075 273.099Z" fill="#F8A461"/>
<path d="M499.188 469.039C499.188 469.039 494.145 439.825 490.319 411.253C489.631 406.119 488.981 401.003 488.409 396.081C487.752 390.44 487.195 385.057 486.792 380.187C486.524 376.94 486.401 373.2 486.399 369.112C491.483 370.494 503.697 371.184 508.616 371.227C507.549 374.405 506.416 377.555 505.213 380.651C508.015 399.54 508.835 417.848 508.836 432.816C508.836 434.1 508.829 435.361 508.819 436.595C508.817 436.707 508.816 436.816 508.815 436.928C508.627 455.851 507.195 468.493 507.195 468.493L499.188 469.039Z" fill="#4B433B"/>
<path d="M508.221 470.994C508.779 472.045 509.089 473.224 509.123 474.431C509.335 478.827 509.644 490.51 509.644 490.51L508.676 490.577C508.676 490.577 508.088 484.849 507.427 481.981C506.768 479.116 506.324 481.585 504.855 484.713C503.383 487.845 499.269 491.057 493 491.646C485.648 492.333 482.649 492.191 484.673 490.136C486.696 488.084 491.497 486.522 491.497 486.522C491.497 486.522 497.892 475.563 497.524 468.184C497.124 460.305 506.223 467.707 507.988 466.603C508.607 466.698 507.867 470.353 508.221 470.994Z" fill="#1D2A30"/>
<path d="M533.588 365.364C528.927 366.375 524.805 369.793 512.569 371.024C512.328 371.04 512.087 371.067 511.835 371.086C511.323 371.141 510.787 371.177 510.229 371.205C506.94 371.387 488.167 370.505 484.679 368.465C487.709 337.193 493.667 270.76 493.667 270.76L508.016 269.016L526.507 268.452C526.507 268.452 546.903 289.521 542.215 308.633C535.2 337.235 538.711 341.676 533.588 365.364Z" fill="#1D2A30"/>
<path d="M527.885 251.315C526.916 250.179 526.265 248.971 526.496 247.528C526.496 247.528 526.46 245.425 526.423 242.227C526.315 232.864 526.237 214.207 527.217 211.739C529.347 206.388 532.997 203.489 534.909 206.615C537.144 210.267 537.307 237.981 537.307 237.981C536.783 256.309 530.073 253.872 527.885 251.315Z" fill="#F8A461"/>
<path d="M523.445 202.257L522.327 204.279C518.005 212.12 508.003 222.207 504.089 223.2C503.175 221.077 501.772 219.209 499.999 217.751C497.907 218.783 496.325 220.643 495.627 222.895C492.273 217.449 492.569 210.573 493.417 207.165C495.387 206.568 497.488 205.961 499.495 205.465C505.029 204.175 510.645 203.273 516.304 202.765C518.779 202.432 521.235 202.275 523.445 202.257Z" fill="#9333EA"/>
<path d="M497.909 223.651C497.395 222.816 496.912 221.928 496.467 221.013C497.304 219.617 498.524 218.479 499.999 217.751C500.279 217.981 500.549 218.221 500.811 218.472C499.445 219.843 498.436 221.947 497.909 223.651Z" fill="#DBE8F7"/>
<path d="M504.089 223.2C503.184 221.099 502.256 217.485 502.237 217.415C503.261 217.119 504.633 216.425 506.463 215.159C514.863 209.348 513.72 203.521 513.72 203.521C513.372 203.44 513.029 203.312 512.696 203.143C513.896 203 515.099 202.873 516.304 202.765C518.779 202.432 521.235 202.275 523.445 202.257L522.327 204.279C518.005 212.12 508.003 222.207 504.089 223.2ZM496.467 221.013C494.011 215.963 492.699 210.051 493.417 207.165C495.387 206.568 497.488 205.961 499.495 205.465C500.229 205.293 500.965 205.129 501.703 204.972C502.572 207.133 502.533 209.56 500.461 212.295C499.755 213.227 499.319 214.369 499.371 215.543C499.417 216.587 499.808 217.592 501.14 217.592C501.451 217.592 501.812 217.539 502.232 217.417C501.724 217.668 501.249 218.032 500.811 218.472C500.549 218.221 500.279 217.981 499.999 217.751C498.524 218.479 497.304 219.617 496.467 221.013Z" fill="#DBE8F7"/>
<path d="M497.701 240.407L493.069 234.12L488.924 242.335C488.924 242.335 493.16 244.7 496.675 243.904L497.701 240.407Z" fill="#F8A461"/>
<path d="M485.713 232.177L483.74 238.819L488.916 242.292L493.069 234.12L485.713 232.177Z" fill="#F8A461"/>
<path d="M528.028 270.216L510.888 270.675L509.455 270.709L505.749 270.803L504.327 270.847L494.269 271.111C493.957 271.079 493.68 270.96 493.667 270.76L493.272 267.533C493.237 267.315 493.513 267.115 493.864 267.103L503.812 266.709L505.007 266.66L509.92 266.472L511.084 266.425L527.585 265.775C527.811 265.749 528.035 265.839 528.183 266.029L528.591 269.691C528.721 269.936 528.431 270.199 528.028 270.216Z" fill="#9333EA"/>
<path d="M528.212 266.297L526.825 265.804L527.585 265.775C527.609 265.772 527.635 265.771 527.659 265.771C527.859 265.771 528.051 265.86 528.183 266.029L528.212 266.297Z" fill="#658ACF"/>
<path d="M499.009 271.412L500.108 271.395C500.333 271.42 500.492 271.265 500.483 271.117L499.868 266.548C499.881 266.415 499.655 266.293 499.428 266.293L498.329 266.321C498.105 266.297 497.947 266.451 497.956 266.587L498.568 271.169C498.637 271.311 498.781 271.424 499.009 271.412Z" fill="#1D2A30"/>
<path d="M518.105 271.136L519.148 271.109C519.361 271.132 519.511 270.987 519.5 270.857L518.887 266.264C518.899 266.137 518.672 266.021 518.468 266.033L517.425 266.06C517.213 266.039 517.064 266.172 517.073 266.312L517.688 270.884C517.707 271.036 517.889 271.136 518.105 271.136Z" fill="#1D2A30"/>
<path d="M523.788 290.88L521.144 289.935L533.015 254.425C534.901 248.779 534.185 243.401 527.189 240.931C520.647 238.619 515.496 241.917 513.591 247.545L501.603 282.945L498.969 282.001L510.973 246.617C513.193 240.076 517.457 235.636 527.748 239.271C538.057 242.909 537.833 248.788 535.643 255.356L523.788 290.88Z" fill="#9333EA"/>
<path d="M530.491 312.781L478.505 294.1L490.297 259.671C491.453 256.297 495.067 254.517 498.371 255.692L536.264 269.159C540.544 270.68 542.843 275.455 541.395 279.832L530.491 312.781Z" fill="#9333EA"/>
<path d="M532.432 306.913L539.043 286.941L532.449 306.861C532.444 306.879 532.439 306.896 532.432 306.913Z" fill="#758288"/>
<path d="M491.149 298.644L484.22 296.155C484.185 296.143 484.152 296.129 484.119 296.117L491.149 298.644Z" fill="#F7F9FD"/>
<path d="M526.74 311.064C526.075 311.064 525.396 310.951 524.731 310.712L513.02 306.504L491.149 298.644L484.119 296.117C481.028 294.943 479.419 291.435 480.517 288.227L490.297 259.671C491.212 257.003 493.665 255.331 496.285 255.331C496.977 255.331 497.681 255.447 498.371 255.692L506.871 258.712L498.969 282.001L499.445 284.743L501.603 282.945L509.493 259.644L528.957 266.561L521.144 289.935L521.697 292.707L523.788 290.88L531.591 267.497L536.264 269.159C539.675 270.371 541.827 273.649 541.828 277.145C541.829 278.037 541.689 278.943 541.395 279.832L539.043 286.941L532.432 306.913C531.563 309.467 529.237 311.064 526.74 311.064Z" fill="#C892FF"/>
<path d="M531.591 267.497L528.957 266.561L533.015 254.425C533.579 252.739 533.909 251.075 533.911 249.507C533.912 245.825 532.095 242.663 527.189 240.931C525.749 240.421 524.375 240.184 523.089 240.184C518.536 240.184 515.077 243.156 513.591 247.545L509.493 259.644L506.871 258.712L510.973 246.617C512.643 241.697 515.471 237.965 521.148 237.965C523.019 237.965 525.197 238.369 527.748 239.271C534.695 241.723 536.859 245.192 536.861 249.203C536.863 251.145 536.357 253.213 535.643 255.356L531.591 267.497Z" fill="#799BD7"/>
<path d="M521.697 292.707L521.144 289.935L528.957 266.561L531.591 267.497L523.788 290.88L521.697 292.707ZM499.445 284.743L498.969 282.001L506.871 258.712L509.493 259.644L501.603 282.945L499.445 284.743Z" fill="#B0C8EB"/>
<path d="M506.984 269.507L502.647 267.963L503.204 266.321L507.539 267.865L506.984 269.507Z" fill="#9333EA"/>
<path d="M503.381 280.151L499.036 278.597L499.596 276.949L503.94 278.501L503.381 280.151Z" fill="#9333EA"/>
<path d="M529.267 277.448L524.913 275.896L525.464 274.251L529.816 275.8L529.267 277.448Z" fill="#9333EA"/>
<path d="M525.705 288.128L521.344 286.569L521.897 284.916L526.257 286.473L525.705 288.128Z" fill="#9333EA"/>
<path d="M520.665 275.432L511.355 272.113L512.54 268.601L521.844 271.913L520.665 275.432Z" fill="white"/>
<path d="M531.889 252.961C527.724 255.356 510.839 252.649 496.56 244.059C495.888 243.655 495.185 243.709 494.968 243.547C494.084 242.888 496.344 241.388 497.676 240.696C498.409 240.315 529.921 244.297 532.095 244.601C534.516 251.019 532.296 250.941 531.889 252.961Z" fill="#F8A461"/>
<path d="M518.436 382.18C520.74 388.724 528.432 391.604 533.807 387.546C534.029 387.377 534.243 387.2 534.443 387.015C557.771 365.416 587.447 333.935 587.447 333.935L582.448 327.597C582.448 327.597 558.903 340.527 533.048 362.592C527.675 367.175 522.189 372.168 516.795 377.505L516.796 377.519L518.436 382.18Z" fill="#F8A461"/>
<path d="M528.259 389.417C524.488 389.417 520.761 387.137 518.929 383.364C518.745 382.984 518.58 382.589 518.436 382.18L516.796 377.519L516.795 377.505C522.189 372.168 527.675 367.175 533.048 362.592C558.903 340.527 582.448 327.597 582.448 327.597L587.447 333.935C587.447 333.935 586.511 334.928 584.84 336.683C584.34 337.208 583.772 337.803 583.145 338.459C580.875 340.836 577.811 344.027 574.211 347.736C573.996 347.957 573.78 348.181 573.561 348.405C568.893 353.212 563.381 358.829 557.556 364.651C555.879 366.327 554.176 368.019 552.46 369.713C547.653 374.46 542.745 379.221 538.015 383.677C536.811 384.812 535.619 385.927 534.443 387.015C534.243 387.2 534.029 387.377 533.807 387.545C532.948 388.193 532.032 388.664 531.087 388.972C530.161 389.273 529.208 389.417 528.259 389.417Z" fill="#4B433B"/>
<path d="M579.428 328.365C579.761 327.285 580.345 326.313 581.131 325.531C583.931 322.615 591.5 315.096 591.5 315.096L592.187 315.772C592.187 315.772 588.773 319.777 587.303 322.06C585.831 324.345 587.773 323.129 590.833 322.267C593.892 321.401 598.759 322.452 603.327 326.747C608.693 331.796 610.607 334.125 607.895 333.907C605.183 333.689 600.939 331.085 600.939 331.085C600.939 331.085 589.373 333.212 584.677 338.159C579.644 343.472 578.551 331.935 576.631 331.309C576.283 330.784 579.233 329.033 579.428 328.365Z" fill="#1D2A30"/>
<path d="M499.345 201.291C501.857 204.276 503.801 207.885 500.461 212.295C499.755 213.227 499.319 214.369 499.371 215.543C499.453 217.424 500.656 219.179 506.463 215.159C514.863 209.348 513.72 203.521 513.72 203.521C509.024 202.428 505.611 192.897 504.171 187.427L499.345 201.291Z" fill="#F8A461"/>
<path d="M501.064 203.681C500.949 203.484 500.829 203.289 500.707 203.096C500.832 203.288 500.952 203.483 501.067 203.68C501.065 203.68 501.065 203.681 501.064 203.681Z" fill="#BDC2CE"/>
<path d="M501.067 203.68C500.952 203.483 500.832 203.288 500.707 203.096C500.299 202.461 499.847 201.856 499.353 201.285L502.212 193.077C503.067 193.829 503.761 194.749 504.249 195.784C505.085 198.103 502.853 202.049 501.067 203.68Z" fill="#DE8546"/>
<path d="M479.3 175.84C477.063 184.541 480.401 194.095 486.552 200.655C492.767 193.843 504.507 195.276 511.04 188.816C515.411 184.496 516.216 177.235 513.512 171.719C510.596 165.767 502.012 160.037 495.244 160.975C487.647 162.028 481.185 168.504 479.3 175.84Z" fill="#1D2A30"/>
<path d="M505.184 172.875C501.377 167.289 493.781 165.856 488.204 169.664C480.319 174.977 481.788 188.305 485.303 195.857C489.175 204.295 500.461 204.633 505.736 196.365C509.267 190.863 508.516 187.097 507.209 178.163C506.953 176.265 506.26 174.455 505.184 172.875Z" fill="#F8A461"/>
<path d="M489.764 191.547C488.929 191.955 487.96 191.973 487.111 191.601C487.88 189.971 488.42 188.241 488.719 186.464L489.764 191.547Z" fill="#F5782F"/>
<path d="M496.604 190.771L496.483 190.489L496.201 190.612C495.408 192.291 493.859 193.484 492.039 193.816L491.877 194.071L491.88 194.083L492.121 194.237C492.465 194.175 492.803 194.083 493.132 193.963C494.667 193.409 495.917 192.259 496.604 190.771Z" fill="#1D2A30"/>
<path d="M490.269 165.601C489.571 166.732 489.103 167.997 488.948 169.327C499.361 171.735 507.045 182.637 509.993 193.023C512.813 189.319 518.339 184.785 520.475 180.331C522.871 175.335 519.677 169.609 514.876 166.861C511.588 164.977 505.304 162.819 501.68 161.647C497.423 160.272 492.625 161.789 490.269 165.601Z" fill="#1D2A30"/>
<path d="M511.135 183.547C510.808 181.944 509.252 180.907 507.659 181.231C505.46 181.72 504.656 184.795 504.788 186.764C504.967 188.941 506.663 190.444 508.533 189.087C509.931 188.045 510.861 186.493 511.127 184.765C511.213 184.364 511.216 183.948 511.135 183.547Z" fill="#F8A461"/>
<path d="M493.976 182.661C494.209 183.531 493.935 184.364 493.359 184.525C492.783 184.687 492.141 184.099 491.916 183.212C491.688 182.325 491.959 181.508 492.523 181.353C493.088 181.197 493.739 181.78 493.976 182.661Z" fill="#1D2A30"/>
<path d="M486.028 185.512C486.26 186.384 485.984 187.219 485.417 187.373C484.852 187.529 484.201 186.945 483.965 186.063C483.729 185.181 484.012 184.359 484.577 184.203C485.141 184.048 485.803 184.625 486.028 185.512Z" fill="#1D2A30"/>
<path d="M484.839 184.183L482.587 184.144C482.587 184.144 484.097 185.492 484.839 184.183Z" fill="#1D2A30"/>
<path d="M495.648 178.712L495.819 178.56C495.951 178.356 495.892 178.083 495.689 177.949L495.681 177.945C494.297 176.999 492.54 176.788 490.972 177.383C490.755 177.489 490.66 177.747 490.752 177.968C490.851 178.187 491.105 178.285 491.324 178.192C492.628 177.723 494.075 177.908 495.216 178.693C495.347 178.775 495.511 178.781 495.648 178.712Z" fill="#1D2A30"/>
<path d="M482.248 183.487L482.381 183.3C482.867 182.001 483.941 181.015 485.269 180.643C485.508 180.599 485.667 180.368 485.623 180.128V180.123C485.569 179.883 485.336 179.729 485.096 179.777C483.475 180.208 482.157 181.399 481.557 182.973C481.457 183.197 481.556 183.459 481.777 183.559C481.935 183.629 482.117 183.601 482.248 183.487Z" fill="#1D2A30"/>
<path d="M492.785 181.333L490.533 181.295C490.533 181.295 492.047 182.64 492.785 181.333Z" fill="#1D2A30"/>
<path d="M481.029 188.416C482.051 193.887 486.496 201.449 491.233 204.352C488.043 206.771 482.328 204.033 478.967 201.891C475.608 199.752 473.539 195.913 472.955 191.956C472.372 188.005 473.144 183.949 474.528 180.208C476.809 174.048 481.147 169.149 486.248 165.057C487.271 164.237 489.005 163.579 489.672 164.704C490.129 165.477 489.605 166.445 489.095 167.188C484.167 174.363 480.303 179.364 481.029 188.416Z" fill="#1D2A30"/>
<path d="M505.779 198.425L505.699 198.416C505.52 198.371 505.411 198.191 505.455 198.012C509.013 183.617 493.584 172.633 488.771 169.611C488.613 169.512 488.567 169.307 488.665 169.151C488.764 168.995 488.971 168.948 489.124 169.045C494.033 172.129 509.768 183.343 506.103 198.172C506.064 198.324 505.928 198.425 505.779 198.425Z" fill="#1D2A30"/>
<path d="M508.483 187.996L508.191 193.084L509.545 194.197L510.211 192.637L508.483 187.996Z" fill="#9333EA"/>
<path d="M530.943 203.257C528.78 202.74 526.453 203.328 524.921 204.939C523.233 206.713 522.175 209.195 521.857 211.679C521.365 215.523 522.328 219.404 523.376 223.153C524.425 226.908 525.581 230.721 525.477 234.628C529.56 232.392 535.493 227.933 541.2 227.373C540.413 218.285 539.363 212.239 537.599 209.231C536.585 207.503 535.539 205.737 533.988 204.485C533.297 203.929 532.08 203.529 530.943 203.257Z" fill="#9333EA"/>
<path d="M525.477 234.628C525.481 234.46 525.484 234.292 525.484 234.125C525.483 230.393 524.381 226.747 523.376 223.153C522.52 220.092 521.721 216.943 521.724 213.799C521.725 213.091 521.767 212.384 521.857 211.679C522.175 209.195 523.233 206.713 524.921 204.939C526.092 203.708 527.725 203.075 529.396 203.075C529.912 203.075 530.432 203.135 530.943 203.257C532.08 203.529 533.297 203.929 533.988 204.485C535.539 205.737 536.585 207.503 537.599 209.231C539.363 212.239 540.413 218.285 541.2 227.373C539.843 227.507 538.473 227.86 537.117 228.352C533.176 229.783 529.363 232.384 526.364 234.127C526.06 234.303 525.764 234.471 525.477 234.628Z" fill="#537BC6"/>
<path d="M433.776 246.064C433.776 246.064 423.708 247.727 423.58 248.183C423.452 248.637 423.496 254.301 423.496 254.301L432.539 250.877L433.776 246.064Z" fill="#F8A461"/>
<path d="M423.496 254.301L414.992 246.287L418.792 245.184L425.099 248.605L423.496 254.301Z" fill="#F8A461"/>
<path d="M166.681 457.635L176.184 457.116L177.021 479.631L167.519 480.149L166.681 457.635Z" fill="#F57D88"/>
<path d="M179.365 477.596C182.315 479.429 186.597 481.028 194.401 481.812C196.127 481.988 196.699 485.949 192.679 486.382C188.659 486.816 181.661 487.449 178.761 487.768C174.032 488.279 172.269 488.697 168.531 489.165C167.6 489.257 166.771 488.581 166.672 487.652L166.269 479.092C166.243 478.715 166.527 478.388 166.903 478.357L177.652 477.182C178.253 477.132 178.855 477.277 179.365 477.596Z" fill="#1D2A30"/>
<path d="M167.107 469.247L166.877 463.04H166.881L167.113 469.247H167.107ZM176.616 468.731L176.388 462.596H176.389L176.621 468.729L176.616 468.731Z" fill="#CECDCC"/>
<path d="M167.113 469.247L166.881 463.04L176.388 462.596L176.616 468.731L167.113 469.247Z" fill="#DD6368"/>
<path d="M180.251 478.665C181.271 477.898 182.787 476.859 183.44 477.048C183.577 477.086 183.684 477.194 183.719 477.334C183.852 477.598 183.824 477.912 183.647 478.149C183.251 478.658 182.001 478.846 180.247 478.688L180.251 478.665ZM183.985 478.396C184.251 478.044 184.307 477.575 184.132 477.168C184.048 476.887 183.82 476.67 183.533 476.601C182.32 476.27 179.815 478.408 179.533 478.664L179.485 478.892L179.677 479.059C180.532 479.174 181.399 479.192 182.259 479.113C182.904 479.098 183.519 478.841 183.985 478.396Z" fill="#9333EA"/>
<path d="M180.681 475.028C181.009 475.021 181.165 475.18 181.139 475.301C181.113 476.46 180.64 477.564 179.82 478.384C179.588 477.341 179.691 476.253 180.113 475.273C180.227 475.129 180.396 475.043 180.58 475.032L180.681 475.028ZM179.839 479.004C180.739 478.327 181.937 476.175 181.611 475.163C181.485 474.786 181.121 474.543 180.727 474.572C180.375 474.557 180.035 474.709 179.809 474.982C178.947 476.02 179.513 478.76 179.491 478.868L179.619 479.033L179.728 479.057L179.839 479.004Z" fill="#9333EA"/>
<path d="M91.5516 447.648L100.975 449.643L94.1068 470.967L84.6948 468.974L91.5516 447.648Z" fill="#F57D88"/>
<path d="M96.6599 470.979C98.8703 473.624 103.431 476.881 110.605 480.051C112.204 480.767 111.497 484.696 107.545 483.858C103.592 483.022 95.774 481.053 92.9057 480.445C88.2536 479.46 86.4484 479.305 82.7573 478.6C81.8407 478.398 81.2599 477.492 81.4609 476.575L83.7401 468.305C83.838 467.943 84.2088 467.724 84.5745 467.816L95.1557 470.056C95.7448 470.189 96.274 470.513 96.6599 470.979Z" fill="#1D2A30"/>
<path d="M88.0151 458.646H88.0136L88.8672 455.994H88.8677L88.0151 458.646Z" fill="#CECDCC"/>
<path d="M97.426 460.639L88.0151 458.647L88.8677 455.994L98.2817 457.988L97.426 460.639Z" fill="#DD6368"/>
<path d="M151.396 248.045C151.396 248.045 161.429 334.813 162.193 367.246C162.895 397.122 162.396 463.249 162.396 463.249L179.691 462.443C179.691 462.443 186.9 401.003 188.968 370.893C190.863 343.331 184.959 255.149 184.959 255.149L151.396 248.045Z" fill="#9333EA"/>
<path d="M161.092 342.655C159.479 326.415 157.736 307.505 156.299 291.227C157.309 286.78 158.26 282.579 159.124 278.753C160.244 279.297 161.469 281.429 162.747 286.101C167.492 303.348 165.057 331.475 161.092 342.655Z" fill="#395EB4"/>
<path d="M159.564 459.792L181.921 458.092L180.893 465.441L162.08 466.999L159.564 459.792Z" fill="#1D2A30"/>
<path d="M131.776 251.407C131.776 251.407 115.589 331.261 109.995 363.217C104.844 392.661 84.6229 455.096 84.6229 455.096L101.869 458.747C101.869 458.747 130.453 395.589 138.376 366.431C145.613 339.795 163.736 258.172 163.736 258.172L131.776 251.407Z" fill="#9333EA"/>
<path d="M84.2005 449.239L107.375 453.075L104.954 459.398L83.924 454.946L84.2005 449.239Z" fill="#1D2A30"/>
<path d="M96.3803 471.347C97.6136 470.877 99.3484 470.413 99.8563 470.811C99.9729 470.893 100.039 471.032 100.031 471.175C100.066 471.465 99.9427 471.752 99.7084 471.925C99.1703 472.265 97.9188 472.051 96.3125 471.37L96.3803 471.347ZM99.9527 472.317C100.323 472.059 100.523 471.617 100.473 471.168C100.486 470.876 100.344 470.598 100.099 470.435C99.0489 469.745 95.988 471 95.6437 471.14L95.5109 471.352L95.6437 471.557C96.4219 471.932 97.238 472.224 98.0787 472.424C98.6959 472.615 99.3615 472.577 99.9527 472.317Z" fill="#9333EA"/>
<path d="M97.9401 468.025C98.2552 468.143 98.3208 468.308 98.2927 468.441C98.2943 469.146 97.0385 470.441 96.0735 470.955C96.174 469.892 96.6104 468.891 97.3208 468.096C97.4751 467.996 97.664 467.963 97.8437 468.004L97.9401 468.025ZM95.8563 471.563C96.8896 471.203 98.7271 469.54 98.7297 468.458C98.7271 468.063 98.4579 467.722 98.0751 467.625C97.7432 467.507 97.3751 467.551 97.0807 467.743C95.9349 468.458 95.5921 471.205 95.5661 471.327L95.6396 471.517L95.7479 471.54L95.8563 471.563Z" fill="#9333EA"/>
<path d="M100.18 269.223C102.432 266.98 102.755 264.527 104.148 261.928C105.098 260.155 102.906 260.844 105.096 261.077C105.88 261.161 106.711 261.617 107.436 261.895C109.334 262.621 111.164 263.528 113.079 264.209C114.723 264.795 117.673 264.524 119.065 265.337C121.337 266.668 119.155 272.544 118.686 274.44C118.12 276.733 121.621 277.929 122.193 275.615C123.01 272.309 125.122 266.407 122.57 263.301C120.988 261.376 118.549 261.763 116.355 261.333C112.217 260.523 107.973 256.745 103.62 257.195C102.141 257.348 101.287 258 100.677 259.34C99.9844 260.861 100.393 262.553 99.4854 264.152C99.0188 264.975 98.4167 265.771 97.7453 266.439C96.0636 268.113 98.4917 270.904 100.18 269.223Z" fill="#9333EA"/>
<path d="M122.193 275.615L118.686 274.44C119.001 273.169 120.083 270.113 120.081 267.833C120.08 266.711 119.815 265.777 119.065 265.337C117.673 264.524 114.723 264.795 113.079 264.209C111.164 263.528 109.334 262.621 107.436 261.895C106.711 261.617 105.88 261.161 105.096 261.077C104.76 261.041 104.527 260.995 104.37 260.948C104.389 261 104.401 261.063 104.401 261.137C104.402 261.319 104.337 261.575 104.148 261.928C102.91 264.237 102.517 266.433 100.864 268.468L97.2473 267.256C97.3306 266.971 97.4912 266.692 97.7453 266.439C98.4167 265.771 99.0188 264.975 99.4854 264.152C100.393 262.553 99.9844 260.861 100.677 259.34C101.287 258 102.141 257.348 103.62 257.195C103.863 257.169 104.106 257.157 104.348 257.157C108.446 257.157 112.448 260.568 116.355 261.333C118.549 261.763 120.988 261.376 122.57 263.301C123.472 264.399 123.792 265.847 123.791 267.405C123.791 270.256 122.721 273.477 122.193 275.615Z" fill="#2E53AC"/>
<path d="M123.012 327.987L62.2781 307.635C58.3781 306.328 56.276 302.108 57.5823 298.207L69.538 262.529C70.2964 260.267 72.7464 259.047 75.0099 259.804L141.669 282.141C143.933 282.899 145.152 285.349 144.395 287.612L132.44 323.291C131.132 327.191 126.911 329.292 123.012 327.987Z" fill="#9333EA"/>
<path d="M125.378 328.373C124.594 328.373 123.796 328.249 123.012 327.987L62.2781 307.635C59.1625 306.591 57.1948 303.688 57.1948 300.573C57.1948 299.789 57.3197 298.991 57.5823 298.207L67.3828 268.96C66.126 274.525 69.2636 280.249 74.7896 282.101L103.048 291.571L94.0364 317.295L95.2943 317.735L104.312 291.993L128.3 300.032C129.486 300.429 130.692 300.619 131.878 300.619C136.584 300.619 140.972 297.643 142.549 292.936L143.016 291.544C143.124 291.219 143.189 290.889 143.213 290.563C143.536 289.976 143.812 289.352 144.032 288.695L144.24 288.076L132.44 323.291C131.395 326.407 128.492 328.373 125.378 328.373ZM108.34 270.973L74.9328 259.779C74.9584 259.787 74.9839 259.796 75.0099 259.804L108.34 270.973ZM68.4307 265.832L69.538 262.529C69.5417 262.519 69.5453 262.507 69.5495 262.496L69.176 263.612C68.9833 264.185 68.8401 264.764 68.7432 265.341C68.6287 265.496 68.524 265.66 68.4307 265.832Z" fill="#C892FF"/>
<path d="M95.2942 317.735L94.0364 317.295L104.536 287.323L105.794 287.763L95.2942 317.735Z" fill="#9333EA"/>
<path d="M95.2942 317.735L94.0364 317.295L103.048 291.571L104.312 291.993L95.2942 317.735Z" fill="#2E53AC"/>
<path d="M67.3828 268.96C67.4667 268.589 67.5697 268.22 67.6932 267.851L68.1593 266.46C68.2333 266.24 68.3245 266.031 68.4307 265.832L67.3828 268.96Z" fill="#CECDCC"/>
<path d="M131.878 300.619C130.692 300.619 129.486 300.429 128.3 300.032L104.312 291.993L105.794 287.763L105.136 287.532L129.782 295.791C130.969 296.188 132.175 296.377 133.36 296.377C137.409 296.377 141.223 294.176 143.213 290.563C143.189 290.889 143.124 291.219 143.016 291.544L142.549 292.936C140.972 297.643 136.584 300.619 131.878 300.619ZM103.048 291.571L74.7896 282.101C69.2636 280.249 66.126 274.525 67.3828 268.96L68.4307 265.832C68.524 265.66 68.6287 265.496 68.7432 265.341C68.6401 265.959 68.5896 266.576 68.5896 267.188C68.5891 271.895 71.5636 276.283 76.2724 277.86L104.534 287.331L103.048 291.571Z" fill="#597EC8"/>
<path d="M104.312 291.993L103.048 291.571L104.534 287.331L105.136 287.532L105.794 287.763L104.312 291.993Z" fill="#274491"/>
<path d="M141.979 282.244L74.7006 259.701C72.6084 259 70.3432 260.127 69.6412 262.221L69.176 263.612C67.2005 269.505 70.3776 275.885 76.2724 277.86L129.782 295.791C135.677 297.767 142.057 294.589 144.032 288.695L144.497 287.304C145.199 285.212 144.071 282.945 141.979 282.244Z" fill="#9333EA"/>
<path d="M141.979 282.244L74.7006 259.701C72.6084 259 70.3432 260.127 69.6412 262.221L69.176 263.612C67.2005 269.505 70.3776 275.885 76.2724 277.86L129.782 295.791C135.677 297.767 142.057 294.589 144.032 288.695L144.497 287.304C145.199 285.212 144.071 282.945 141.979 282.244Z" fill="#9333EA"/>
<path d="M133.36 296.377C132.175 296.377 130.969 296.188 129.782 295.791L105.136 287.532L104.534 287.331L76.2724 277.86C71.5636 276.283 68.5891 271.895 68.5896 267.188C68.5896 266.003 68.7787 264.797 69.176 263.612L69.6412 262.221C70.2016 260.548 71.7593 259.493 73.4297 259.493C73.8505 259.493 74.2792 259.56 74.7005 259.701L141.979 282.244C143.649 282.805 144.707 284.364 144.707 286.035C144.707 286.455 144.639 286.883 144.497 287.304L144.032 288.695C142.455 293.403 138.067 296.377 133.36 296.377Z" fill="#C892FF"/>
<path d="M83.1735 289.799L80.9427 289.052C79.5812 288.595 78.8484 287.121 79.3041 285.761L82.6953 275.641C83.1511 274.28 84.624 273.547 85.9849 274.001L88.2156 274.749C89.5765 275.207 90.3099 276.679 89.8541 278.04L86.4631 288.16C86.0068 289.52 84.5339 290.255 83.1735 289.799Z" fill="#9333EA"/>
<path d="M119.406 301.94L117.175 301.192C115.815 300.736 115.081 299.264 115.537 297.903L118.929 287.781C119.384 286.421 120.857 285.688 122.218 286.144L124.448 286.891C125.81 287.347 126.543 288.82 126.087 290.181L122.697 300.3C122.24 301.661 120.768 302.395 119.406 301.94Z" fill="#9333EA"/>
<path d="M83.1735 289.799L80.9427 289.052C79.5812 288.595 78.8484 287.121 79.3041 285.761L82.6953 275.641C83.1511 274.28 84.624 273.547 85.9849 274.001L88.2156 274.749C89.5765 275.207 90.3099 276.679 89.8541 278.04L86.4631 288.16C86.0068 289.52 84.5339 290.255 83.1735 289.799Z" fill="white"/>
<path d="M119.406 301.94L117.175 301.192C115.815 300.736 115.081 299.264 115.537 297.903L118.929 287.781C119.384 286.421 120.857 285.688 122.218 286.144L124.448 286.891C125.81 287.347 126.543 288.82 126.087 290.181L122.697 300.3C122.24 301.661 120.768 302.395 119.406 301.94Z" fill="white"/>
<path d="M197.149 183.127C197.748 184.311 198.505 185.725 199.2 187.028C199.896 188.331 200.671 189.663 201.428 190.967C202.956 193.564 204.515 196.132 206.176 198.56C207.775 200.917 209.503 203.184 211.353 205.348C212.845 207.169 214.609 208.749 216.583 210.033L216.853 210.201L216.913 210.213L216.971 210.225C216.971 210.225 217.101 210.253 217.301 210.296C218.044 210.283 218.777 210.111 219.448 209.792C221.74 208.703 223.859 207.284 225.737 205.579C227.969 203.684 230.069 201.639 232.024 199.46C233.033 198.345 234.056 197.235 235.027 196.075C235.997 194.916 236.995 193.689 237.86 192.619L238.028 192.408C239.625 190.032 242.847 189.401 245.223 191C247.592 192.592 248.227 195.803 246.641 198.177C243.341 204.216 239.309 209.824 234.637 214.876C232.001 217.708 228.953 220.125 225.595 222.047C223.445 223.248 221.089 224.033 218.651 224.363C217.173 224.537 215.68 224.491 214.217 224.223C213.449 224.087 212.693 223.887 211.96 223.623C211.595 223.545 211.184 223.335 210.905 223.203L210.109 222.837C206.515 220.975 203.256 218.523 200.471 215.584C197.973 213.069 195.668 210.371 193.573 207.511C191.515 204.751 189.612 201.951 187.835 199.079C186.908 197.653 186.075 196.248 185.249 194.745C184.424 193.243 183.635 191.859 182.795 190.193C180.788 186.235 182.371 181.399 186.329 179.392C190.288 177.385 195.124 178.968 197.131 182.927L197.149 183.127Z" fill="#1D2A30"/>
<path d="M242.312 196.621L249.869 199.364L249.341 190.536C249.341 190.536 241.484 187.755 240.44 191.935L240.437 193.864C240.421 195.085 241.169 196.187 242.312 196.621Z" fill="#F57D88"/>
<path d="M257.639 197.273L259.236 189.731L249.341 190.536L249.869 199.364L257.639 197.273Z" fill="#F57D88"/>
<path d="M199.392 214.059C198.501 213.039 197.656 212.029 196.829 210.999C195.771 209.641 194.755 208.252 193.781 206.833C194.557 199.629 194.72 194.031 194.609 189.636C196.541 191.381 198.207 194.067 199.175 197.959C200.291 203.26 200.364 208.728 199.392 214.059Z" fill="#161C1E"/>
<path d="M182.067 262.055L131.776 251.407C132.366 246.835 136.464 232.417 139.672 213.629C141.669 200.669 142.823 187.593 143.125 174.484L143.131 174.371C143.323 170.975 146.231 168.377 149.628 168.569L149.736 168.592C152.867 168.789 156.773 169.137 160.547 169.748C167.761 170.853 174.907 172.365 181.949 174.279C184.269 175.033 186.539 175.935 188.745 176.976C191.896 178.339 194.049 181.317 194.355 184.737C195.236 195.74 194.813 217.245 182.067 262.055Z" fill="white"/>
<path d="M175.72 181.529L174.28 184.409C174.013 184.944 173.587 185.251 173.173 185.209L170.68 184.997C170.32 184.983 170.027 184.676 169.893 184.209L168.88 180.756L172.613 178.436L175.72 181.529Z" fill="#9333EA"/>
<path d="M160.005 168.853C156.036 168.213 151.909 167.844 148.604 167.636L148.496 167.612L148.301 167.603C144.732 167.484 141.741 170.28 141.621 173.851C141.315 183.331 140.575 200.033 137.996 215.125C133.112 250.188 128.268 257.159 128.268 257.159L150.711 261.396C157.489 229.552 162.721 186.061 162.172 169.148L160.005 168.853Z" fill="#1D2A30"/>
<path d="M138.756 210.288C140.384 198.973 141.095 187.287 141.451 178.763C141.555 178.645 141.669 178.539 141.795 178.445C142.223 178.081 142.748 177.905 143.323 177.905C146.541 177.905 151.347 183.429 149.725 192.552C147.915 202.771 142.948 208.921 138.756 210.288Z" fill="#161C1E"/>
<path d="M185.851 269.348L172.3 265.723C180.807 206.051 182.795 190.193 180.887 173.475C184.243 174.357 187.548 175.419 190.789 176.653C194.239 178.327 196.557 181.685 196.9 185.503C198.041 194.86 190.949 218.749 185.851 269.348Z" fill="#1D2A30"/>
<path d="M170.243 244.745C171.653 244.039 173.371 244.611 174.079 246.02L174.083 246.029C174.793 247.447 174.223 249.171 172.805 249.883C171.389 250.595 169.664 250.023 168.952 248.607C168.241 247.189 168.812 245.464 170.229 244.753L170.243 244.745Z" fill="#1D2A30"/>
<path d="M168.549 248.863C167.704 247.217 168.353 245.196 170 244.351C170.791 243.945 171.715 243.877 172.557 244.163C174.252 244.669 175.257 246.412 174.848 248.133C174.421 249.927 172.621 251.035 170.828 250.609C169.844 250.397 169.008 249.757 168.549 248.863Z" fill="white"/>
<path d="M172.947 178.505C162.219 176.839 159.707 169.671 159.707 169.671C165.343 166.004 166.219 153.068 166.087 145.839L170.805 151.799L177.233 159.92C176.785 160.915 176.397 161.933 176.071 162.975C174.756 167.103 175.036 171.191 180.944 173.977C180.944 173.977 182.097 179.888 172.947 178.505Z" fill="#F57D88"/>
<path d="M157.705 168.416L161.227 167.903C164.036 172.193 167.805 175.772 172.235 178.355C169.892 179.3 167.884 180.921 166.464 183.013C155.984 176.789 157.705 168.416 157.705 168.416Z" fill="white"/>
<path d="M181.032 173.38L178.119 172.095C178.119 172.095 175.548 178.173 172.225 178.403C177.248 181.681 177.58 184.573 177.58 184.573C185.988 183.696 181.032 173.38 181.032 173.38Z" fill="white"/>
<path d="M175.511 165.423C175.509 165.423 175.508 165.421 175.508 165.421C175.611 164.613 175.809 163.795 176.071 162.975C176.175 162.644 176.284 162.315 176.4 161.988L176.412 162.003L175.511 165.423Z" fill="#BDC2CE"/>
<path d="M175.508 165.421C173.357 164.469 170.963 161.932 170.084 159.413C171.911 160.836 174.1 161.719 176.387 161.971L176.4 161.988C176.284 162.315 176.175 162.644 176.071 162.975C175.809 163.795 175.611 164.613 175.508 165.421Z" fill="#DD6368"/>
<path d="M183.171 147.873C183.171 147.873 183.501 152.677 188.511 150.843C188.724 145.725 190.404 146.119 192.135 143.123C194.429 139.749 194.685 135.388 192.8 131.768L189.615 130.163C177.184 126.308 183.171 147.873 183.171 147.873Z" fill="#1D2A30"/>
<path d="M192.789 142.029C193.113 137.977 192.581 133.941 190.695 130.707L192.8 131.768C193.64 133.38 194.055 135.139 194.053 136.892C194.053 138.663 193.628 140.428 192.789 142.029Z" fill="#A5ADAD"/>
<path d="M170.181 128.465C174.813 123.269 182.779 122.815 187.973 127.448C195.723 134.024 192.997 148.028 188.636 155.604C187.417 157.815 185.556 159.604 183.296 160.732C177.148 163.801 169.676 161.307 166.607 155.159C163.403 148.94 165.113 143.597 167.252 134.267C167.704 132.111 168.715 130.109 170.181 128.465Z" fill="#F57D88"/>
<path d="M165.732 142.757C165.732 142.757 166.981 146.908 171.517 144.689C170.729 140.205 172.443 140.324 173.557 137.492C175.156 134.244 174.567 130.384 172.021 127.44L168.595 126.439C152.304 124.877 165.732 142.757 165.732 142.757Z" fill="#1D2A30"/>
<path d="M169.067 145.341C166.509 145.341 165.732 142.757 165.732 142.757C165.732 142.757 160.532 135.835 160.529 130.98C160.528 128.359 162.04 126.341 166.704 126.341C167.284 126.341 167.913 126.373 168.595 126.439L172.021 127.44C173.617 129.285 174.444 131.491 174.445 133.68C174.445 134.983 174.155 136.28 173.557 137.492C172.64 139.821 171.319 140.155 171.317 142.692C171.316 143.24 171.377 143.892 171.517 144.689C170.561 145.157 169.751 145.341 169.067 145.341Z" fill="#A5ADAD"/>
<path d="M181.909 117.144C180.243 116.511 178.24 116.867 176.893 118.037C176.003 118.812 175.129 119.999 173.972 119.765C173.384 119.648 172.944 119.177 172.456 118.829C170.58 117.499 167.869 118.063 166.053 119.475C164.239 120.885 163.088 122.959 161.892 124.923C160.695 126.885 159.316 128.873 157.267 129.916C160.949 131.696 165.401 131.805 169.167 130.207C168.108 131.496 166.621 132.427 165 132.817C168.721 133.901 172.836 133.568 176.335 131.901C178.321 130.955 180.161 129.581 182.329 129.209C184.497 128.837 187.179 130.011 187.379 132.2C187.681 131.049 189.256 130.663 190.332 131.175C191.407 131.685 192.073 132.769 192.652 133.808C193.232 134.849 193.832 135.953 194.851 136.568C195.871 137.184 197.445 137.049 197.969 135.979C196.385 135.907 194.977 134.493 194.913 132.909C196.071 133.56 197.463 133.784 198.767 133.531C197.027 133.417 193.628 127.227 193.101 125.563C192.575 123.9 191.779 122.219 190.34 121.232C188.721 120.123 187.084 122.059 185.549 121.239C184.096 120.461 183.641 117.8 181.909 117.144Z" fill="#1D2A30"/>
<path d="M179.747 150.816C178.509 149.797 177.705 148.268 177.567 146.671C178.472 147.027 179.376 147.383 180.28 147.737C181.411 148.181 184.668 149.551 183.944 151.345C183.264 153.031 180.617 151.533 179.747 150.816Z" fill="#1D2A30"/>
<path d="M187.401 153.752C189.004 153.725 190.587 153.031 191.689 151.867C190.76 151.581 189.832 151.297 188.903 151.012C187.741 150.656 184.34 149.696 183.788 151.552C183.271 153.293 186.273 153.771 187.401 153.752Z" fill="#1D2A30"/>
<path d="M183.712 150.669C184.805 151.367 186.149 151.545 187.387 151.159C186.497 148.731 185.941 146.196 185.733 143.619L183.712 150.669Z" fill="#F03C51"/>
<path d="M166.268 136.3C168.535 137.069 169.42 140.859 169.319 143.241C169.196 145.897 167.451 147.543 165.489 145.868C163.977 144.447 163.005 142.545 162.737 140.488C162.391 137.896 164 135.529 166.268 136.3Z" fill="#F57D88"/>
<path d="M181.328 140.52C181.809 140.685 182.003 141.495 181.797 142.169C181.591 142.843 181.025 143.315 180.541 143.163C180.057 143.009 179.909 142.285 180.069 141.527C180.291 140.78 180.847 140.356 181.328 140.52Z" fill="#1D2A30"/>
<path d="M189.752 142.833C190.235 142.999 190.445 143.723 190.224 144.469C190.004 145.216 189.436 145.7 188.955 145.535C188.472 145.369 188.264 144.633 188.484 143.887C188.703 143.152 189.272 142.668 189.752 142.833Z" fill="#1D2A30"/>
<path d="M182.864 154.849C182.991 154.869 183.109 154.785 183.132 154.66C183.145 154.536 183.065 154.421 182.944 154.392C180.979 154.125 179.249 152.961 178.263 151.241L177.96 151.136L177.855 151.437C178.733 153.033 180.228 154.197 181.991 154.659C182.269 154.733 182.576 154.768 182.864 154.849Z" fill="#1D2A30"/>
<path d="M189.449 139.625C189.485 139.773 189.589 139.895 189.729 139.952C190.86 140.303 191.768 141.149 192.195 142.252C192.255 142.491 192.497 142.633 192.733 142.572L192.756 142.567C192.993 142.492 193.131 142.245 193.069 142.004C192.569 140.612 191.444 139.533 190.031 139.093C189.791 139.017 189.535 139.145 189.449 139.381V139.625Z" fill="#1D2A30"/>
<path d="M179.736 137.248C179.856 137.341 180.013 137.373 180.16 137.333C181.265 136.915 182.501 137.024 183.517 137.632C183.711 137.781 183.989 137.745 184.139 137.552L184.152 137.533C184.293 137.329 184.251 137.051 184.055 136.897C182.803 136.107 181.253 135.948 179.868 136.471C179.633 136.559 179.508 136.816 179.587 137.056L179.736 137.248Z" fill="#1D2A30"/>
<path d="M107.662 253.268L105.932 253.072C101.855 255.037 106.284 262.581 106.284 262.581L118.287 261.116L114.807 257.044C112.986 254.931 110.434 253.583 107.662 253.268Z" fill="#F57D88"/>
<path d="M118.651 266.288L118.255 261.1L106.252 262.563L106.923 268.716L106.972 268.983C107.227 269.956 108.223 270.54 109.197 270.284L117.282 268.167C118.13 267.949 118.704 267.163 118.651 266.288Z" fill="#F57D88"/>
<path d="M177.573 231.516C177.573 231.516 173.4 241.557 171.56 240.169C169.72 238.783 165.48 231.103 165.467 230.944C165.467 230.676 170.68 184.997 170.68 184.997L173.173 185.209C172.147 190.343 177.573 231.516 177.573 231.516Z" fill="#9333EA"/>
<path d="M108.848 206.695C103.869 213.829 102.674 247.292 103.976 255.895C105.993 253.464 109.961 252.965 112.517 254.824C112.634 248.933 117.417 227.877 119.47 219.091C120.049 216.613 121.502 214.444 123.561 212.949C132.357 206.568 148.291 193.957 150.047 188.996C152.889 180.965 150.448 164.591 143.383 169.636C136.719 174.396 112.818 201.008 108.848 206.695Z" fill="#1D2A30"/>
<path d="M507.801 38C507.801 38 506.683 37.768 505.015 37.096C503.339 36.4413 501.18 35.3333 498.936 34.2493C496.701 33.1746 494.567 32.6187 492.983 32.4653C491.4 32.288 490.324 32.4266 490.172 32.0493C490.024 31.732 490.955 30.8626 492.888 30.5066C494.8 30.1306 497.549 30.4946 500.131 31.7453C502.699 32.996 504.492 34.716 505.768 35.9307C507.032 37.1693 507.801 38 507.801 38Z" fill="#9333EA"/>
<path d="M517.589 30.1214C517.589 30.1214 516.797 30.4307 515.572 30.9094C514.371 31.3987 512.856 32.0867 511.167 32.8281C507.799 34.3107 504.924 35.8574 504.456 35.1881C504.237 34.8774 504.683 34.1227 505.649 33.1814C506.613 32.2481 508.129 31.1147 510.075 30.2787C512.017 29.4241 514.043 29.3361 515.415 29.5321C516.109 29.6361 516.653 29.7734 517.024 29.9107C517.393 30.0374 517.589 30.1214 517.589 30.1214Z" fill="#9333EA"/>
<path d="M489.643 43.876C489.643 43.876 489.443 43.756 489.088 43.54C488.745 43.3173 488.229 43.024 487.607 42.6853C486.355 41.9987 484.621 41.2213 482.671 40.5413C478.747 39.136 475.237 39.444 475.129 38.8493C475.08 38.584 475.935 38.132 477.452 37.9173C478.957 37.7 481.127 37.808 483.351 38.576C485.58 39.3506 487.276 40.732 488.259 41.8746C488.756 42.448 489.108 42.9453 489.319 43.312C489.527 43.672 489.643 43.876 489.643 43.876Z" fill="#9333EA"/>
<path d="M493.489 35.7667C493.489 35.7667 492.928 36.1014 492.083 36.5774C491.249 37.0454 490.147 37.6627 488.949 38.3347C486.583 39.6307 484.76 41.1494 484.309 40.7414C484.103 40.548 484.309 39.9227 484.913 39.0987C485.513 38.2814 486.557 37.2734 487.952 36.5107C489.352 35.748 490.812 35.544 491.833 35.5667C492.863 35.584 493.489 35.7667 493.489 35.7667Z" fill="#9333EA"/>
<path d="M486.393 31.1506C486.393 31.1506 485.065 30.6853 483.031 29.8253C480.988 28.9773 478.264 27.7586 475.273 26.772C472.288 25.7893 469.451 25.5413 467.407 25.6826C465.357 25.8 464.052 26.1906 463.863 25.8253C463.688 25.524 464.763 24.436 467.057 23.7533C469.324 23.0506 472.733 23.0066 476.135 24.136C479.529 25.2653 482.064 27.2026 483.759 28.6453C485.456 30.1106 486.393 31.1506 486.393 31.1506Z" fill="#9333EA"/>
<path d="M495.403 19.7027C495.403 19.7027 495.131 19.78 494.647 19.9174C494.165 20.0374 493.479 20.2453 492.661 20.5053C491.016 21.0227 488.889 21.8507 486.631 22.8814C482.072 24.92 479.139 27.948 478.501 27.46C478.215 27.2387 478.593 26.1267 479.752 24.684C480.9 23.2467 482.893 21.5494 485.473 20.36C488.064 19.1774 490.696 18.96 492.512 19.1267C493.427 19.2067 494.152 19.344 494.644 19.484C495.131 19.624 495.403 19.7027 495.403 19.7027Z" fill="#9333EA"/>
<path d="M186.568 71.6707C186.568 71.6707 185.449 71.4387 183.781 70.7667C182.105 70.1107 179.947 69.004 177.703 67.92C175.468 66.8453 173.333 66.2893 171.749 66.136C170.167 65.9587 169.091 66.0973 168.939 65.72C168.791 65.4013 169.721 64.5333 171.655 64.1773C173.567 63.8 176.316 64.1653 178.897 65.4173C181.465 66.6667 183.259 68.3867 184.535 69.6013C185.8 70.8413 186.568 71.6707 186.568 71.6707Z" fill="#9333EA"/>
<path d="M196.356 63.7921C196.356 63.7921 195.564 64.1014 194.339 64.5787C193.139 65.0694 191.623 65.7574 189.935 66.4988C186.565 67.9814 183.692 69.5281 183.223 68.8574C183.004 68.5481 183.449 67.7934 184.416 66.8521C185.38 65.9174 186.896 64.7854 188.841 63.9494C190.784 63.0948 192.809 63.0054 194.181 63.2014C194.876 63.3081 195.42 63.4441 195.791 63.5814C196.16 63.7081 196.356 63.7921 196.356 63.7921Z" fill="#9333EA"/>
<path d="M168.409 77.5466C168.409 77.5466 168.209 77.4253 167.856 77.2106C167.512 76.988 166.997 76.6946 166.373 76.356C165.121 75.6693 163.389 74.892 161.437 74.212C157.515 72.8066 154.004 73.1146 153.896 72.52C153.847 72.2546 154.701 71.8026 156.219 71.588C157.724 71.3706 159.893 71.4786 162.117 72.2453C164.347 73.0213 166.043 74.4026 167.025 75.5453C167.524 76.1173 167.875 76.616 168.085 76.9826C168.293 77.344 168.409 77.5466 168.409 77.5466Z" fill="#9333EA"/>
<path d="M172.256 69.4374C172.256 69.4374 171.695 69.7721 170.849 70.2481C170.016 70.7161 168.913 71.3334 167.716 72.0054C165.349 73.3 163.528 74.8201 163.076 74.4121C162.869 74.2187 163.076 73.5934 163.68 72.7694C164.28 71.9507 165.325 70.9441 166.719 70.1801C168.119 69.4201 169.579 69.2147 170.6 69.2374C171.631 69.2534 172.256 69.4374 172.256 69.4374Z" fill="#9333EA"/>
</svg>
